<svg width="350" height="212" viewBox="0 0 350 212" fill="none" xmlns="http://www.w3.org/2000/svg">
<g clip-path="url(#clip0)">
<path opacity="0.797" fill-rule="evenodd" clip-rule="evenodd" d="M0 118.538V1.14062C103.061 8.54923 288.265 76.3664 333.673 211.431H6.12195C4.49831 211.431 2.94116 210.71 1.79308 209.428C0.644989 208.145 0 206.406 0 204.592L0 118.538Z" fill="#F37B7B"/>
<path opacity="0.802" fill-rule="evenodd" clip-rule="evenodd" d="M0.0839389 116.183C-0.0279797 78.1903 -0.0279797 59.1935 0.0839389 59.1935C102.125 2.77416 223.554 -10.3334 350.084 7.3333V205.086C350.084 206.9 349.439 208.639 348.291 209.922C347.143 211.204 345.586 211.925 343.962 211.925H6.2069C5.40287 211.925 4.60669 211.748 3.86382 211.404C3.12096 211.061 2.44596 210.557 1.87738 209.922C1.30879 209.287 0.857762 208.533 0.550042 207.703C0.242321 206.874 0.0839389 205.984 0.0839389 205.086V116.183V116.183Z" fill="#F37B7B"/>
</g>
<defs>
<clipPath id="clip0">
<rect width="350" height="212" fill="white"/>
</clipPath>
</defs>
</svg>
