<svg width="452" height="266" viewBox="0 0 452 266" fill="none" xmlns="http://www.w3.org/2000/svg">
<rect width="256" height="179" fill="#F3FAFF"/>
<path d="M87.9972 72.0023C88.0796 74.2314 86.3483 75.9829 84.0398 75.9829C81.7314 75.9829 80 74.2314 80 72.0023C80.0824 70.012 81.7313 68.3401 83.7924 68.2605C86.1009 68.1013 87.9147 69.7731 87.9972 72.0023Z" fill="#E1E7F7"/>
<path d="M115.997 72.0023C116.08 74.2314 114.348 75.9829 112.04 75.9829C109.731 75.9829 108 74.2314 108 72.0023C108.082 70.012 109.731 68.3401 111.792 68.2605C114.101 68.1013 115.915 69.7731 115.997 72.0023Z" fill="#E1E7F7"/>
<path d="M87.9972 99.0667C88.0796 101.296 86.3483 103.047 84.0398 103.047C81.7314 103.047 80 101.296 80 99.0667C80.0824 97.0764 81.7313 95.4046 83.7924 95.3249C86.1009 95.1657 87.9147 96.8376 87.9972 99.0667Z" fill="#E1E7F7"/>
<path d="M115.997 99.0667C116.08 101.296 114.348 103.047 112.04 103.047C109.731 103.047 108 101.296 108 99.0667C108.082 97.0764 109.731 95.4046 111.792 95.3249C114.101 95.1657 115.915 96.8376 115.997 99.0667Z" fill="#E1E7F7"/>
<path d="M143.997 72.0023C144.08 74.2314 142.348 75.9829 140.04 75.9829C137.731 75.9829 136 74.2314 136 72.0023C136.082 70.012 137.731 68.3401 139.792 68.2605C142.101 68.1013 143.915 69.7731 143.997 72.0023Z" fill="#E1E7F7"/>
<path d="M143.997 99.0667C144.08 101.296 142.348 103.047 140.04 103.047C137.731 103.047 136 101.296 136 99.0667C136.082 97.0764 137.731 95.4046 139.792 95.3249C142.101 95.1657 143.915 96.8376 143.997 99.0667Z" fill="#E1E7F7"/>
<path d="M87.9972 126.133C88.0796 128.362 86.3483 130.114 84.0398 130.114C81.7314 130.114 80 128.362 80 126.133C80.0824 124.143 81.7313 122.471 83.7924 122.391C86.1009 122.232 87.9147 123.904 87.9972 126.133Z" fill="#E1E7F7"/>
<path d="M115.997 126.133C116.08 128.362 114.348 130.114 112.04 130.114C109.731 130.114 108 128.362 108 126.133C108.082 124.143 109.731 122.471 111.792 122.391C114.101 122.232 115.915 123.904 115.997 126.133Z" fill="#E1E7F7"/>
<path d="M87.9972 153.198C88.0796 155.427 86.3483 157.178 84.0398 157.178C81.7314 157.178 80 155.427 80 153.198C80.0824 151.207 81.7313 149.535 83.7924 149.456C86.1009 149.297 87.9147 150.968 87.9972 153.198Z" fill="#E1E7F7"/>
<path d="M115.997 153.198C116.08 155.427 114.348 157.178 112.04 157.178C109.731 157.178 108 155.427 108 153.198C108.082 151.207 109.731 149.535 111.792 149.456C114.101 149.297 115.915 150.968 115.997 153.198Z" fill="#E1E7F7"/>
<path d="M143.997 126.133C144.08 128.362 142.348 130.114 140.04 130.114C137.731 130.114 136 128.362 136 126.133C136.082 124.143 137.731 122.471 139.792 122.391C142.101 122.232 143.915 123.904 143.997 126.133Z" fill="#E1E7F7"/>
<path d="M143.997 153.198C144.08 155.427 142.348 157.178 140.04 157.178C137.731 157.178 136 155.427 136 153.198C136.082 151.207 137.731 149.535 139.792 149.456C142.101 149.297 143.915 150.968 143.997 153.198Z" fill="#E1E7F7"/>
<path d="M171.997 72.0023C172.08 74.2314 170.348 75.9829 168.04 75.9829C165.731 75.9829 164 74.2314 164 72.0023C164.082 70.012 165.731 68.3401 167.792 68.2605C170.101 68.1013 171.915 69.7731 171.997 72.0023Z" fill="#E1E7F7"/>
<path d="M199.997 72.0023C200.08 74.2314 198.348 75.9829 196.04 75.9829C193.731 75.9829 192 74.2314 192 72.0023C192.082 70.012 193.731 68.3401 195.792 68.2605C198.101 68.1013 199.915 69.7731 199.997 72.0023Z" fill="#E1E7F7"/>
<path d="M171.997 99.0667C172.08 101.296 170.348 103.047 168.04 103.047C165.731 103.047 164 101.296 164 99.0667C164.082 97.0764 165.731 95.4046 167.792 95.3249C170.101 95.1657 171.915 96.8376 171.997 99.0667Z" fill="#E1E7F7"/>
<path d="M199.997 99.0667C200.08 101.296 198.348 103.047 196.04 103.047C193.731 103.047 192 101.296 192 99.0667C192.082 97.0764 193.731 95.4046 195.792 95.3249C198.101 95.1657 199.915 96.8376 199.997 99.0667Z" fill="#E1E7F7"/>
<path d="M227.997 72.0023C228.08 74.2314 226.348 75.9829 224.04 75.9829C221.731 75.9829 220 74.2314 220 72.0023C220.082 70.012 221.731 68.3401 223.792 68.2605C226.101 68.1013 227.915 69.7731 227.997 72.0023Z" fill="#E1E7F7"/>
<path d="M227.997 99.0667C228.08 101.296 226.348 103.047 224.04 103.047C221.731 103.047 220 101.296 220 99.0667C220.082 97.0764 221.731 95.4046 223.792 95.3249C226.101 95.1657 227.915 96.8376 227.997 99.0667Z" fill="#E1E7F7"/>
<path d="M171.997 126.133C172.08 128.362 170.348 130.114 168.04 130.114C165.731 130.114 164 128.362 164 126.133C164.082 124.143 165.731 122.471 167.792 122.391C170.101 122.232 171.915 123.904 171.997 126.133Z" fill="#E1E7F7"/>
<path d="M199.997 126.133C200.08 128.362 198.348 130.114 196.04 130.114C193.731 130.114 192 128.362 192 126.133C192.082 124.143 193.731 122.471 195.792 122.391C198.101 122.232 199.915 123.904 199.997 126.133Z" fill="#E1E7F7"/>
<path d="M171.997 153.198C172.08 155.427 170.348 157.178 168.04 157.178C165.731 157.178 164 155.427 164 153.198C164.082 151.207 165.731 149.535 167.792 149.456C170.101 149.297 171.915 150.968 171.997 153.198Z" fill="#E1E7F7"/>
<path d="M199.997 153.198C200.08 155.427 198.348 157.178 196.04 157.178C193.731 157.178 192 155.427 192 153.198C192.082 151.207 193.731 149.535 195.792 149.456C198.101 149.297 199.915 150.968 199.997 153.198Z" fill="#E1E7F7"/>
<path d="M227.997 126.133C228.08 128.362 226.348 130.114 224.04 130.114C221.731 130.114 220 128.362 220 126.133C220.082 124.143 221.731 122.471 223.792 122.391C226.101 122.232 227.915 123.904 227.997 126.133Z" fill="#E1E7F7"/>
<path d="M227.997 153.198C228.08 155.427 226.348 157.178 224.04 157.178C221.731 157.178 220 155.427 220 153.198C220.082 151.207 221.731 149.535 223.792 149.456C226.101 149.297 227.915 150.968 227.997 153.198Z" fill="#E1E7F7"/>
<path d="M255.997 72.0023C256.08 74.2314 254.348 75.9829 252.04 75.9829C249.731 75.9829 248 74.2314 248 72.0023C248.082 70.012 249.731 68.3401 251.792 68.2605C254.101 68.1013 255.915 69.7731 255.997 72.0023Z" fill="#E1E7F7"/>
<path d="M283.997 72.0023C284.08 74.2314 282.348 75.9829 280.04 75.9829C277.731 75.9829 276 74.2314 276 72.0023C276.082 70.012 277.731 68.3401 279.792 68.2605C282.101 68.1013 283.915 69.7731 283.997 72.0023Z" fill="#E1E7F7"/>
<path d="M255.997 99.0667C256.08 101.296 254.348 103.047 252.04 103.047C249.731 103.047 248 101.296 248 99.0667C248.082 97.0764 249.731 95.4046 251.792 95.3249C254.101 95.1657 255.915 96.8376 255.997 99.0667Z" fill="#E1E7F7"/>
<path d="M283.997 99.0667C284.08 101.296 282.348 103.047 280.04 103.047C277.731 103.047 276 101.296 276 99.0667C276.082 97.0764 277.731 95.4046 279.792 95.3249C282.101 95.1657 283.915 96.8376 283.997 99.0667Z" fill="#E1E7F7"/>
<path d="M311.997 72.0023C312.08 74.2314 310.348 75.9829 308.04 75.9829C305.731 75.9829 304 74.2314 304 72.0023C304.082 70.012 305.731 68.3401 307.792 68.2605C310.101 68.1013 311.915 69.7731 311.997 72.0023Z" fill="#E1E7F7"/>
<path d="M311.997 99.0667C312.08 101.296 310.348 103.047 308.04 103.047C305.731 103.047 304 101.296 304 99.0667C304.082 97.0764 305.731 95.4046 307.792 95.3249C310.101 95.1657 311.915 96.8376 311.997 99.0667Z" fill="#E1E7F7"/>
<path d="M255.997 126.133C256.08 128.362 254.348 130.114 252.04 130.114C249.731 130.114 248 128.362 248 126.133C248.082 124.143 249.731 122.471 251.792 122.391C254.101 122.232 255.915 123.904 255.997 126.133Z" fill="#E1E7F7"/>
<path d="M283.997 126.133C284.08 128.362 282.348 130.114 280.04 130.114C277.731 130.114 276 128.362 276 126.133C276.082 124.143 277.731 122.471 279.792 122.391C282.101 122.232 283.915 123.904 283.997 126.133Z" fill="#E1E7F7"/>
<path d="M255.997 153.198C256.08 155.427 254.348 157.178 252.04 157.178C249.731 157.178 248 155.427 248 153.198C248.082 151.207 249.731 149.535 251.792 149.456C254.101 149.297 255.915 150.968 255.997 153.198Z" fill="#E1E7F7"/>
<path d="M283.997 153.198C284.08 155.427 282.348 157.178 280.04 157.178C277.731 157.178 276 155.427 276 153.198C276.082 151.207 277.731 149.535 279.792 149.456C282.101 149.297 283.915 150.968 283.997 153.198Z" fill="#E1E7F7"/>
<path d="M311.997 126.133C312.08 128.362 310.348 130.114 308.04 130.114C305.731 130.114 304 128.362 304 126.133C304.082 124.143 305.731 122.471 307.792 122.391C310.101 122.232 311.915 123.904 311.997 126.133Z" fill="#E1E7F7"/>
<path d="M311.997 153.198C312.08 155.427 310.348 157.178 308.04 157.178C305.731 157.178 304 155.427 304 153.198C304.082 151.207 305.731 149.535 307.792 149.456C310.101 149.297 311.915 150.968 311.997 153.198Z" fill="#E1E7F7"/>
<path d="M339.997 72.0023C340.08 74.2314 338.348 75.9829 336.04 75.9829C333.731 75.9829 332 74.2314 332 72.0023C332.082 70.012 333.731 68.3401 335.792 68.2605C338.101 68.1013 339.915 69.7731 339.997 72.0023Z" fill="#E1E7F7"/>
<path d="M367.997 72.0023C368.08 74.2314 366.348 75.9829 364.04 75.9829C361.731 75.9829 360 74.2314 360 72.0023C360.082 70.012 361.731 68.3401 363.792 68.2605C366.101 68.1013 367.915 69.7731 367.997 72.0023Z" fill="#E1E7F7"/>
<path d="M339.997 99.0667C340.08 101.296 338.348 103.047 336.04 103.047C333.731 103.047 332 101.296 332 99.0667C332.082 97.0764 333.731 95.4046 335.792 95.3249C338.101 95.1657 339.915 96.8376 339.997 99.0667Z" fill="#E1E7F7"/>
<path d="M367.997 99.0667C368.08 101.296 366.348 103.047 364.04 103.047C361.731 103.047 360 101.296 360 99.0667C360.082 97.0764 361.731 95.4046 363.792 95.3249C366.101 95.1657 367.915 96.8376 367.997 99.0667Z" fill="#E1E7F7"/>
<path d="M395.997 72.0023C396.08 74.2314 394.348 75.9829 392.04 75.9829C389.731 75.9829 388 74.2314 388 72.0023C388.082 70.012 389.731 68.3401 391.792 68.2605C394.101 68.1013 395.915 69.7731 395.997 72.0023Z" fill="#E1E7F7"/>
<path d="M395.997 99.0667C396.08 101.296 394.348 103.047 392.04 103.047C389.731 103.047 388 101.296 388 99.0667C388.082 97.0764 389.731 95.4046 391.792 95.3249C394.101 95.1657 395.915 96.8376 395.997 99.0667Z" fill="#E1E7F7"/>
<path d="M339.997 126.133C340.08 128.362 338.348 130.114 336.04 130.114C333.731 130.114 332 128.362 332 126.133C332.082 124.143 333.731 122.471 335.792 122.391C338.101 122.232 339.915 123.904 339.997 126.133Z" fill="#E1E7F7"/>
<path d="M367.997 126.133C368.08 128.362 366.348 130.114 364.04 130.114C361.731 130.114 360 128.362 360 126.133C360.082 124.143 361.731 122.471 363.792 122.391C366.101 122.232 367.915 123.904 367.997 126.133Z" fill="#E1E7F7"/>
<path d="M339.997 153.198C340.08 155.427 338.348 157.178 336.04 157.178C333.731 157.178 332 155.427 332 153.198C332.082 151.207 333.731 149.535 335.792 149.456C338.101 149.297 339.915 150.968 339.997 153.198Z" fill="#E1E7F7"/>
<path d="M367.997 153.198C368.08 155.427 366.348 157.178 364.04 157.178C361.731 157.178 360 155.427 360 153.198C360.082 151.207 361.731 149.535 363.792 149.456C366.101 149.297 367.915 150.968 367.997 153.198Z" fill="#E1E7F7"/>
<path d="M395.997 126.133C396.08 128.362 394.348 130.114 392.04 130.114C389.731 130.114 388 128.362 388 126.133C388.082 124.143 389.731 122.471 391.792 122.391C394.101 122.232 395.915 123.904 395.997 126.133Z" fill="#E1E7F7"/>
<path d="M395.997 153.198C396.08 155.427 394.348 157.178 392.04 157.178C389.731 157.178 388 155.427 388 153.198C388.082 151.207 389.731 149.535 391.792 149.456C394.101 149.297 395.915 150.968 395.997 153.198Z" fill="#E1E7F7"/>
<path d="M423.997 72.0023C424.08 74.2314 422.348 75.9829 420.04 75.9829C417.731 75.9829 416 74.2314 416 72.0023C416.082 70.012 417.731 68.3401 419.792 68.2605C422.101 68.1013 423.915 69.7731 423.997 72.0023Z" fill="#E1E7F7"/>
<path d="M423.997 99.0667C424.08 101.296 422.348 103.047 420.04 103.047C417.731 103.047 416 101.296 416 99.0667C416.082 97.0764 417.731 95.4046 419.792 95.3249C422.101 95.1657 423.915 96.8376 423.997 99.0667Z" fill="#E1E7F7"/>
<path d="M451.997 72.0023C452.08 74.2314 450.348 75.9829 448.04 75.9829C445.731 75.9829 444 74.2314 444 72.0023C444.082 70.012 445.731 68.3401 447.792 68.2605C450.101 68.1013 451.915 69.7731 451.997 72.0023Z" fill="#E1E7F7"/>
<path d="M451.997 99.0667C452.08 101.296 450.348 103.047 448.04 103.047C445.731 103.047 444 101.296 444 99.0667C444.082 97.0764 445.731 95.4046 447.792 95.3249C450.101 95.1657 451.915 96.8376 451.997 99.0667Z" fill="#E1E7F7"/>
<path d="M423.997 126.133C424.08 128.362 422.348 130.114 420.04 130.114C417.731 130.114 416 128.362 416 126.133C416.082 124.143 417.731 122.471 419.792 122.391C422.101 122.232 423.915 123.904 423.997 126.133Z" fill="#E1E7F7"/>
<path d="M423.997 153.198C424.08 155.427 422.348 157.178 420.04 157.178C417.731 157.178 416 155.427 416 153.198C416.082 151.207 417.731 149.535 419.792 149.456C422.101 149.297 423.915 150.968 423.997 153.198Z" fill="#E1E7F7"/>
<path d="M451.997 126.133C452.08 128.362 450.348 130.114 448.04 130.114C445.731 130.114 444 128.362 444 126.133C444.082 124.143 445.731 122.471 447.792 122.391C450.101 122.232 451.915 123.904 451.997 126.133Z" fill="#E1E7F7"/>
<path d="M451.997 153.198C452.08 155.427 450.348 157.178 448.04 157.178C445.731 157.178 444 155.427 444 153.198C444.082 151.207 445.731 149.535 447.792 149.456C450.101 149.297 451.915 150.968 451.997 153.198Z" fill="#E1E7F7"/>
<path d="M87.9972 180.262C88.0796 182.491 86.3483 184.243 84.0398 184.243C81.7314 184.243 80 182.491 80 180.262C80.0824 178.272 81.7313 176.6 83.7924 176.52C86.1009 176.361 87.9147 178.033 87.9972 180.262Z" fill="#E1E7F7"/>
<path d="M115.997 180.262C116.08 182.491 114.348 184.243 112.04 184.243C109.731 184.243 108 182.491 108 180.262C108.082 178.272 109.731 176.6 111.792 176.52C114.101 176.361 115.915 178.033 115.997 180.262Z" fill="#E1E7F7"/>
<path d="M87.9972 207.326C88.0796 209.556 86.3483 211.307 84.0398 211.307C81.7314 211.307 80 209.556 80 207.326C80.0824 205.336 81.7313 203.664 83.7924 203.585C86.1009 203.425 87.9147 205.097 87.9972 207.326Z" fill="#E1E7F7"/>
<path d="M115.997 207.326C116.08 209.556 114.348 211.307 112.04 211.307C109.731 211.307 108 209.556 108 207.326C108.082 205.336 109.731 203.664 111.792 203.585C114.101 203.425 115.915 205.097 115.997 207.326Z" fill="#E1E7F7"/>
<path d="M143.997 180.262C144.08 182.491 142.348 184.243 140.04 184.243C137.731 184.243 136 182.491 136 180.262C136.082 178.272 137.731 176.6 139.792 176.52C142.101 176.361 143.915 178.033 143.997 180.262Z" fill="#E1E7F7"/>
<path d="M143.997 207.326C144.08 209.556 142.348 211.307 140.04 211.307C137.731 211.307 136 209.556 136 207.326C136.082 205.336 137.731 203.664 139.792 203.585C142.101 203.425 143.915 205.097 143.997 207.326Z" fill="#E1E7F7"/>
<path d="M87.9972 234.391C88.0796 236.62 86.3483 238.372 84.0398 238.372C81.7314 238.372 80 236.62 80 234.391C80.0824 232.401 81.7313 230.729 83.7924 230.649C86.1009 230.49 87.9147 232.162 87.9972 234.391Z" fill="#E1E7F7"/>
<path d="M115.997 234.391C116.08 236.62 114.348 238.372 112.04 238.372C109.731 238.372 108 236.62 108 234.391C108.082 232.401 109.731 230.729 111.792 230.649C114.101 230.49 115.915 232.162 115.997 234.391Z" fill="#E1E7F7"/>
<path d="M87.9972 261.457C88.0796 263.686 86.3483 265.438 84.0398 265.438C81.7314 265.438 80 263.686 80 261.457C80.0824 259.467 81.7313 257.795 83.7924 257.716C86.1009 257.556 87.9147 259.228 87.9972 261.457Z" fill="#E1E7F7"/>
<path d="M115.997 261.457C116.08 263.686 114.348 265.438 112.04 265.438C109.731 265.438 108 263.686 108 261.457C108.082 259.467 109.731 257.795 111.792 257.716C114.101 257.556 115.915 259.228 115.997 261.457Z" fill="#E1E7F7"/>
<path d="M143.997 234.391C144.08 236.62 142.348 238.372 140.04 238.372C137.731 238.372 136 236.62 136 234.391C136.082 232.401 137.731 230.729 139.792 230.649C142.101 230.49 143.915 232.162 143.997 234.391Z" fill="#E1E7F7"/>
<path d="M143.997 261.457C144.08 263.686 142.348 265.438 140.04 265.438C137.731 265.438 136 263.686 136 261.457C136.082 259.467 137.731 257.795 139.792 257.716C142.101 257.556 143.915 259.228 143.997 261.457Z" fill="#E1E7F7"/>
<path d="M171.997 180.262C172.08 182.491 170.348 184.243 168.04 184.243C165.731 184.243 164 182.491 164 180.262C164.082 178.272 165.731 176.6 167.792 176.52C170.101 176.361 171.915 178.033 171.997 180.262Z" fill="#E1E7F7"/>
<path d="M199.997 180.262C200.08 182.491 198.348 184.243 196.04 184.243C193.731 184.243 192 182.491 192 180.262C192.082 178.272 193.731 176.6 195.792 176.52C198.101 176.361 199.915 178.033 199.997 180.262Z" fill="#E1E7F7"/>
<path d="M171.997 207.326C172.08 209.556 170.348 211.307 168.04 211.307C165.731 211.307 164 209.556 164 207.326C164.082 205.336 165.731 203.664 167.792 203.585C170.101 203.425 171.915 205.097 171.997 207.326Z" fill="#E1E7F7"/>
<path d="M199.997 207.326C200.08 209.556 198.348 211.307 196.04 211.307C193.731 211.307 192 209.556 192 207.326C192.082 205.336 193.731 203.664 195.792 203.585C198.101 203.425 199.915 205.097 199.997 207.326Z" fill="#E1E7F7"/>
<path d="M227.997 180.262C228.08 182.491 226.348 184.243 224.04 184.243C221.731 184.243 220 182.491 220 180.262C220.082 178.272 221.731 176.6 223.792 176.52C226.101 176.361 227.915 178.033 227.997 180.262Z" fill="#E1E7F7"/>
<path d="M227.997 207.326C228.08 209.556 226.348 211.307 224.04 211.307C221.731 211.307 220 209.556 220 207.326C220.082 205.336 221.731 203.664 223.792 203.585C226.101 203.425 227.915 205.097 227.997 207.326Z" fill="#E1E7F7"/>
<path d="M171.997 234.391C172.08 236.62 170.348 238.372 168.04 238.372C165.731 238.372 164 236.62 164 234.391C164.082 232.401 165.731 230.729 167.792 230.649C170.101 230.49 171.915 232.162 171.997 234.391Z" fill="#E1E7F7"/>
<path d="M199.997 234.391C200.08 236.62 198.348 238.372 196.04 238.372C193.731 238.372 192 236.62 192 234.391C192.082 232.401 193.731 230.729 195.792 230.649C198.101 230.49 199.915 232.162 199.997 234.391Z" fill="#E1E7F7"/>
<path d="M171.997 261.457C172.08 263.686 170.348 265.438 168.04 265.438C165.731 265.438 164 263.686 164 261.457C164.082 259.467 165.731 257.795 167.792 257.716C170.101 257.556 171.915 259.228 171.997 261.457Z" fill="#E1E7F7"/>
<path d="M199.997 261.457C200.08 263.686 198.348 265.438 196.04 265.438C193.731 265.438 192 263.686 192 261.457C192.082 259.467 193.731 257.795 195.792 257.716C198.101 257.556 199.915 259.228 199.997 261.457Z" fill="#E1E7F7"/>
<path d="M227.997 234.391C228.08 236.62 226.348 238.372 224.04 238.372C221.731 238.372 220 236.62 220 234.391C220.082 232.401 221.731 230.729 223.792 230.649C226.101 230.49 227.915 232.162 227.997 234.391Z" fill="#E1E7F7"/>
<path d="M227.997 261.457C228.08 263.686 226.348 265.438 224.04 265.438C221.731 265.438 220 263.686 220 261.457C220.082 259.467 221.731 257.795 223.792 257.716C226.101 257.556 227.915 259.228 227.997 261.457Z" fill="#E1E7F7"/>
<path d="M255.997 180.262C256.08 182.491 254.348 184.243 252.04 184.243C249.731 184.243 248 182.491 248 180.262C248.082 178.272 249.731 176.6 251.792 176.52C254.101 176.361 255.915 178.033 255.997 180.262Z" fill="#E1E7F7"/>
<path d="M283.997 180.262C284.08 182.491 282.348 184.243 280.04 184.243C277.731 184.243 276 182.491 276 180.262C276.082 178.272 277.731 176.6 279.792 176.52C282.101 176.361 283.915 178.033 283.997 180.262Z" fill="#E1E7F7"/>
<path d="M255.997 207.326C256.08 209.556 254.348 211.307 252.04 211.307C249.731 211.307 248 209.556 248 207.326C248.082 205.336 249.731 203.664 251.792 203.585C254.101 203.425 255.915 205.097 255.997 207.326Z" fill="#E1E7F7"/>
<path d="M283.997 207.326C284.08 209.556 282.348 211.307 280.04 211.307C277.731 211.307 276 209.556 276 207.326C276.082 205.336 277.731 203.664 279.792 203.585C282.101 203.425 283.915 205.097 283.997 207.326Z" fill="#E1E7F7"/>
<path d="M311.997 180.262C312.08 182.491 310.348 184.243 308.04 184.243C305.731 184.243 304 182.491 304 180.262C304.082 178.272 305.731 176.6 307.792 176.52C310.101 176.361 311.915 178.033 311.997 180.262Z" fill="#E1E7F7"/>
<path d="M311.997 207.326C312.08 209.556 310.348 211.307 308.04 211.307C305.731 211.307 304 209.556 304 207.326C304.082 205.336 305.731 203.664 307.792 203.585C310.101 203.425 311.915 205.097 311.997 207.326Z" fill="#E1E7F7"/>
<path d="M255.997 234.391C256.08 236.62 254.348 238.372 252.04 238.372C249.731 238.372 248 236.62 248 234.391C248.082 232.401 249.731 230.729 251.792 230.649C254.101 230.49 255.915 232.162 255.997 234.391Z" fill="#E1E7F7"/>
<path d="M283.997 234.391C284.08 236.62 282.348 238.372 280.04 238.372C277.731 238.372 276 236.62 276 234.391C276.082 232.401 277.731 230.729 279.792 230.649C282.101 230.49 283.915 232.162 283.997 234.391Z" fill="#E1E7F7"/>
<path d="M255.997 261.457C256.08 263.686 254.348 265.438 252.04 265.438C249.731 265.438 248 263.686 248 261.457C248.082 259.467 249.731 257.795 251.792 257.716C254.101 257.556 255.915 259.228 255.997 261.457Z" fill="#E1E7F7"/>
<path d="M283.997 261.457C284.08 263.686 282.348 265.438 280.04 265.438C277.731 265.438 276 263.686 276 261.457C276.082 259.467 277.731 257.795 279.792 257.716C282.101 257.556 283.915 259.228 283.997 261.457Z" fill="#E1E7F7"/>
<path d="M311.997 234.391C312.08 236.62 310.348 238.372 308.04 238.372C305.731 238.372 304 236.62 304 234.391C304.082 232.401 305.731 230.729 307.792 230.649C310.101 230.49 311.915 232.162 311.997 234.391Z" fill="#E1E7F7"/>
<path d="M311.997 261.457C312.08 263.686 310.348 265.438 308.04 265.438C305.731 265.438 304 263.686 304 261.457C304.082 259.467 305.731 257.795 307.792 257.716C310.101 257.556 311.915 259.228 311.997 261.457Z" fill="#E1E7F7"/>
<path d="M339.997 180.262C340.08 182.491 338.348 184.243 336.04 184.243C333.731 184.243 332 182.491 332 180.262C332.082 178.272 333.731 176.6 335.792 176.52C338.101 176.361 339.915 178.033 339.997 180.262Z" fill="#E1E7F7"/>
<path d="M367.997 180.262C368.08 182.491 366.348 184.243 364.04 184.243C361.731 184.243 360 182.491 360 180.262C360.082 178.272 361.731 176.6 363.792 176.52C366.101 176.361 367.915 178.033 367.997 180.262Z" fill="#E1E7F7"/>
<path d="M339.997 207.326C340.08 209.556 338.348 211.307 336.04 211.307C333.731 211.307 332 209.556 332 207.326C332.082 205.336 333.731 203.664 335.792 203.585C338.101 203.425 339.915 205.097 339.997 207.326Z" fill="#E1E7F7"/>
<path d="M367.997 207.326C368.08 209.556 366.348 211.307 364.04 211.307C361.731 211.307 360 209.556 360 207.326C360.082 205.336 361.731 203.664 363.792 203.585C366.101 203.425 367.915 205.097 367.997 207.326Z" fill="#E1E7F7"/>
<path d="M395.997 180.262C396.08 182.491 394.348 184.243 392.04 184.243C389.731 184.243 388 182.491 388 180.262C388.082 178.272 389.731 176.6 391.792 176.52C394.101 176.361 395.915 178.033 395.997 180.262Z" fill="#E1E7F7"/>
<path d="M395.997 207.326C396.08 209.556 394.348 211.307 392.04 211.307C389.731 211.307 388 209.556 388 207.326C388.082 205.336 389.731 203.664 391.792 203.585C394.101 203.425 395.915 205.097 395.997 207.326Z" fill="#E1E7F7"/>
<path d="M339.997 234.391C340.08 236.62 338.348 238.372 336.04 238.372C333.731 238.372 332 236.62 332 234.391C332.082 232.401 333.731 230.729 335.792 230.649C338.101 230.49 339.915 232.162 339.997 234.391Z" fill="#E1E7F7"/>
<path d="M367.997 234.391C368.08 236.62 366.348 238.372 364.04 238.372C361.731 238.372 360 236.62 360 234.391C360.082 232.401 361.731 230.729 363.792 230.649C366.101 230.49 367.915 232.162 367.997 234.391Z" fill="#E1E7F7"/>
<path d="M339.997 261.457C340.08 263.686 338.348 265.438 336.04 265.438C333.731 265.438 332 263.686 332 261.457C332.082 259.467 333.731 257.795 335.792 257.716C338.101 257.556 339.915 259.228 339.997 261.457Z" fill="#E1E7F7"/>
<path d="M367.997 261.457C368.08 263.686 366.348 265.438 364.04 265.438C361.731 265.438 360 263.686 360 261.457C360.082 259.467 361.731 257.795 363.792 257.716C366.101 257.556 367.915 259.228 367.997 261.457Z" fill="#E1E7F7"/>
<path d="M395.997 234.391C396.08 236.62 394.348 238.372 392.04 238.372C389.731 238.372 388 236.62 388 234.391C388.082 232.401 389.731 230.729 391.792 230.649C394.101 230.49 395.915 232.162 395.997 234.391Z" fill="#E1E7F7"/>
<path d="M395.997 261.457C396.08 263.686 394.348 265.438 392.04 265.438C389.731 265.438 388 263.686 388 261.457C388.082 259.467 389.731 257.795 391.792 257.716C394.101 257.556 395.915 259.228 395.997 261.457Z" fill="#E1E7F7"/>
<path d="M423.997 180.262C424.08 182.491 422.348 184.243 420.04 184.243C417.731 184.243 416 182.491 416 180.262C416.082 178.272 417.731 176.6 419.792 176.52C422.101 176.361 423.915 178.033 423.997 180.262Z" fill="#E1E7F7"/>
<path d="M423.997 207.326C424.08 209.556 422.348 211.307 420.04 211.307C417.731 211.307 416 209.556 416 207.326C416.082 205.336 417.731 203.664 419.792 203.585C422.101 203.425 423.915 205.097 423.997 207.326Z" fill="#E1E7F7"/>
<path d="M451.997 180.262C452.08 182.491 450.348 184.243 448.04 184.243C445.731 184.243 444 182.491 444 180.262C444.082 178.272 445.731 176.6 447.792 176.52C450.101 176.361 451.915 178.033 451.997 180.262Z" fill="#E1E7F7"/>
<path d="M451.997 207.326C452.08 209.556 450.348 211.307 448.04 211.307C445.731 211.307 444 209.556 444 207.326C444.082 205.336 445.731 203.664 447.792 203.585C450.101 203.425 451.915 205.097 451.997 207.326Z" fill="#E1E7F7"/>
<path d="M423.997 234.391C424.08 236.62 422.348 238.372 420.04 238.372C417.731 238.372 416 236.62 416 234.391C416.082 232.401 417.731 230.729 419.792 230.649C422.101 230.49 423.915 232.162 423.997 234.391Z" fill="#E1E7F7"/>
<path d="M423.997 261.457C424.08 263.686 422.348 265.438 420.04 265.438C417.731 265.438 416 263.686 416 261.457C416.082 259.467 417.731 257.795 419.792 257.716C422.101 257.556 423.915 259.228 423.997 261.457Z" fill="#E1E7F7"/>
<path d="M451.997 234.391C452.08 236.62 450.348 238.372 448.04 238.372C445.731 238.372 444 236.62 444 234.391C444.082 232.401 445.731 230.729 447.792 230.649C450.101 230.49 451.915 232.162 451.997 234.391Z" fill="#E1E7F7"/>
<path d="M451.997 261.457C452.08 263.686 450.348 265.438 448.04 265.438C445.731 265.438 444 263.686 444 261.457C444.082 259.467 445.731 257.795 447.792 257.716C450.101 257.556 451.915 259.228 451.997 261.457Z" fill="#E1E7F7"/>
</svg>
