<svg width="92" height="16" viewBox="0 0 92 16" fill="none" xmlns="http://www.w3.org/2000/svg">
<g clip-path="url(#clip0)">
<path d="M15.9583 6.13797C15.8536 5.81398 15.5662 5.58388 15.2262 5.55324L10.6082 5.13391L8.78208 0.859755C8.64744 0.546514 8.34079 0.34375 8.00008 0.34375C7.65937 0.34375 7.35273 0.546514 7.21808 0.860487L5.39198 5.13391L0.773211 5.55324C0.433847 5.58461 0.147219 5.81398 0.0418692 6.13797C-0.0634802 6.46195 0.0338123 6.81731 0.290533 7.04131L3.78122 10.1027L2.7519 14.6368C2.67658 14.9702 2.80598 15.3148 3.0826 15.5148C3.23128 15.6222 3.40524 15.6769 3.58066 15.6769C3.73191 15.6769 3.88193 15.6361 4.01658 15.5556L8.00008 13.1748L11.9821 15.5556C12.2735 15.7309 12.6408 15.7149 12.9168 15.5148C13.1936 15.3142 13.3229 14.9695 13.2475 14.6368L12.2182 10.1027L15.7089 7.04192C15.9656 6.81731 16.0636 6.46256 15.9583 6.13797V6.13797Z" fill="#FFC107"/>
</g>
<g clip-path="url(#clip1)">
<path d="M34.9583 6.13797C34.8536 5.81398 34.5662 5.58388 34.2262 5.55324L29.6082 5.13391L27.7821 0.859755C27.6474 0.546514 27.3408 0.34375 27.0001 0.34375C26.6594 0.34375 26.3527 0.546514 26.2181 0.860487L24.392 5.13391L19.7732 5.55324C19.4338 5.58461 19.1472 5.81398 19.0419 6.13797C18.9365 6.46195 19.0338 6.81731 19.2905 7.04131L22.7812 10.1027L21.7519 14.6368C21.6766 14.9702 21.806 15.3148 22.0826 15.5148C22.2313 15.6222 22.4052 15.6769 22.5807 15.6769C22.7319 15.6769 22.8819 15.6361 23.0166 15.5556L27.0001 13.1748L30.9821 15.5556C31.2735 15.7309 31.6408 15.7149 31.9168 15.5148C32.1936 15.3142 32.3229 14.9695 32.2475 14.6368L31.2182 10.1027L34.7089 7.04192C34.9656 6.81731 35.0636 6.46256 34.9583 6.13797V6.13797Z" fill="#FFC107"/>
</g>
<g clip-path="url(#clip2)">
<path d="M53.9583 6.13797C53.8536 5.81398 53.5662 5.58388 53.2262 5.55324L48.6082 5.13391L46.7821 0.859755C46.6474 0.546514 46.3408 0.34375 46.0001 0.34375C45.6594 0.34375 45.3527 0.546514 45.2181 0.860487L43.392 5.13391L38.7732 5.55324C38.4338 5.58461 38.1472 5.81398 38.0419 6.13797C37.9365 6.46195 38.0338 6.81731 38.2905 7.04131L41.7812 10.1027L40.7519 14.6368C40.6766 14.9702 40.806 15.3148 41.0826 15.5148C41.2313 15.6222 41.4052 15.6769 41.5807 15.6769C41.7319 15.6769 41.8819 15.6361 42.0166 15.5556L46.0001 13.1748L49.9821 15.5556C50.2735 15.7309 50.6408 15.7149 50.9168 15.5148C51.1936 15.3142 51.3229 14.9695 51.2475 14.6368L50.2182 10.1027L53.7089 7.04192C53.9656 6.81731 54.0636 6.46256 53.9583 6.13797V6.13797Z" fill="#FFC107"/>
</g>
<g clip-path="url(#clip3)">
<path d="M72.9583 6.13797C72.8536 5.81398 72.5662 5.58388 72.2262 5.55324L67.6082 5.13391L65.7821 0.859755C65.6474 0.546514 65.3408 0.34375 65.0001 0.34375C64.6594 0.34375 64.3527 0.546514 64.2181 0.860487L62.392 5.13391L57.7732 5.55324C57.4338 5.58461 57.1472 5.81398 57.0419 6.13797C56.9365 6.46195 57.0338 6.81731 57.2905 7.04131L60.7812 10.1027L59.7519 14.6368C59.6766 14.9702 59.806 15.3148 60.0826 15.5148C60.2313 15.6222 60.4052 15.6769 60.5807 15.6769C60.7319 15.6769 60.8819 15.6361 61.0166 15.5556L65.0001 13.1748L68.9821 15.5556C69.2735 15.7309 69.6408 15.7149 69.9168 15.5148C70.1936 15.3142 70.3229 14.9695 70.2475 14.6368L69.2182 10.1027L72.7089 7.04192C72.9656 6.81731 73.0636 6.46256 72.9583 6.13797V6.13797Z" fill="#FFC107"/>
</g>
<g clip-path="url(#clip4)">
<path d="M91.9583 6.13797C91.8536 5.81398 91.5662 5.58388 91.2262 5.55324L86.6082 5.13391L84.7821 0.859755C84.6474 0.546514 84.3408 0.34375 84.0001 0.34375C83.6594 0.34375 83.3527 0.546514 83.2181 0.860487L81.392 5.13391L76.7732 5.55324C76.4338 5.58461 76.1472 5.81398 76.0419 6.13797C75.9365 6.46195 76.0338 6.81731 76.2905 7.04131L79.7812 10.1027L78.7519 14.6368C78.6766 14.9702 78.806 15.3148 79.0826 15.5148C79.2313 15.6222 79.4052 15.6769 79.5807 15.6769C79.7319 15.6769 79.8819 15.6361 80.0166 15.5556L84.0001 13.1748L87.9821 15.5556C88.2735 15.7309 88.6408 15.7149 88.9168 15.5148C89.1936 15.3142 89.3229 14.9695 89.2475 14.6368L88.2182 10.1027L91.7089 7.04192C91.9656 6.81731 92.0636 6.46256 91.9583 6.13797V6.13797Z" fill="#FFC107"/>
</g>
<defs>
<clipPath id="clip0">
<rect width="16" height="16" fill="white"/>
</clipPath>
<clipPath id="clip1">
<rect width="16" height="16" fill="white" transform="translate(19)"/>
</clipPath>
<clipPath id="clip2">
<rect width="16" height="16" fill="white" transform="translate(38)"/>
</clipPath>
<clipPath id="clip3">
<rect width="16" height="16" fill="white" transform="translate(57)"/>
</clipPath>
<clipPath id="clip4">
<rect width="16" height="16" fill="white" transform="translate(76)"/>
</clipPath>
</defs>
</svg>
