<svg width="341" height="142" viewBox="0 0 341 142" fill="none" xmlns="http://www.w3.org/2000/svg">
<g clip-path="url(#clip0)">
<path d="M339.143 69.716H344.113V60.5547H339.143V69.716Z" fill="white"/>
<path d="M331.189 72.4647H336.16V57.8066H331.189V72.4647Z" fill="white"/>
<path d="M323.236 76.1297H328.207V54.1426H323.236V76.1297Z" fill="white"/>
<path d="M315.283 76.5868H320.254V53.6836H315.283V76.5868Z" fill="white"/>
<path d="M307.328 76.5868H312.299V53.6836H307.328V76.5868Z" fill="white"/>
<path d="M299.375 71.0894H304.346V59.1797H299.375V71.0894Z" fill="white"/>
<path d="M291.422 72.4647H296.393V57.8066H291.422V72.4647Z" fill="white"/>
<path d="M283.469 70.1751H288.44V60.0977H283.469V70.1751Z" fill="white"/>
<path d="M275.516 71.0894H280.486V59.1797H275.516V71.0894Z" fill="white"/>
<path d="M267.562 68.7997H272.533V61.4707H267.562V68.7997Z" fill="white"/>
<path d="M259.609 68.3406H264.58V61.9277H259.609V68.3406Z" fill="white"/>
<path d="M251.656 71.0894H256.627V59.1797H251.656V71.0894Z" fill="white"/>
<path d="M243.703 72.4647H248.674V57.8066H243.703V72.4647Z" fill="white"/>
<path d="M235.75 76.5868H240.721V53.6836H235.75V76.5868Z" fill="white"/>
<path d="M227.795 83.4577H232.766V46.8125H227.795V83.4577Z" fill="white"/>
<path d="M219.842 86.2064H224.813V44.0645H219.842V86.2064Z" fill="white"/>
<path d="M211.889 83.0005H216.859V47.2715H211.889V83.0005Z" fill="white"/>
<path d="M203.936 73.8381H208.906V56.4316H203.936V73.8381Z" fill="white"/>
<path d="M195.982 70.6322H200.953V59.6387H195.982V70.6322Z" fill="white"/>
<path d="M188.029 72.4647H193V57.8066H188.029V72.4647Z" fill="white"/>
<path d="M180.076 73.8381H185.047V56.4316H180.076V73.8381Z" fill="white"/>
<path d="M172.121 68.7997H177.092V61.4707H172.121V68.7997Z" fill="white"/>
<path d="M164.168 69.716H169.139V60.5547H164.168V69.716Z" fill="white"/>
<path d="M156.215 66.9673H161.186V63.3027H156.215V66.9673Z" fill="white"/>
<path d="M148.262 68.3406H153.233V61.9277H148.262V68.3406Z" fill="white"/>
<path d="M140.309 70.6322H145.279V59.6387H140.309V70.6322Z" fill="white"/>
<path d="M132.355 72.9218H137.326V57.3477H132.355V72.9218Z" fill="white"/>
<path d="M124.402 73.8381H129.373V56.4316H124.402V73.8381Z" fill="white"/>
<path d="M116.449 73.3809H121.42V56.8906H116.449V73.3809Z" fill="white"/>
<path d="M108.496 69.716H113.467V60.5547H108.496V69.716Z" fill="white"/>
<path d="M100.543 70.6322H105.514V59.6387H100.543V70.6322Z" fill="white"/>
<path d="M92.5879 68.3406H97.5587V61.9277H92.5879V68.3406Z" fill="white"/>
<path d="M84.6348 69.716H89.6056V60.5547H84.6348V69.716Z" fill="white"/>
<path d="M76.6816 68.7997H81.6525V61.4707H76.6816V68.7997Z" fill="white"/>
<path d="M68.7285 72.4647H73.6994V57.8066H68.7285V72.4647Z" fill="white"/>
<path d="M60.7754 71.0894H65.7462V59.1797H60.7754V71.0894Z" fill="white"/>
<path d="M52.8223 72.4647H57.7931V57.8066H52.8223V72.4647Z" fill="white"/>
<path d="M44.8691 76.5868H49.84V53.6836H44.8691V76.5868Z" fill="white"/>
<path d="M36.9141 83.4577H41.8849V46.8125H36.9141V83.4577Z" fill="white"/>
<path d="M28.9609 81.168H33.9318V49.1035H28.9609V81.168Z" fill="white"/>
<path d="M21.0078 83.0005H25.9787V47.2715H21.0078V83.0005Z" fill="white"/>
<path d="M13.0547 73.8381H18.0255V56.4316H13.0547V73.8381Z" fill="white"/>
<path d="M5.10156 76.5868H10.0724V53.6836H5.10156V76.5868Z" fill="white"/>
<path d="M-2.85156 72.4647H2.11928V57.8066H-2.85156V72.4647Z" fill="white"/>
</g>
<defs>
<clipPath id="clip0">
<rect width="341" height="142" fill="white"/>
</clipPath>
</defs>
</svg>
