<svg width="38" height="35" viewBox="0 0 38 35" fill="none" xmlns="http://www.w3.org/2000/svg">
<path d="M24.9181 25.3125V24.6938C24.9181 24.1375 24.5506 23.6438 24.0148 23.4938L18.2774 21.85C17.6218 21.6611 16.9345 21.6097 16.2582 21.6989C15.582 21.7882 14.9312 22.0162 14.3466 22.3688L9.96729 25V32.5H19.7165C21.5106 32.5 23.286 32.175 24.9679 31.5438L37.3771 26.875C37.9378 25.4625 36.7978 23.9563 35.2902 24.1313L24.9181 25.3125Z" fill="#56B4FC"/>
<path d="M9.96721 22.5H0V35H9.96721V22.5Z" fill="#BFE9FF"/>
<path d="M9.96721 25H0V32.5H9.96721V25Z" fill="#1652F0"/>
<path d="M31.5 20C32.8807 20 34 18.8807 34 17.5C34 16.1193 32.8807 15 31.5 15C30.1193 15 29 16.1193 29 17.5C29 18.8807 30.1193 20 31.5 20Z" fill="#1652F0"/>
<path d="M1 4.5L9 1L16.5 4.5M1 4.5L9 8M1 4.5V12.5L9 16.5M9 8L16.5 4.5M9 8V16.5M16.5 4.5V12.5L9 16.5" stroke="#56B4FC"/>
<path d="M1 4.5L9 1L16.5 4.5V12.5L9 16.5L1 12.5V4.5Z" fill="#BFE9FF"/>
<path d="M1 4.5L9 1L16.5 4.5M1 4.5L9 8M1 4.5V12.5L9 16.5M9 8L16.5 4.5M9 8V16.5M16.5 4.5V12.5L9 16.5" stroke="white"/>
</svg>
