<svg width="35" height="35" viewBox="0 0 35 35" fill="none" xmlns="http://www.w3.org/2000/svg">
<path d="M30.625 30.625H26.25V35H30.625C33.0422 35 35 33.0422 35 30.625H30.625Z" fill="#BFE9FF"/>
<path d="M26.25 30.625V0H0V30.625C0 33.0422 1.95781 35 4.375 35H30.625C28.2078 35 26.25 33.0422 26.25 30.625Z" fill="#56B4FC"/>
<path d="M21.3891 4.86111H5.8335V5.83334H21.3891V4.86111ZM21.3891 7.77778H5.8335V8.75H21.3891V7.77778ZM21.3891 10.6944H5.8335V11.6667H21.3891V10.6944ZM17.5002 13.6111H9.72238V14.5833H17.5002V13.6111Z" fill="white"/>
<path d="M26.25 30.625H0C0 33.0422 1.95781 35 4.375 35H30.625C28.2078 35 26.25 33.0422 26.25 30.625Z" fill="#1652F0"/>
<path d="M19.4443 18.5193L26.2185 15.5555L32.5693 18.5193V25.2934L26.2185 28.6805L19.4443 25.2934V18.5193Z" fill="white"/>
<path d="M19.4443 18.5193L26.2185 15.5555L32.5693 18.5193M19.4443 18.5193L26.2185 21.483M19.4443 18.5193V25.2934L26.2185 28.6805M26.2185 21.483L32.5693 18.5193M26.2185 21.483V28.6805M32.5693 18.5193V25.2934L26.2185 28.6805" stroke="#1652F0"/>
</svg>
