<svg width="38" height="38" viewBox="0 0 38 38" fill="none" xmlns="http://www.w3.org/2000/svg">
<path d="M38 0H21.375L0 21.375L16.625 38L38 16.625V0Z" fill="#BFE9FF"/>
<path d="M31.4687 8.3125C32.4525 8.3125 33.25 7.515 33.25 6.53125C33.25 5.54749 32.4525 4.75 31.4687 4.75C30.485 4.75 29.6875 5.54749 29.6875 6.53125C29.6875 7.515 30.485 8.3125 31.4687 8.3125Z" fill="white"/>
<path d="M10.689 21.3765C16.5915 21.3765 21.3765 16.5915 21.3765 10.689C21.3765 4.7865 16.5915 0.00149536 10.689 0.00149536C4.78646 0.00149536 0.00146484 4.7865 0.00146484 10.689C0.00146484 16.5915 4.78646 21.3765 10.689 21.3765Z" fill="#56B4FC"/>
<path d="M3.13057 3.1305C-1.04352 7.3046 -1.04352 14.0733 3.13057 18.2474L18.2474 3.1305C14.0734 -1.0435 7.30457 -1.0435 3.13057 3.1305Z" fill="#1652F0"/>
<path fill-rule="evenodd" clip-rule="evenodd" d="M5 5.5C5 5.22386 5.22386 5 5.5 5H8.5C8.77614 5 9 5.22386 9 5.5C9 5.77614 8.77614 6 8.5 6H6V8.5C6 8.77614 5.77614 9 5.5 9C5.22386 9 5 8.77614 5 8.5V5.5ZM12 5.5C12 5.22386 12.2239 5 12.5 5H15.5C15.7761 5 16 5.22386 16 5.5V8.5C16 8.77614 15.7761 9 15.5 9C15.2239 9 15 8.77614 15 8.5V6H12.5C12.2239 6 12 5.77614 12 5.5ZM5.5 12C5.77614 12 6 12.2239 6 12.5V15H8.5C8.77614 15 9 15.2239 9 15.5C9 15.7761 8.77614 16 8.5 16H5.5C5.22386 16 5 15.7761 5 15.5V12.5C5 12.2239 5.22386 12 5.5 12ZM15.5 12C15.7761 12 16 12.2239 16 12.5V15.5C16 15.7761 15.7761 16 15.5 16H12.5C12.2239 16 12 15.7761 12 15.5C12 15.2239 12.2239 15 12.5 15H15V12.5C15 12.2239 15.2239 12 15.5 12Z" fill="white"/>
</svg>
