<svg width="36" height="38" viewBox="0 0 36 38" fill="none" xmlns="http://www.w3.org/2000/svg">
<path fill-rule="evenodd" clip-rule="evenodd" d="M17.813 9.5C18.4429 9.5 19.047 9.24978 19.4924 8.80438C19.9378 8.35898 20.188 7.75489 20.188 7.125V2.375C20.188 1.74511 19.9378 1.14102 19.4924 0.695621C19.047 0.250222 18.4429 0 17.813 0C17.1831 0 16.579 0.250222 16.1336 0.695621C15.6882 1.14102 15.438 1.74511 15.438 2.375V7.125C15.438 7.75454 15.6879 8.35833 16.1329 8.80367C16.5779 9.24901 17.1814 9.49947 17.811 9.5H17.813ZM29.688 9.5C29.9999 9.5 30.3087 9.43857 30.5969 9.31921C30.885 9.19986 31.1468 9.02492 31.3674 8.80438C31.5879 8.58384 31.7628 8.32202 31.8822 8.03387C32.0016 7.74573 32.063 7.43689 32.063 7.125V2.375C32.063 1.74511 31.8128 1.14102 31.3674 0.695621C30.922 0.250222 30.3179 0 29.688 0C29.0581 0 28.454 0.250222 28.0086 0.695621C27.5632 1.14102 27.313 1.74511 27.313 2.375V7.125C27.313 7.75489 27.5632 8.35898 28.0086 8.80438C28.454 9.24978 29.0581 9.5 29.688 9.5" fill="#D4EEFF"/>
<path fill-rule="evenodd" clip-rule="evenodd" d="M0 38H35.625V4.75H0V38Z" fill="#D4EEFF"/>
<path fill-rule="evenodd" clip-rule="evenodd" d="M0 11.875H35.625V4.75H0V11.875Z" fill="#55B4FC"/>
<path fill-rule="evenodd" clip-rule="evenodd" d="M5.93799 9.5C6.56788 9.5 7.17197 9.24978 7.61737 8.80438C8.06277 8.35898 8.31299 7.75489 8.31299 7.125V2.375C8.31299 1.74511 8.06277 1.14102 7.61737 0.695621C7.17197 0.250222 6.56788 0 5.93799 0C5.3081 0 4.70401 0.250222 4.25861 0.695621C3.81321 1.14102 3.56299 1.74511 3.56299 2.375V7.125C3.56299 7.75472 3.81307 8.35865 4.25826 8.80402C4.70344 9.24939 5.30727 9.49973 5.93699 9.5" fill="#D4EEFF"/>
<path fill-rule="evenodd" clip-rule="evenodd" d="M27.313 4.75V7.125C27.313 7.75489 27.5632 8.35898 28.0086 8.80438C28.454 9.24978 29.0581 9.5 29.688 9.5C30.3179 9.5 30.922 9.24978 31.3674 8.80438C31.8128 8.35898 32.063 7.75489 32.063 7.125V4.75H27.313V4.75ZM5.93799 9.5C6.56788 9.5 7.17197 9.24978 7.61737 8.80438C8.06277 8.35898 8.31299 7.75489 8.31299 7.125V4.75H3.56299V7.125C3.56299 7.75472 3.81307 8.35865 4.25826 8.80402C4.70344 9.24939 5.30727 9.49973 5.93699 9.5" fill="#1752F0"/>
<path fill-rule="evenodd" clip-rule="evenodd" d="M17.813 9.5C18.4429 9.5 19.047 9.24978 19.4924 8.80438C19.9378 8.35898 20.188 7.75489 20.188 7.125V2.375C20.188 1.74511 19.9378 1.14102 19.4924 0.695621C19.047 0.250222 18.4429 0 17.813 0C17.1831 0 16.579 0.250222 16.1336 0.695621C15.6882 1.14102 15.438 1.74511 15.438 2.375V7.125C15.438 7.75454 15.6879 8.35833 16.1329 8.80367C16.5779 9.24901 17.1814 9.49947 17.811 9.5" fill="#D4EEFF"/>
<path fill-rule="evenodd" clip-rule="evenodd" d="M17.813 9.5C18.4429 9.5 19.047 9.24978 19.4924 8.80438C19.9378 8.35898 20.188 7.75489 20.188 7.125V4.75H15.438V7.125C15.438 7.75454 15.6879 8.35833 16.1329 8.80367C16.5779 9.24901 17.1814 9.49947 17.811 9.5" fill="#1752F0"/>
<path fill-rule="evenodd" clip-rule="evenodd" d="M4.75 34.438H30.875V11.875H4.75V34.438Z" fill="white"/>
<path fill-rule="evenodd" clip-rule="evenodd" d="M12.6899 26.329L16.0489 29.688L26.1249 19.61L22.7669 16.251L12.6899 26.329Z" fill="#1752F0"/>
<path fill-rule="evenodd" clip-rule="evenodd" d="M16.0492 29.688L19.4082 26.328L13.1642 20.085L9.80518 23.445L16.0492 29.688Z" fill="#1752F0"/>
</svg>
