<svg width="80" height="80" viewBox="0 0 80 80" fill="none" xmlns="http://www.w3.org/2000/svg">
<circle cx="40" cy="40" r="40" fill="#F7F7F7"/>
<mask id="mask0" mask-type="alpha" maskUnits="userSpaceOnUse" x="0" y="0" width="80" height="80">
<circle cx="40" cy="40" r="40" fill="#F7F7F7"/>
</mask>
<g mask="url(#mask0)">
<path d="M39.5 16C38.1211 16 36.7557 16.2716 35.4818 16.7993C34.2079 17.3269 33.0504 18.1004 32.0754 19.0754C31.1004 20.0504 30.3269 21.2079 29.7993 22.4818C29.2716 23.7557 29 25.1211 29 26.5C29 27.8789 29.2716 29.2443 29.7993 30.5182C30.3269 31.7921 31.1004 32.9496 32.0754 33.9246C33.0504 34.8996 34.2079 35.6731 35.4818 36.2007C36.7557 36.7284 38.1211 37 39.5 37L39.5 26.5V16Z" fill="#B6D3FF"/>
<path d="M39.5 16C38.1211 16 36.7557 16.2716 35.4818 16.7993C34.2079 17.3269 33.0504 18.1004 32.0754 19.0754C31.1004 20.0504 30.3269 21.2079 29.7993 22.4818C29.2716 23.7557 29 25.1211 29 26.5C29 27.8789 29.2716 29.2443 29.7993 30.5182C30.3269 31.7921 31.1004 32.9496 32.0754 33.9246C33.0504 34.8996 34.2079 35.6731 35.4818 36.2007C36.7557 36.7284 38.1211 37 39.5 37L39.5 26.5V16Z" fill="#B6D3FF"/>
<path d="M39.5 16C38.1211 16 36.7557 16.2716 35.4818 16.7993C34.2079 17.3269 33.0504 18.1004 32.0754 19.0754C31.1004 20.0504 30.3269 21.2079 29.7993 22.4818C29.2716 23.7557 29 25.1211 29 26.5C29 27.8789 29.2716 29.2443 29.7993 30.5182C30.3269 31.7921 31.1004 32.9496 32.0754 33.9246C33.0504 34.8996 34.2079 35.6731 35.4818 36.2007C36.7557 36.7284 38.1211 37 39.5 37L39.5 26.5V16Z" fill="#B6D3FF"/>
<path d="M39.5 16C38.1211 16 36.7557 16.2716 35.4818 16.7993C34.2079 17.3269 33.0504 18.1004 32.0754 19.0754C31.1004 20.0504 30.3269 21.2079 29.7993 22.4818C29.2716 23.7557 29 25.1211 29 26.5C29 27.8789 29.2716 29.2443 29.7993 30.5182C30.3269 31.7921 31.1004 32.9496 32.0754 33.9246C33.0504 34.8996 34.2079 35.6731 35.4818 36.2007C36.7557 36.7284 38.1211 37 39.5 37L39.5 26.5V16Z" fill="#B6D3FF"/>
<path d="M39.5 37C40.8789 37 42.2443 36.7284 43.5182 36.2007C44.7921 35.6731 45.9496 34.8996 46.9246 33.9246C47.8996 32.9496 48.6731 31.7921 49.2007 30.5182C49.7284 29.2443 50 27.8789 50 26.5C50 25.1211 49.7284 23.7557 49.2007 22.4818C48.6731 21.2079 47.8996 20.0504 46.9246 19.0754C45.9496 18.1004 44.7921 17.3269 43.5182 16.7993C42.2443 16.2716 40.8789 16 39.5 16V26.5V37Z" fill="#B6D3FF"/>
<path d="M39.5 37C40.8789 37 42.2443 36.7284 43.5182 36.2007C44.7921 35.6731 45.9496 34.8996 46.9246 33.9246C47.8996 32.9496 48.6731 31.7921 49.2007 30.5182C49.7284 29.2443 50 27.8789 50 26.5C50 25.1211 49.7284 23.7557 49.2007 22.4818C48.6731 21.2079 47.8996 20.0504 46.9246 19.0754C45.9496 18.1004 44.7921 17.3269 43.5182 16.7993C42.2443 16.2716 40.8789 16 39.5 16V26.5V37Z" fill="#B6D3FF"/>
<path d="M39.5 37C40.8789 37 42.2443 36.7284 43.5182 36.2007C44.7921 35.6731 45.9496 34.8996 46.9246 33.9246C47.8996 32.9496 48.6731 31.7921 49.2007 30.5182C49.7284 29.2443 50 27.8789 50 26.5C50 25.1211 49.7284 23.7557 49.2007 22.4818C48.6731 21.2079 47.8996 20.0504 46.9246 19.0754C45.9496 18.1004 44.7921 17.3269 43.5182 16.7993C42.2443 16.2716 40.8789 16 39.5 16V26.5V37Z" fill="#B6D3FF"/>
<path d="M39.5 37C40.8789 37 42.2443 36.7284 43.5182 36.2007C44.7921 35.6731 45.9496 34.8996 46.9246 33.9246C47.8996 32.9496 48.6731 31.7921 49.2007 30.5182C49.7284 29.2443 50 27.8789 50 26.5C50 25.1211 49.7284 23.7557 49.2007 22.4818C48.6731 21.2079 47.8996 20.0504 46.9246 19.0754C45.9496 18.1004 44.7921 17.3269 43.5182 16.7993C42.2443 16.2716 40.8789 16 39.5 16V26.5V37Z" fill="#85B6FF"/>
<path d="M40 45C35.4037 45 30.8525 45.9053 26.6061 47.6642C22.3597 49.4231 18.5013 52.0012 15.2513 55.2513C12.0012 58.5013 9.42313 62.3597 7.66422 66.6061C5.9053 70.8525 5 75.4037 5 80C5 84.5963 5.9053 89.1475 7.66422 93.3939C9.42313 97.6403 12.0012 101.499 15.2513 104.749C18.5013 107.999 22.3597 110.577 26.6061 112.336C30.8525 114.095 35.4037 115 40 115L40 80V45Z" fill="#B6D3FF"/>
<path d="M40 45C35.4037 45 30.8525 45.9053 26.6061 47.6642C22.3597 49.4231 18.5013 52.0012 15.2513 55.2513C12.0012 58.5013 9.42313 62.3597 7.66422 66.6061C5.9053 70.8525 5 75.4037 5 80C5 84.5963 5.9053 89.1475 7.66422 93.3939C9.42313 97.6403 12.0012 101.499 15.2513 104.749C18.5013 107.999 22.3597 110.577 26.6061 112.336C30.8525 114.095 35.4037 115 40 115L40 80V45Z" fill="#B6D3FF"/>
<path d="M40 45C35.4037 45 30.8525 45.9053 26.6061 47.6642C22.3597 49.4231 18.5013 52.0012 15.2513 55.2513C12.0012 58.5013 9.42313 62.3597 7.66422 66.6061C5.9053 70.8525 5 75.4037 5 80C5 84.5963 5.9053 89.1475 7.66422 93.3939C9.42313 97.6403 12.0012 101.499 15.2513 104.749C18.5013 107.999 22.3597 110.577 26.6061 112.336C30.8525 114.095 35.4037 115 40 115L40 80V45Z" fill="#B6D3FF"/>
<path d="M40 45C35.4037 45 30.8525 45.9053 26.6061 47.6642C22.3597 49.4231 18.5013 52.0012 15.2513 55.2513C12.0012 58.5013 9.42313 62.3597 7.66422 66.6061C5.9053 70.8525 5 75.4037 5 80C5 84.5963 5.9053 89.1475 7.66422 93.3939C9.42313 97.6403 12.0012 101.499 15.2513 104.749C18.5013 107.999 22.3597 110.577 26.6061 112.336C30.8525 114.095 35.4037 115 40 115L40 80V45Z" fill="#B6D3FF"/>
<path d="M40 115C44.5963 115 49.1475 114.095 53.3939 112.336C57.6403 110.577 61.4987 107.999 64.7487 104.749C67.9988 101.499 70.5769 97.6403 72.3358 93.3939C74.0947 89.1475 75 84.5963 75 80C75 75.4037 74.0947 70.8525 72.3358 66.6061C70.5769 62.3597 67.9988 58.5013 64.7487 55.2513C61.4987 52.0012 57.6403 49.4231 53.3939 47.6642C49.1475 45.9053 44.5963 45 40 45V80V115Z" fill="#B6D3FF"/>
<path d="M40 115C44.5963 115 49.1475 114.095 53.3939 112.336C57.6403 110.577 61.4987 107.999 64.7487 104.749C67.9988 101.499 70.5769 97.6403 72.3358 93.3939C74.0947 89.1475 75 84.5963 75 80C75 75.4037 74.0947 70.8525 72.3358 66.6061C70.5769 62.3597 67.9988 58.5013 64.7487 55.2513C61.4987 52.0012 57.6403 49.4231 53.3939 47.6642C49.1475 45.9053 44.5963 45 40 45V80V115Z" fill="#B6D3FF"/>
<path d="M40 115C44.5963 115 49.1475 114.095 53.3939 112.336C57.6403 110.577 61.4987 107.999 64.7487 104.749C67.9988 101.499 70.5769 97.6403 72.3358 93.3939C74.0947 89.1475 75 84.5963 75 80C75 75.4037 74.0947 70.8525 72.3358 66.6061C70.5769 62.3597 67.9988 58.5013 64.7487 55.2513C61.4987 52.0012 57.6403 49.4231 53.3939 47.6642C49.1475 45.9053 44.5963 45 40 45V80V115Z" fill="#B6D3FF"/>
<path d="M40 115C44.5963 115 49.1475 114.095 53.3939 112.336C57.6403 110.577 61.4987 107.999 64.7487 104.749C67.9988 101.499 70.5769 97.6403 72.3358 93.3939C74.0947 89.1475 75 84.5963 75 80C75 75.4037 74.0947 70.8525 72.3358 66.6061C70.5769 62.3597 67.9988 58.5013 64.7487 55.2513C61.4987 52.0012 57.6403 49.4231 53.3939 47.6642C49.1475 45.9053 44.5963 45 40 45V80V115Z" fill="#85B6FF"/>
</g>
</svg>
