<svg width="15" height="15" viewBox="0 0 15 15" fill="none" xmlns="http://www.w3.org/2000/svg">
<path fill-rule="evenodd" clip-rule="evenodd" d="M10.3284 1.1357C10.1331 0.940443 9.81656 0.940442 9.6213 1.1357C9.42603 1.33096 9.42603 1.64755 9.6213 1.84281L10.2743 2.49582L5.42557 6.13237L4.31799 5.02479C4.12273 4.82953 3.80615 4.82953 3.61089 5.02479C3.41563 5.22005 3.41563 5.53663 3.61089 5.73189L5.0251 7.14611L6.08576 8.20677L2.81539 11.4771C2.62013 11.6724 2.62013 11.989 2.81539 12.1842C3.01066 12.3795 3.32724 12.3795 3.5225 12.1842L6.79287 8.91388L7.85353 9.97454L9.26774 11.3887C9.463 11.584 9.77959 11.584 9.97485 11.3887C10.1701 11.1935 10.1701 10.8769 9.97485 10.6816L8.86727 9.57406L12.5038 4.72533L13.1568 5.37834C13.3521 5.5736 13.6686 5.5736 13.8639 5.37834C14.0592 5.18308 14.0592 4.8665 13.8639 4.67123L12.8032 3.61057L11.389 2.19636L10.3284 1.1357ZM6.13986 6.84665L10.9886 3.2101L11.7895 4.01105L8.15299 8.85978L6.13986 6.84665Z" fill="white"/>
</svg>
