<svg width="645" height="276" viewBox="0 0 645 276" fill="none" xmlns="http://www.w3.org/2000/svg">
<path fill-rule="evenodd" clip-rule="evenodd" d="M359.352 86.6777C361.36 87.3279 363.385 87.8722 365.384 87.9486C368.776 88.0783 371.682 86.9066 373.727 85.7181C374.751 85.1227 375.566 84.5193 376.126 84.0636C376.406 83.8355 376.623 83.644 376.772 83.5083C376.846 83.4404 376.903 83.3864 376.942 83.3488C376.961 83.3299 376.976 83.3152 376.987 83.3048L376.999 83.2926L377.003 83.289L377.004 83.2878C377.004 83.2877 377.005 83.2871 376.649 82.9353C376.294 82.5836 376.294 82.5835 376.294 82.5834L376.293 82.585L376.284 82.5932C376.277 82.6008 376.264 82.6128 376.248 82.6288C376.215 82.6608 376.164 82.7089 376.096 82.7708C375.961 82.8946 375.759 83.0732 375.495 83.2879C374.967 83.7174 374.195 84.2892 373.224 84.8535C371.279 85.9843 368.562 87.0694 365.422 86.9494C363.567 86.8784 361.649 86.3705 359.66 85.7263C358.993 85.5103 358.313 85.2775 357.627 85.0421C356.292 84.5843 354.929 84.1171 353.575 83.7465C349.432 82.6122 345.117 82.3033 340.904 85.6667L341.528 86.4483C345.378 83.3744 349.303 83.6138 353.311 84.711C354.636 85.0739 355.944 85.5223 357.259 85.9733C357.953 86.2114 358.649 86.4502 359.352 86.6777Z" fill="#77BEFF"/>
<path fill-rule="evenodd" clip-rule="evenodd" d="M391.363 68.6089C389.821 69.9355 388.104 71.0422 386.067 71.3686C382.716 71.9055 379.69 71.092 377.517 70.1583C376.428 69.6905 375.546 69.1896 374.935 68.8046C374.63 68.6119 374.391 68.4479 374.228 68.331C374.146 68.2725 374.083 68.2258 374.04 68.1931C374.018 68.1768 374.001 68.1639 373.989 68.1549L373.976 68.1442L373.972 68.1411L373.97 68.1401C373.97 68.14 373.97 68.1395 374.28 67.7475C374.591 67.3555 374.59 67.3555 374.59 67.3554L374.592 67.3568L374.601 67.3639C374.61 67.3706 374.623 67.381 374.642 67.3949C374.679 67.4226 374.735 67.4643 374.809 67.5176C374.958 67.6242 375.181 67.7772 375.468 67.9585C376.044 68.3214 376.88 68.7962 377.911 69.2395C379.979 70.1279 382.807 70.8781 385.909 70.3812C387.68 70.0974 389.227 69.127 390.711 67.8507C391.452 67.2137 392.167 66.5091 392.883 65.7871C393.039 65.6297 393.195 65.4711 393.352 65.3123C393.909 64.7474 394.469 64.1791 395.034 63.6439C396.476 62.277 398.018 61.0544 399.8 60.548C401.615 60.032 403.609 60.2775 405.903 61.6935L405.377 62.5445C403.281 61.2505 401.575 61.0829 400.073 61.5099C398.537 61.9464 397.143 63.0226 395.722 64.3697C395.171 64.892 394.626 65.4441 394.071 66.007C393.913 66.1676 393.754 66.3291 393.593 66.491C392.875 67.2159 392.136 67.9444 391.363 68.6089Z" fill="#77BEFF"/>
<path fill-rule="evenodd" clip-rule="evenodd" d="M425.12 1H393.84V111H425.12V1ZM392.84 0V112H426.12V0H392.84Z" fill="white"/>
<path d="M396.04 2.55992C396.04 2.91338 395.754 3.19992 395.4 3.19992C395.047 3.19992 394.76 2.91338 394.76 2.55992C394.76 2.20646 395.047 1.91992 395.4 1.91992C395.754 1.91992 396.04 2.20646 396.04 2.55992Z" fill="#77BEFF"/>
<path d="M396.04 4.48082C396.04 4.83428 395.753 5.12082 395.4 5.12082C395.047 5.12082 394.76 4.83428 394.76 4.48082C394.76 4.12736 395.047 3.84082 395.4 3.84082C395.753 3.84082 396.04 4.12736 396.04 4.48082Z" fill="#77BEFF"/>
<path d="M396.04 6.40074C396.04 6.7542 395.753 7.04074 395.4 7.04074C395.047 7.04074 394.76 6.7542 394.76 6.40074C394.76 6.04728 395.047 5.76074 395.4 5.76074C395.753 5.76074 396.04 6.04728 396.04 6.40074Z" fill="#77BEFF"/>
<path d="M396.04 8.32066C396.04 8.67413 395.753 8.96066 395.4 8.96066C395.047 8.96066 394.76 8.67413 394.76 8.32066C394.76 7.9672 395.047 7.68066 395.4 7.68066C395.753 7.68066 396.04 7.9672 396.04 8.32066Z" fill="#77BEFF"/>
<path d="M396.04 10.2396C396.04 10.5931 395.753 10.8796 395.4 10.8796C395.047 10.8796 394.76 10.5931 394.76 10.2396C394.76 9.88615 395.047 9.59961 395.4 9.59961C395.753 9.59961 396.04 9.88615 396.04 10.2396Z" fill="#77BEFF"/>
<path d="M397.96 2.55992C397.96 2.91338 397.673 3.19992 397.32 3.19992C396.966 3.19992 396.68 2.91338 396.68 2.55992C396.68 2.20646 396.966 1.91992 397.32 1.91992C397.673 1.91992 397.96 2.20646 397.96 2.55992Z" fill="#77BEFF"/>
<path d="M397.96 4.48082C397.96 4.83428 397.673 5.12082 397.32 5.12082C396.966 5.12082 396.68 4.83428 396.68 4.48082C396.68 4.12736 396.966 3.84082 397.32 3.84082C397.673 3.84082 397.96 4.12736 397.96 4.48082Z" fill="#77BEFF"/>
<path d="M397.96 6.40074C397.96 6.7542 397.673 7.04074 397.32 7.04074C396.966 7.04074 396.68 6.7542 396.68 6.40074C396.68 6.04728 396.966 5.76074 397.32 5.76074C397.673 5.76074 397.96 6.04728 397.96 6.40074Z" fill="#77BEFF"/>
<path d="M397.96 8.32066C397.96 8.67413 397.673 8.96066 397.32 8.96066C396.966 8.96066 396.68 8.67413 396.68 8.32066C396.68 7.9672 396.966 7.68066 397.32 7.68066C397.673 7.68066 397.96 7.9672 397.96 8.32066Z" fill="#77BEFF"/>
<path d="M399.88 2.55992C399.88 2.91338 399.594 3.19992 399.24 3.19992C398.887 3.19992 398.6 2.91338 398.6 2.55992C398.6 2.20646 398.887 1.91992 399.24 1.91992C399.594 1.91992 399.88 2.20646 399.88 2.55992Z" fill="#77BEFF"/>
<path d="M399.88 4.48082C399.88 4.83428 399.594 5.12082 399.24 5.12082C398.887 5.12082 398.6 4.83428 398.6 4.48082C398.6 4.12736 398.887 3.84082 399.24 3.84082C399.594 3.84082 399.88 4.12736 399.88 4.48082Z" fill="#77BEFF"/>
<path d="M399.88 6.40074C399.88 6.7542 399.594 7.04074 399.24 7.04074C398.887 7.04074 398.6 6.7542 398.6 6.40074C398.6 6.04728 398.887 5.76074 399.24 5.76074C399.594 5.76074 399.88 6.04728 399.88 6.40074Z" fill="#77BEFF"/>
<path d="M401.8 2.55992C401.8 2.91338 401.514 3.19992 401.16 3.19992C400.807 3.19992 400.52 2.91338 400.52 2.55992C400.52 2.20646 400.807 1.91992 401.16 1.91992C401.514 1.91992 401.8 2.20646 401.8 2.55992Z" fill="#77BEFF"/>
<path d="M401.8 4.48082C401.8 4.83428 401.514 5.12082 401.16 5.12082C400.807 5.12082 400.52 4.83428 400.52 4.48082C400.52 4.12736 400.807 3.84082 401.16 3.84082C401.514 3.84082 401.8 4.12736 401.8 4.48082Z" fill="#77BEFF"/>
<path d="M403.72 2.55992C403.72 2.91338 403.434 3.19992 403.08 3.19992C402.727 3.19992 402.44 2.91338 402.44 2.55992C402.44 2.20646 402.727 1.91992 403.08 1.91992C403.434 1.91992 403.72 2.20646 403.72 2.55992Z" fill="#77BEFF"/>
<path d="M416.52 101.759C416.52 102.113 416.234 102.399 415.88 102.399C415.527 102.399 415.24 102.113 415.24 101.759C415.24 101.406 415.527 101.119 415.88 101.119C416.234 101.119 416.52 101.406 416.52 101.759Z" fill="#77BEFF"/>
<path d="M416.52 103.679C416.52 104.033 416.233 104.319 415.88 104.319C415.527 104.319 415.24 104.033 415.24 103.679C415.24 103.326 415.527 103.039 415.88 103.039C416.233 103.039 416.52 103.326 416.52 103.679Z" fill="#77BEFF"/>
<path d="M416.52 105.6C416.52 105.953 416.233 106.24 415.88 106.24C415.527 106.24 415.24 105.953 415.24 105.6C415.24 105.246 415.527 104.96 415.88 104.96C416.233 104.96 416.52 105.246 416.52 105.6Z" fill="#77BEFF"/>
<path d="M416.52 107.519C416.52 107.872 416.233 108.159 415.88 108.159C415.527 108.159 415.24 107.872 415.24 107.519C415.24 107.165 415.527 106.879 415.88 106.879C416.233 106.879 416.52 107.165 416.52 107.519Z" fill="#77BEFF"/>
<path d="M416.52 109.439C416.52 109.792 416.233 110.079 415.88 110.079C415.527 110.079 415.24 109.792 415.24 109.439C415.24 109.085 415.527 108.799 415.88 108.799C416.233 108.799 416.52 109.085 416.52 109.439Z" fill="#77BEFF"/>
<path d="M418.44 101.759C418.44 102.113 418.153 102.399 417.8 102.399C417.446 102.399 417.16 102.113 417.16 101.759C417.16 101.406 417.446 101.119 417.8 101.119C418.153 101.119 418.44 101.406 418.44 101.759Z" fill="#77BEFF"/>
<path d="M418.44 103.679C418.44 104.033 418.153 104.319 417.8 104.319C417.446 104.319 417.16 104.033 417.16 103.679C417.16 103.326 417.446 103.039 417.8 103.039C418.153 103.039 418.44 103.326 418.44 103.679Z" fill="#77BEFF"/>
<path d="M418.44 105.6C418.44 105.953 418.153 106.24 417.8 106.24C417.446 106.24 417.16 105.953 417.16 105.6C417.16 105.246 417.446 104.96 417.8 104.96C418.153 104.96 418.44 105.246 418.44 105.6Z" fill="#77BEFF"/>
<path d="M418.44 107.519C418.44 107.872 418.153 108.159 417.8 108.159C417.446 108.159 417.16 107.872 417.16 107.519C417.16 107.165 417.446 106.879 417.8 106.879C418.153 106.879 418.44 107.165 418.44 107.519Z" fill="#77BEFF"/>
<path d="M420.36 101.759C420.36 102.113 420.074 102.399 419.72 102.399C419.367 102.399 419.08 102.113 419.08 101.759C419.08 101.406 419.367 101.119 419.72 101.119C420.074 101.119 420.36 101.406 420.36 101.759Z" fill="#77BEFF"/>
<path d="M420.36 103.679C420.36 104.033 420.074 104.319 419.72 104.319C419.367 104.319 419.08 104.033 419.08 103.679C419.08 103.326 419.367 103.039 419.72 103.039C420.074 103.039 420.36 103.326 420.36 103.679Z" fill="#77BEFF"/>
<path d="M420.36 105.6C420.36 105.953 420.074 106.24 419.72 106.24C419.367 106.24 419.08 105.953 419.08 105.6C419.08 105.246 419.367 104.96 419.72 104.96C420.074 104.96 420.36 105.246 420.36 105.6Z" fill="#77BEFF"/>
<path d="M422.28 101.759C422.28 102.113 421.993 102.399 421.64 102.399C421.287 102.399 421 102.113 421 101.759C421 101.406 421.287 101.119 421.64 101.119C421.993 101.119 422.28 101.406 422.28 101.759Z" fill="#77BEFF"/>
<path d="M422.28 103.679C422.28 104.033 421.993 104.319 421.64 104.319C421.287 104.319 421 104.033 421 103.679C421 103.326 421.287 103.039 421.64 103.039C421.993 103.039 422.28 103.326 422.28 103.679Z" fill="#77BEFF"/>
<path d="M424.2 101.759C424.2 102.113 423.913 102.399 423.56 102.399C423.206 102.399 422.92 102.113 422.92 101.759C422.92 101.406 423.206 101.119 423.56 101.119C423.913 101.119 424.2 101.406 424.2 101.759Z" fill="#77BEFF"/>
<path fill-rule="evenodd" clip-rule="evenodd" d="M0 39.5928V55.6594V200.259V216.326H291V200.259V55.6594V39.5928H0ZM2.58284 43.0356H287.556V46.4785L145.5 135.463L2.58284 44.7571C4.18528 44.7558 1.12959 43.9932 2.58284 44.7571V43.0356ZM2.58284 47.3392V214.318H288.417L287.556 49.9213L145.5 138.575L2.58284 47.3392Z" fill="#BBBBBB"/>
<path d="M233.143 121.143H316.571V170.049H233.143V121.143Z" fill="black"/>
<path fill-rule="evenodd" clip-rule="evenodd" d="M315.571 122.143H234.143V169.049H315.571V122.143ZM233.143 121.143V170.049H316.571V121.143H233.143Z" fill="#77BEFF"/>
<path fill-rule="evenodd" clip-rule="evenodd" d="M298.846 131.574H308.441V141.18H307.441V133.163L282.595 154.525L266.589 141.539L242.649 159.516L242.048 158.717L266.613 140.27L282.577 153.222L306.592 132.574H298.846V131.574Z" fill="white"/>
<path d="M272 164H437.714V276H272V164Z" fill="black"/>
<path fill-rule="evenodd" clip-rule="evenodd" d="M436.714 165H273V275H436.714V165ZM272 164V276H437.714V164H272Z" fill="white"/>
<path fill-rule="evenodd" clip-rule="evenodd" d="M397.762 217.152L421.071 228.834V254.413L397.763 263.971L375.5 254.407V228.841L397.762 217.152ZM397.773 218.276L377.095 229.133L397.773 239.495L419.435 229.132L397.773 218.276ZM420.071 229.936L398.267 240.367V262.683L420.071 253.743V229.936ZM397.267 262.67V240.361L376.5 229.953V253.749L397.267 262.67Z" fill="white"/>
<path d="M296.258 176.961H294.116V183.364H294.026L289.631 176.961H287.742V187.143H289.895V180.734H289.969L294.399 187.143H296.258V176.961Z" fill="#020202"/>
<path d="M301.477 187.292C303.367 187.292 304.639 186.372 304.938 184.955L302.979 184.826C302.765 185.408 302.218 185.711 301.512 185.711C300.453 185.711 299.782 185.01 299.782 183.871V183.866H304.982V183.285C304.982 180.69 303.411 179.407 301.393 179.407C299.146 179.407 297.689 181.003 297.689 183.359C297.689 185.781 299.126 187.292 301.477 187.292ZM299.782 182.554C299.827 181.684 300.488 180.988 301.428 180.988C302.347 180.988 302.984 181.644 302.989 182.554H299.782Z" fill="#020202"/>
<path d="M307.816 187.143H310.053L311.366 182.34H311.46L312.773 187.143H315.015L317.088 179.506H314.95L313.787 184.607H313.722L312.47 179.506H310.367L309.134 184.637H309.064L307.881 179.506H305.738L307.816 187.143Z" fill="#020202"/>
<path d="M287.742 204.143H289.895V200.842H291.704C294.046 200.842 295.408 199.445 295.408 197.411C295.408 195.388 294.071 193.961 291.759 193.961H287.742V204.143ZM289.895 199.116V195.721H291.346C292.589 195.721 293.191 196.397 293.191 197.411C293.191 198.42 292.589 199.116 291.356 199.116H289.895Z" fill="#020202"/>
<path d="M296.767 204.143H298.885V199.822C298.885 198.883 299.571 198.237 300.505 198.237C300.799 198.237 301.201 198.286 301.4 198.351V196.472C301.211 196.427 300.948 196.397 300.734 196.397C299.879 196.397 299.178 196.894 298.9 197.839H298.82V196.506H296.767V204.143Z" fill="#020202"/>
<path d="M305.59 204.292C307.907 204.292 309.349 202.706 309.349 200.354C309.349 197.988 307.907 196.407 305.59 196.407C303.273 196.407 301.832 197.988 301.832 200.354C301.832 202.706 303.273 204.292 305.59 204.292ZM305.6 202.651C304.531 202.651 303.984 201.672 303.984 200.339C303.984 199.007 304.531 198.023 305.6 198.023C306.649 198.023 307.196 199.007 307.196 200.339C307.196 201.672 306.649 202.651 305.6 202.651Z" fill="#020202"/>
<path d="M313.54 204.267C314.773 204.267 315.414 203.556 315.707 202.92H315.797V204.143H317.885V193.961H315.772V197.789H315.707C315.424 197.168 314.812 196.407 313.535 196.407C311.859 196.407 310.442 197.71 310.442 200.335C310.442 202.89 311.8 204.267 313.54 204.267ZM314.211 202.582C313.172 202.582 312.605 201.657 312.605 200.325C312.605 199.002 313.162 198.092 314.211 198.092C315.24 198.092 315.817 198.962 315.817 200.325C315.817 201.687 315.23 202.582 314.211 202.582Z" fill="#020202"/>
<path d="M324.523 200.891C324.528 201.915 323.827 202.452 323.066 202.452C322.266 202.452 321.749 201.891 321.744 200.991V196.506H319.626V201.369C319.631 203.153 320.675 204.242 322.211 204.242C323.36 204.242 324.185 203.651 324.528 202.756H324.608V204.143H326.641V196.506H324.523V200.891Z" fill="#020202"/>
<path d="M331.785 204.292C333.819 204.292 335.096 203.099 335.196 201.344H333.197C333.073 202.159 332.536 202.616 331.81 202.616C330.821 202.616 330.18 201.786 330.18 200.325C330.18 198.883 330.826 198.058 331.81 198.058C332.586 198.058 333.083 198.57 333.197 199.33H335.196C335.106 197.565 333.769 196.407 331.775 196.407C329.459 196.407 328.027 198.013 328.027 200.354C328.027 202.676 329.434 204.292 331.785 204.292Z" fill="#020202"/>
<path d="M340.614 196.506H339.177V194.677H337.059V196.506H336.015V198.097H337.059V202.075C337.049 203.571 338.068 204.312 339.604 204.247C340.151 204.227 340.539 204.118 340.753 204.048L340.42 202.472C340.315 202.492 340.092 202.542 339.893 202.542C339.47 202.542 339.177 202.383 339.177 201.796V198.097H340.614V196.506Z" fill="#020202"/>
<path fill-rule="evenodd" clip-rule="evenodd" d="M297.258 175.961V180.834C297.448 180.463 297.684 180.122 297.966 179.818C298.82 178.901 300.021 178.407 301.393 178.407C302.614 178.407 303.784 178.798 304.652 179.666C304.696 179.71 304.74 179.756 304.782 179.802L304.429 178.506H308.676L309.118 180.422L309.578 178.506H313.254L313.72 180.405L314.153 178.506H318.396L315.78 188.143H312.009L311.413 185.961L310.817 188.143H307.052L306.058 184.489L305.982 184.847V184.866H305.978L305.916 185.161C305.494 187.167 303.697 188.292 301.477 188.292C300.082 188.292 298.855 187.838 297.98 186.926C297.69 186.624 297.45 186.283 297.258 185.911V188.143H293.875L290.895 183.832V188.143H286.742V175.961H290.158L293.116 180.271V175.961H297.258ZM294.116 183.364H294.026L289.631 176.961H287.742V187.143H289.895V180.734H289.969L294.399 187.143H296.258V176.961H294.116V183.364ZM302.979 184.826C302.974 184.84 302.969 184.853 302.963 184.866C302.739 185.422 302.202 185.711 301.512 185.711C300.811 185.711 300.28 185.404 300.001 184.866C299.859 184.592 299.782 184.257 299.782 183.871V183.866H304.982V183.285C304.982 183.141 304.978 183.002 304.968 182.866C304.807 180.552 303.3 179.407 301.393 179.407C299.146 179.407 297.689 181.003 297.689 183.359C297.689 185.781 299.126 187.292 301.477 187.292C302.887 187.292 303.954 186.78 304.528 185.93C304.724 185.642 304.862 185.315 304.938 184.955L302.979 184.826ZM311.366 182.34H311.46L312.773 187.143H315.015L317.088 179.506H314.95L313.787 184.607H313.722L312.47 179.506H310.367L309.134 184.637H309.064L307.881 179.506H305.738L307.816 187.143H310.053L311.366 182.34ZM299.782 182.554H302.989C302.987 182.163 302.868 181.819 302.66 181.554C302.385 181.202 301.952 180.988 301.428 180.988C300.9 180.988 300.46 181.207 300.168 181.554C299.94 181.825 299.802 182.173 299.782 182.554ZM286.742 205.143V192.961H291.759C293.123 192.961 294.305 193.386 295.15 194.212C295.533 194.587 295.827 195.025 296.034 195.506H299.82V195.537C300.106 195.445 300.413 195.397 300.734 195.397C301.019 195.397 301.361 195.435 301.631 195.499L302.4 195.681V196.531C303.238 195.793 304.343 195.407 305.59 195.407C306.985 195.407 308.202 195.889 309.067 196.808C309.392 197.154 309.655 197.548 309.856 197.98C310.044 197.51 310.294 197.092 310.603 196.733C311.369 195.845 312.425 195.407 313.535 195.407C314.007 195.407 314.417 195.484 314.772 195.614V192.961H318.885V195.506H322.744V200.988C322.746 201.249 322.82 201.356 322.847 201.386C322.865 201.406 322.912 201.452 323.066 201.452C323.214 201.452 323.321 201.401 323.385 201.339C323.439 201.286 323.524 201.167 323.523 200.896L323.523 200.891L323.523 195.506H327.641V197.744C327.821 197.409 328.041 197.099 328.301 196.82C329.161 195.899 330.375 195.407 331.775 195.407C332.964 195.407 334.042 195.754 334.851 196.448C334.907 196.496 334.962 196.546 335.015 196.597V195.506H336.059V193.677H340.177V195.506H341.614V199.097H340.177V201.501C340.194 201.497 340.212 201.494 340.233 201.49L341.196 201.307L341.917 204.721L341.062 204.999C340.792 205.087 340.31 205.222 339.643 205.246C338.722 205.285 337.814 205.088 337.119 204.521C336.445 203.97 336.1 203.174 336.062 202.264C335.867 203.027 335.47 203.703 334.878 204.225C334.076 204.934 332.998 205.292 331.785 205.292C330.37 205.292 329.151 204.799 328.292 203.875C328.036 203.599 327.819 203.293 327.641 202.963V205.143H323.608V204.988C323.186 205.153 322.716 205.242 322.211 205.242C321.196 205.242 320.271 204.875 319.607 204.15C319.288 203.801 319.047 203.391 318.885 202.937V205.143H314.797V205.053C314.434 205.187 314.017 205.267 313.54 205.267C312.389 205.267 311.328 204.803 310.572 203.902C310.28 203.553 310.043 203.152 309.863 202.705C309.661 203.142 309.395 203.541 309.066 203.89C308.203 204.808 306.986 205.292 305.59 205.292C304.194 205.292 302.977 204.808 302.114 203.89C301.257 202.98 300.832 201.734 300.832 200.354C300.832 199.982 300.862 199.619 300.924 199.27C300.904 199.267 300.884 199.264 300.863 199.262C300.734 199.245 300.602 199.237 300.505 199.237C300.092 199.237 299.885 199.466 299.885 199.822V205.143H295.767V199.819C295.59 200.107 295.376 200.373 295.124 200.613C294.267 201.43 293.074 201.842 291.704 201.842H290.895V205.143H286.742ZM301.4 196.472C301.211 196.427 300.948 196.397 300.734 196.397C300.401 196.397 300.091 196.473 299.82 196.621C299.426 196.836 299.116 197.206 298.938 197.72C298.924 197.759 298.912 197.798 298.9 197.839H298.82V196.506H296.767V204.143H298.885V199.822C298.885 199.437 299 199.101 299.201 198.839C299.351 198.642 299.549 198.487 299.781 198.384C299.967 198.301 300.176 198.251 300.4 198.239C300.435 198.237 300.47 198.237 300.505 198.237C300.716 198.237 300.982 198.262 301.189 198.3C301.271 198.315 301.344 198.333 301.4 198.351V196.472ZM301.889 199.561C301.851 199.814 301.832 200.079 301.832 200.354C301.832 202.706 303.273 204.292 305.59 204.292C307.907 204.292 309.349 202.706 309.349 200.354C309.349 197.988 307.907 196.407 305.59 196.407C304.135 196.407 303.025 197.031 302.4 198.082C302.349 198.168 302.3 198.258 302.255 198.351C302.08 198.714 301.956 199.119 301.889 199.561ZM314.797 203.95C315.145 203.745 315.395 203.465 315.57 203.178C315.622 203.092 315.668 203.005 315.707 202.92H315.797V204.143H317.885V193.961H315.772V197.789H315.707C315.659 197.683 315.601 197.572 315.531 197.462C315.358 197.187 315.113 196.915 314.772 196.716C314.452 196.529 314.047 196.407 313.535 196.407C311.859 196.407 310.442 197.71 310.442 200.335C310.442 202.89 311.8 204.267 313.54 204.267C314.057 204.267 314.47 204.142 314.797 203.95ZM314.82 202.456C315.065 202.345 315.268 202.162 315.426 201.92C315.681 201.528 315.817 200.981 315.817 200.325C315.817 199.695 315.694 199.171 315.46 198.789C315.294 198.518 315.071 198.318 314.798 198.204C314.798 198.204 314.798 198.204 314.798 198.204C314.623 198.131 314.427 198.092 314.211 198.092C313.162 198.092 312.605 199.002 312.605 200.325C312.605 201.657 313.172 202.582 314.211 202.582C314.435 202.582 314.639 202.538 314.82 202.456ZM323.608 203.875C323.927 203.679 324.184 203.412 324.368 203.092C324.43 202.986 324.483 202.873 324.528 202.756H324.608V204.143H326.641V196.506H324.523V200.891C324.525 201.235 324.447 201.524 324.314 201.756C324.149 202.044 323.899 202.245 323.611 202.354C323.44 202.419 323.255 202.452 323.066 202.452C322.266 202.452 321.749 201.891 321.744 200.991V196.506H319.626V201.369C319.631 203.153 320.675 204.242 322.211 204.242C322.755 204.242 323.226 204.11 323.608 203.875ZM337.059 202.075C337.049 203.571 338.068 204.312 339.604 204.247C339.662 204.245 339.717 204.242 339.771 204.238C339.821 204.235 339.869 204.23 339.915 204.225C340.3 204.185 340.582 204.104 340.753 204.048L340.42 202.472C340.42 202.472 340.42 202.472 340.42 202.472C340.407 202.475 340.392 202.478 340.376 202.481C340.261 202.504 340.067 202.542 339.893 202.542C339.47 202.542 339.177 202.383 339.177 201.796V198.097H340.614V196.506H339.177V194.677H337.059V196.506H336.015V198.097H337.059V202.075ZM334.99 198.33C334.533 197.141 333.362 196.407 331.775 196.407C329.459 196.407 328.027 198.013 328.027 200.354C328.027 202.676 329.434 204.292 331.785 204.292C333.403 204.292 334.543 203.536 334.991 202.344C335.106 202.037 335.176 201.702 335.196 201.344H333.197C333.073 202.159 332.536 202.616 331.81 202.616C330.821 202.616 330.18 201.786 330.18 200.325C330.18 198.883 330.826 198.058 331.81 198.058C332.586 198.058 333.083 198.57 333.197 199.33H335.196C335.192 199.251 335.185 199.174 335.176 199.097C335.148 198.85 335.093 198.616 335.015 198.397C335.007 198.375 334.999 198.352 334.99 198.33ZM336.059 200.33V200.344H332.338L332.209 201.193C332.175 201.415 332.1 201.507 332.061 201.542C332.025 201.575 331.956 201.616 331.81 201.616C331.631 201.616 331.526 201.558 331.432 201.43C331.314 201.267 331.18 200.926 331.18 200.325C331.18 199.738 331.313 199.403 331.431 199.243C331.525 199.116 331.632 199.058 331.81 199.058C331.965 199.058 332.03 199.103 332.064 199.135C332.107 199.175 332.178 199.274 332.208 199.479L332.336 200.33H336.059ZM289.895 204.143H287.742V193.961H291.759C294.071 193.961 295.408 195.388 295.408 197.411C295.408 199.445 294.046 200.842 291.704 200.842H289.895V204.143ZM290.895 196.721V198.116H291.356C291.787 198.116 291.965 197.998 292.034 197.93C292.103 197.862 292.191 197.718 292.191 197.411C292.191 197.101 292.103 196.966 292.039 196.904C291.972 196.84 291.792 196.721 291.346 196.721H290.895ZM305.227 201.446C305.325 201.595 305.424 201.651 305.6 201.651C305.758 201.651 305.854 201.602 305.953 201.449C306.08 201.254 306.196 200.889 306.196 200.339C306.196 199.79 306.08 199.423 305.953 199.226C305.852 199.072 305.756 199.023 305.6 199.023C305.427 199.023 305.327 199.078 305.228 199.229C305.1 199.424 304.984 199.79 304.984 200.339C304.984 200.889 305.1 201.253 305.227 201.446ZM313.844 201.389C313.937 201.525 314.035 201.582 314.211 201.582C314.384 201.582 314.483 201.526 314.575 201.393C314.695 201.221 314.817 200.88 314.817 200.325C314.817 199.766 314.696 199.435 314.582 199.273C314.497 199.153 314.402 199.092 314.211 199.092C314.021 199.092 313.925 199.153 313.838 199.28C313.722 199.449 313.605 199.784 313.605 200.325C313.605 200.868 313.723 201.212 313.844 201.389ZM289.895 199.116H291.356C292.589 199.116 293.191 198.42 293.191 197.411C293.191 196.397 292.589 195.721 291.346 195.721H289.895V199.116ZM303.984 200.339C303.984 201.672 304.531 202.651 305.6 202.651C306.649 202.651 307.196 201.672 307.196 200.339C307.196 199.007 306.649 198.023 305.6 198.023C304.531 198.023 303.984 199.007 303.984 200.339Z" fill="white"/>
<path fill-rule="evenodd" clip-rule="evenodd" d="M604.699 135.174C600.533 138.766 595.989 141.682 590.651 142.539C581.706 143.976 573.607 141.801 567.759 139.281C564.833 138.02 562.463 136.67 560.824 135.634C560.004 135.116 559.366 134.676 558.932 134.364C558.714 134.208 558.548 134.085 558.435 133.999C558.379 133.957 558.336 133.924 558.307 133.901L558.273 133.875L558.264 133.868L558.262 133.866L558.261 133.865C558.261 133.865 558.26 133.865 558.571 133.473C558.882 133.082 558.882 133.082 558.882 133.082L558.882 133.082L558.884 133.083L558.891 133.088L558.92 133.111C558.946 133.131 558.986 133.162 559.039 133.202C559.145 133.282 559.304 133.401 559.514 133.551C559.934 133.853 560.556 134.282 561.358 134.788C562.962 135.802 565.286 137.127 568.155 138.363C573.897 140.838 581.798 142.949 590.492 141.552C595.564 140.737 599.939 137.959 604.046 134.416C606.098 132.646 608.074 130.694 610.033 128.713C610.463 128.277 610.893 127.84 611.322 127.403C612.843 125.857 614.36 124.313 615.892 122.857C619.815 119.127 623.901 115.903 628.559 114.576C633.25 113.239 638.45 113.844 644.549 117.619L644.023 118.47C638.122 114.817 633.21 114.29 628.833 115.537C624.422 116.795 620.483 119.872 616.58 123.582C615.063 125.025 613.561 126.552 612.042 128.097C611.611 128.536 611.179 128.976 610.744 129.416C608.783 131.4 606.783 133.376 604.699 135.174Z" fill="#77BEFF"/>
<path fill-rule="evenodd" clip-rule="evenodd" d="M487.214 22.5H644.786V232.643H487.214V201.857H488.214V231.643H643.786V23.5H488.214V137.286H487.214V22.5Z" fill="white"/>
<path d="M570.245 193.207H574.372C574.312 189.578 571.329 187.072 566.795 187.072C562.331 187.072 559.059 189.538 559.079 193.237C559.069 196.24 561.187 197.96 564.627 198.786L566.845 199.342C569.062 199.879 570.295 200.516 570.305 201.888C570.295 203.379 568.883 204.393 566.696 204.393C564.458 204.393 562.848 203.359 562.708 201.321H558.542C558.652 205.726 561.804 208.003 566.745 208.003C571.717 208.003 574.64 205.626 574.65 201.898C574.64 198.507 572.085 196.707 568.545 195.912L566.716 195.474C564.946 195.067 563.464 194.411 563.494 192.949C563.494 191.636 564.657 190.672 566.765 190.672C568.823 190.672 570.086 191.607 570.245 193.207Z" fill="#52C1FF"/>
<path d="M581.702 198.885C581.712 196.916 582.915 195.763 584.646 195.763C586.366 195.763 587.38 196.866 587.37 198.746V207.714H591.606V197.99C591.616 194.411 589.508 192.243 586.326 192.243C584.009 192.243 582.458 193.337 581.762 195.136H581.583V187.351H577.467V207.714H581.702V198.885Z" fill="#52C1FF"/>
<path d="M594.939 207.714H599.175V192.442H594.939V207.714ZM597.067 190.473C598.33 190.473 599.364 189.509 599.364 188.325C599.364 187.152 598.33 186.188 597.067 186.188C595.814 186.188 594.78 187.152 594.78 188.325C594.78 189.509 595.814 190.473 597.067 190.473Z" fill="#52C1FF"/>
<path d="M610.781 192.442H607.749V191.418C607.749 190.384 608.166 189.777 609.409 189.777C609.916 189.777 610.433 189.886 610.771 189.996L611.517 186.814C610.99 186.655 609.827 186.396 608.524 186.396C605.651 186.396 603.513 188.017 603.513 191.338V192.442H601.355V195.624H603.513V207.714H607.749V195.624H610.781V192.442Z" fill="#52C1FF"/>
<path d="M621.493 192.442H618.619V188.783H614.383V192.442H612.295V195.624H614.383V203.578C614.363 206.571 616.402 208.053 619.474 207.923C620.568 207.884 621.343 207.665 621.771 207.526L621.105 204.374C620.896 204.413 620.448 204.513 620.051 204.513C619.206 204.513 618.619 204.195 618.619 203.021V195.624H621.493V192.442Z" fill="#52C1FF"/>
<path d="M629.714 71.1639L629.714 64.4622L628.397 64.4622L628.397 69.046L628.322 69.046L626.204 67.0225C624.32 65.1582 623.42 64.6262 622.282 64.6262C620.646 64.6262 619.393 65.9586 619.393 67.8777C619.393 69.7818 620.626 71.1738 622.486 71.1738L622.486 69.7072C621.392 69.7122 620.676 69.0062 620.676 67.9075C620.676 66.8734 621.312 66.0879 622.327 66.0879C623.226 66.0879 623.873 66.6248 625.031 67.7186L628.601 71.1639L629.714 71.1639Z" fill="white"/>
<path d="M629.883 59.0332C629.883 56.6816 627.964 55.3045 624.628 55.3045C621.317 55.3045 619.393 56.7015 619.393 59.0332C619.393 61.3699 621.312 62.7619 624.628 62.7669C627.959 62.7669 629.878 61.3897 629.883 59.0332ZM628.556 59.0332C628.556 60.4103 627.174 61.2406 624.628 61.2406C622.093 61.2356 620.696 60.4054 620.696 59.0332C620.696 57.666 622.093 56.8308 624.628 56.8308C627.174 56.8308 628.556 57.661 628.556 59.0332Z" fill="white"/>
<path d="M629.714 53.5408L629.714 46.8391L628.397 46.8391L628.397 51.4229L628.322 51.4229L626.204 49.3995C624.32 47.5352 623.42 47.0032 622.282 47.0032C620.646 47.0032 619.393 48.3356 619.393 50.2546C619.393 52.1587 620.626 53.5508 622.486 53.5508L622.486 52.0842C621.392 52.0891 620.676 51.3832 620.676 50.2844C620.676 49.2504 621.312 48.4648 622.327 48.4648C623.226 48.4648 623.873 49.0018 625.031 50.0955L628.601 53.5408L629.714 53.5408Z" fill="white"/>
<path d="M619.533 41.092L619.533 42.5884L621.193 45.1289L622.665 45.1289L621.074 42.6928L621.074 42.6332L629.714 42.6332L629.714 41.092L619.533 41.092Z" fill="white"/>
<path d="M600.571 71.2617L600.571 70.381L597.319 70.381L597.319 66.5032L600.571 66.5032L600.571 65.6225L593.299 65.6225L593.299 66.5032L596.537 66.5032L596.537 70.381L593.299 70.381L593.299 71.2617L600.571 71.2617Z" fill="white"/>
<path d="M600.685 61.7571C600.685 60.2798 599.563 59.2855 597.873 59.2855C596.168 59.2855 595.046 60.2798 595.046 61.7571C595.046 63.2344 596.168 64.2287 597.873 64.2287C599.563 64.2287 600.685 63.2344 600.685 61.7571ZM599.932 61.7571C599.932 62.8793 598.966 63.3906 597.873 63.3906C596.779 63.3906 595.799 62.8793 595.799 61.7571C595.799 60.6349 596.779 60.1236 597.873 60.1236C598.966 60.1236 599.932 60.6349 599.932 61.7571Z" fill="white"/>
<path d="M595.117 55.6341L595.117 56.7988L593.81 56.7988L593.81 57.6369L595.117 57.6369L595.117 58.4608L595.827 58.4608L595.827 57.6369L599.236 57.6369C600.188 57.6369 600.642 56.8699 600.642 56.1596C600.642 55.8471 600.586 55.6483 600.543 55.5346L599.79 55.7051C599.804 55.7761 599.833 55.8897 599.833 56.0744C599.833 56.4437 599.719 56.7988 599.009 56.7988L595.827 56.7988L595.827 55.6341L595.117 55.6341Z" fill="white"/>
<path d="M612.571 71.2617L612.571 68.6339C612.571 66.9151 611.733 66.2049 610.64 66.2049C609.489 66.2049 608.864 67.0004 608.821 67.668L608.75 67.668C608.58 67.043 608.168 66.489 607.231 66.489C606.165 66.489 605.299 67.1992 605.299 68.7191L605.299 71.2617L612.571 71.2617ZM611.79 70.381L609.262 70.381L609.262 68.5913C609.262 67.6396 609.901 67.043 610.64 67.043C611.279 67.043 611.79 67.4833 611.79 68.6339L611.79 70.381ZM608.495 70.381L606.08 70.381L606.08 68.7191C606.08 67.7532 606.591 67.3271 607.231 67.3271C607.998 67.3271 608.495 67.9521 608.495 68.7475L608.495 70.381Z" fill="white"/>
<path d="M612.571 64.8714L612.571 64.0334L609.12 64.0334C608.381 64.0334 607.841 63.451 607.841 62.6555C607.841 62.4318 607.884 62.201 607.898 62.1442L607.046 62.1442C607.039 62.2401 607.032 62.4602 607.032 62.5845C607.032 63.2379 607.401 63.8061 607.941 64.005L607.941 64.0618L607.117 64.0618L607.117 64.8714L612.571 64.8714Z" fill="white"/>
<path d="M612.699 59.5456C612.699 58.5939 612.188 58.0968 611.833 57.9263L611.833 57.8837L612.571 57.8837L612.571 57.0456L608.978 57.0456C607.245 57.0456 607.046 58.3667 607.046 59.0627C607.046 59.8865 607.33 60.824 608.324 61.2502L608.608 60.4547C608.211 60.2701 607.785 59.8333 607.785 59.0343C607.785 58.2637 608.193 57.8837 608.892 57.8837L608.921 57.8837C609.326 57.8837 609.29 58.2956 609.418 59.2899C609.549 60.302 609.773 61.4064 611.023 61.4064C612.088 61.4064 612.699 60.5826 612.699 59.5456ZM611.946 59.4178C611.946 60.0854 611.648 60.5684 611.066 60.5684C610.427 60.5684 610.228 59.986 610.142 59.3326C610.1 58.9774 610 58.0257 609.83 57.8837L610.597 57.8837C611.279 57.8837 611.946 58.4235 611.946 59.4178Z" fill="white"/>
<path d="M609.29 54.6779C608.338 54.6779 607.799 54.0884 607.799 53.2859C607.799 52.5082 608.307 52.0359 609.162 52.0359L612.571 52.0359L612.571 51.1978L609.106 51.1978C607.713 51.1978 607.046 51.94 607.046 53.0444C607.046 53.8683 607.415 54.3796 607.969 54.6353L607.969 54.7063L607.117 54.7063L607.117 55.516L612.571 55.516L612.571 54.6779L609.29 54.6779Z" fill="white"/>
<path d="M612.685 47.6067C612.685 46.5556 612.032 46.2005 611.733 46.0158L611.733 45.9164L612.571 45.9164L612.571 45.1067L605.299 45.1067L605.299 45.9448L607.983 45.9448L607.983 46.0158C607.699 46.2005 607.046 46.5272 607.046 47.5925C607.046 48.9703 608.14 49.9221 609.858 49.9221C611.591 49.9221 612.685 48.9703 612.685 47.6067ZM611.932 47.4931C611.932 48.5442 611.009 49.084 609.844 49.084C608.694 49.084 607.799 48.5584 607.799 47.4931C607.799 46.4703 608.623 45.9306 609.844 45.9306C611.08 45.9306 611.932 46.4846 611.932 47.4931Z" fill="white"/>
<path d="M608.338 39.5918C607.564 39.8546 607.046 40.4441 607.046 41.5236C607.046 42.6742 607.699 43.5265 608.623 43.5265C609.375 43.5265 609.88 43.079 610.114 42.0776L610.327 41.1685C610.455 40.6181 610.718 40.3588 611.094 40.3588C611.563 40.3588 611.946 40.856 611.946 41.6373C611.946 42.3226 611.652 42.7523 611.066 42.9015L611.265 43.6969C612.191 43.5016 612.685 42.7381 612.685 41.623C612.685 40.3553 611.993 39.4924 611.052 39.4924C610.292 39.4924 609.812 39.9682 609.574 40.9412L609.375 41.7509C609.216 42.3972 608.999 42.6884 608.58 42.6884C608.111 42.6884 607.77 42.1912 607.77 41.5236C607.77 40.7921 608.175 40.4902 608.552 40.3446L608.338 39.5918Z" fill="white"/>
<path fill-rule="evenodd" clip-rule="evenodd" d="M514 39.5H501.429V38.5H514V39.5Z" fill="white"/>
<g clip-path="url(#clip0)">
<path fill-rule="evenodd" clip-rule="evenodd" d="M495.905 159.136H478.381C476.929 159.136 475.143 160.863 475.143 162.315V171.076C475.143 172.528 476.929 173.962 478.381 173.962H487.025C487.257 173.962 487.55 174.264 487.714 174.429L491.714 178.429V175C491.714 174.516 491.911 173.962 492.394 173.962H495.905C497.356 173.962 499.143 172.528 499.143 171.076V162.315C499.143 160.863 497.356 159.136 495.905 159.136ZM478.381 157.934L495.905 157.934C498.324 157.934 500.286 159.895 500.286 162.315V171.076C500.286 173.496 498.324 175.361 495.905 175.361H492.857V179.572C492.857 179.572 492.694 180.365 492.567 180.458C492.44 180.55 491.78 180.458 491.78 180.458L486.78 175.457H478.381C475.961 175.457 474 173.496 474 171.076V162.315C474 159.895 475.961 157.934 478.381 157.934Z" fill="white"/>
</g>
<defs>
<clipPath id="clip0">
<rect width="26.2857" height="26.2857" fill="white" transform="translate(474 154.429)"/>
</clipPath>
</defs>
</svg>
