<svg width="17" height="19" viewBox="0 0 17 19" fill="none" xmlns="http://www.w3.org/2000/svg">
<path d="M4.26562 0.581633C4.26562 0.260406 4.52603 0 4.84726 0H11.0513C11.3726 0 11.633 0.260406 11.633 0.581633C11.633 0.90286 11.3726 1.16327 11.0513 1.16327H4.84726C4.52603 1.16327 4.26562 0.90286 4.26562 0.581633Z" fill="#9E9E9E"/>
<path d="M5.42969 15.3158C5.42969 15.6371 5.69009 15.8975 6.01132 15.8975C6.33255 15.8975 6.59295 15.6371 6.59295 15.3158V6.39746C6.59295 6.07623 6.33255 5.81583 6.01132 5.81583C5.69009 5.81583 5.42969 6.07623 5.42969 6.39746V15.3158Z" fill="#9E9E9E"/>
<path d="M10.082 15.3158C10.082 15.6371 10.3424 15.8975 10.6637 15.8975C10.9849 15.8975 11.2453 15.6371 11.2453 15.3158V6.39746C11.2453 6.07623 10.9849 5.81583 10.6637 5.81583C10.3424 5.81583 10.082 6.07623 10.082 6.39746V15.3158Z" fill="#9E9E9E"/>
<path d="M0 2.52011C0 2.19888 0.260406 1.93848 0.581633 1.93848H16.0918C16.4131 1.93848 16.6735 2.19888 16.6735 2.52011C16.6735 2.84134 16.4131 3.10174 16.0918 3.10174H0.581633C0.260406 3.10174 0 2.84134 0 2.52011Z" fill="#9E9E9E"/>
<path fill-rule="evenodd" clip-rule="evenodd" d="M13.9589 3.10174H2.71405V17.4487C2.71405 17.6628 2.88765 17.8364 3.1018 17.8364H13.5712C13.7853 17.8364 13.9589 17.6628 13.9589 17.4487V3.10174ZM1.55078 1.93848V17.4487C1.55078 18.3053 2.2452 18.9997 3.1018 18.9997H13.5712C14.4278 18.9997 15.1222 18.3053 15.1222 17.4487V1.93848H1.55078Z" fill="#9E9E9E"/>
</svg>
