<svg width="449" height="320" viewBox="0 0 449 320" fill="none" xmlns="http://www.w3.org/2000/svg">
<path d="M15.2874 306.934C19.8509 315.378 29.5364 319.002 29.5364 319.002C29.5364 319.002 31.823 308.937 27.2594 300.494C22.6958 292.05 13.0103 288.426 13.0103 288.426C13.0103 288.426 10.7238 298.491 15.2874 306.934Z" fill="#2F2E41"/>
<path d="M18.4242 304.159C26.6633 309.104 29.8364 318.927 29.8364 318.927C29.8364 318.927 19.6513 320.732 11.4122 315.786C3.17314 310.841 0 301.019 0 301.019C0 301.019 10.1851 299.214 18.4242 304.159Z" fill="#4284FB"/>
<path d="M203.145 59H151.738V59.7326H203.145V59Z" fill="#F2F2F2"/>
<path d="M189.195 59.5469H188.461V66.3239H189.195V59.5469Z" fill="#F2F2F2"/>
<path d="M166.795 59.5469H166.061V66.3239H166.795V59.5469Z" fill="#F2F2F2"/>
<path d="M229.215 94.1641H177.809V94.8967H229.215V94.1641Z" fill="#F2F2F2"/>
<path d="M192.498 87.5723H191.764V94.3493H192.498V87.5723Z" fill="#F2F2F2"/>
<path d="M214.898 87.5723H214.164V94.3493H214.898V87.5723Z" fill="#F2F2F2"/>
<path d="M297.514 110.65H246.107V111.383H297.514V110.65Z" fill="#F2F2F2"/>
<path d="M260.793 104.055H260.059V110.832H260.793V104.055Z" fill="#F2F2F2"/>
<path d="M283.193 104.055H282.459V110.832H283.193V104.055Z" fill="#F2F2F2"/>
<path d="M292.373 280.621H240.967V281.354H292.373V280.621Z" fill="#F2F2F2"/>
<path d="M255.652 274.031H254.918V280.808H255.652V274.031Z" fill="#F2F2F2"/>
<path d="M278.053 274.031H277.318V280.808H278.053V274.031Z" fill="#F2F2F2"/>
<path d="M204.615 163.035H153.209V163.768H204.615V163.035Z" fill="#F2F2F2"/>
<path d="M167.895 156.439H167.16V163.216H167.895V156.439Z" fill="#F2F2F2"/>
<path d="M190.295 156.439H189.561V163.216H190.295V156.439Z" fill="#F2F2F2"/>
<path d="M220.771 251.318H169.365V252.051H220.771V251.318Z" fill="#F2F2F2"/>
<path d="M184.055 244.723H183.32V251.5H184.055V244.723Z" fill="#F2F2F2"/>
<path d="M206.449 244.723H205.715V251.5H206.449V244.723Z" fill="#F2F2F2"/>
<path d="M303.021 224.574H251.615V225.307H303.021V224.574Z" fill="#F2F2F2"/>
<path d="M266.305 217.982H265.57V224.759H266.305V217.982Z" fill="#F2F2F2"/>
<path d="M288.699 217.982H287.965V224.759H288.699V217.982Z" fill="#F2F2F2"/>
<path d="M132.947 303.073H46.002V302.449H132.321V272.183H53.3112L49.473 264.206L50.037 263.936L53.7048 271.559H132.947V303.073Z" fill="#2F2E41"/>
<path d="M57.5717 318.36C61.199 318.36 64.1395 315.427 64.1395 311.808C64.1395 308.189 61.199 305.256 57.5717 305.256C53.9444 305.256 51.0039 308.189 51.0039 311.808C51.0039 315.427 53.9444 318.36 57.5717 318.36Z" fill="#3F3D56"/>
<path d="M122.31 318.36C125.937 318.36 128.878 315.427 128.878 311.808C128.878 308.189 125.937 305.256 122.31 305.256C118.683 305.256 115.742 308.189 115.742 311.808C115.742 315.427 118.683 318.36 122.31 318.36Z" fill="#3F3D56"/>
<path d="M198.619 176.704C200.864 176.704 202.684 174.888 202.684 172.648C202.684 170.408 200.864 168.592 198.619 168.592C196.373 168.592 194.553 170.408 194.553 172.648C194.553 174.888 196.373 176.704 198.619 176.704Z" fill="#3F3D56"/>
<path d="M142.245 261.883H44.5187L23.373 192.928H164.022L163.894 193.333L142.245 261.883ZM44.9815 261.259H141.786L163.169 193.552H24.2185L44.9815 261.259Z" fill="#2F2E41"/>
<path d="M134.617 258.298H48.7801L30.207 197.143H153.744L153.632 197.503L134.617 258.298Z" fill="#F2F2F2"/>
<path d="M165.773 186.769L165.168 186.609L169.296 171.088H193.306V171.712H169.777L165.773 186.769Z" fill="#2F2E41"/>
<path d="M156.994 213.836H30.207V214.46H156.994V213.836Z" fill="#2F2E41"/>
<path d="M149.732 236.828H37.2559V237.452H149.732V236.828Z" fill="#2F2E41"/>
<path d="M94.0044 193.24H93.3789V261.572H94.0044V193.24Z" fill="#2F2E41"/>
<path d="M122.01 193.219L117.52 261.549L118.144 261.59L122.634 193.26L122.01 193.219Z" fill="#2F2E41"/>
<path d="M65.386 193.219L64.7617 193.26L69.2257 261.591L69.85 261.551L65.386 193.219Z" fill="#2F2E41"/>
<path d="M329 318.756H0V319.488H329V318.756Z" fill="#2F2E41"/>
<path d="M73.5293 175.123H22.123V175.856H73.5293V175.123Z" fill="#F2F2F2"/>
<path d="M36.8086 168.527H36.0742V175.304H36.8086V168.527Z" fill="#F2F2F2"/>
<path d="M59.209 168.527H58.4746V175.304H59.209V168.527Z" fill="#F2F2F2"/>
<path d="M91.5215 66.6895H40.1152V67.4221H91.5215V66.6895Z" fill="#F2F2F2"/>
<path d="M77.5684 67.2383H76.834V74.0153H77.5684V67.2383Z" fill="#F2F2F2"/>
<path d="M55.168 67.2383H54.4336V74.0153H55.168V67.2383Z" fill="#F2F2F2"/>
<path d="M143.295 138.857H91.8887V139.59H143.295V138.857Z" fill="#F2F2F2"/>
<path d="M129.34 139.406H128.605V146.183H129.34V139.406Z" fill="#F2F2F2"/>
<path d="M106.945 139.406H106.211V146.183H106.945V139.406Z" fill="#F2F2F2"/>
<path d="M55.9043 138.492H4.49805V139.225H55.9043V138.492Z" fill="#F2F2F2"/>
<path d="M41.9492 139.039H41.2148V145.816H41.9492V139.039Z" fill="#F2F2F2"/>
<path d="M19.5547 139.039H18.8203V145.816H19.5547V139.039Z" fill="#F2F2F2"/>
<path d="M117.592 101.859H66.1855V102.592H117.592V101.859Z" fill="#F2F2F2"/>
<path d="M80.8711 95.2637H80.1367V102.041H80.8711V95.2637Z" fill="#F2F2F2"/>
<path d="M103.271 95.2637H102.537V102.041H103.271V95.2637Z" fill="#F2F2F2"/>
<path d="M440.92 228H250.411C248.446 227.998 246.562 227.216 245.173 225.827C243.784 224.438 243.002 222.554 243 220.589V7.41109C243.002 5.44623 243.784 3.56247 245.173 2.1731C246.562 0.783731 248.446 0.00221193 250.411 0H440.92C442.885 0.00221193 444.768 0.783731 446.158 2.1731C447.547 3.56247 448.329 5.44623 448.331 7.41109V220.589C448.329 222.554 447.547 224.438 446.158 225.827C444.768 227.216 442.885 227.998 440.92 228ZM250.411 0.871893C248.677 0.873854 247.015 1.56343 245.789 2.78934C244.563 4.01526 243.874 5.67739 243.872 7.41109V220.589C243.874 222.323 244.563 223.985 245.789 225.211C247.015 226.437 248.677 227.126 250.411 227.128H440.92C442.653 227.126 444.316 226.437 445.541 225.211C446.767 223.985 447.457 222.323 447.459 220.589V7.41109C447.457 5.67739 446.767 4.01526 445.541 2.78934C444.316 1.56343 442.653 0.873854 440.92 0.871893H250.411Z" fill="#3F3D56"/>
<path d="M447.894 18.1309H243.436V19.0028H447.894V18.1309Z" fill="#3F3D56"/>
<path d="M253.462 13.0787C255.388 13.0787 256.95 11.5172 256.95 9.59109C256.95 7.66495 255.388 6.10352 253.462 6.10352C251.536 6.10352 249.975 7.66495 249.975 9.59109C249.975 11.5172 251.536 13.0787 253.462 13.0787Z" fill="#4AABFF"/>
<path d="M264.361 13.0787C266.287 13.0787 267.848 11.5172 267.848 9.59109C267.848 7.66495 266.287 6.10352 264.361 6.10352C262.434 6.10352 260.873 7.66495 260.873 9.59109C260.873 11.5172 262.434 13.0787 264.361 13.0787Z" fill="#4AABFF"/>
<path d="M275.261 13.0787C277.187 13.0787 278.749 11.5172 278.749 9.59109C278.749 7.66495 277.187 6.10352 275.261 6.10352C273.335 6.10352 271.773 7.66495 271.773 9.59109C271.773 11.5172 273.335 13.0787 275.261 13.0787Z" fill="#4AABFF"/>
<path d="M413.673 50.1334H277.658C276.154 50.1334 274.713 49.5363 273.65 48.4735C272.587 47.4107 271.99 45.9692 271.99 44.4661C271.99 42.9631 272.587 41.5216 273.65 40.4587C274.713 39.3959 276.154 38.7988 277.658 38.7988H413.673C415.176 38.7988 416.617 39.3959 417.68 40.4587C418.743 41.5216 419.34 42.9631 419.34 44.4661C419.34 45.9692 418.743 47.4107 417.68 48.4735C416.617 49.5363 415.176 50.1334 413.673 50.1334V50.1334ZM277.658 39.6707C276.386 39.6707 275.166 40.176 274.267 41.0753C273.367 41.9746 272.862 43.1943 272.862 44.4661C272.862 45.738 273.367 46.9577 274.267 47.857C275.166 48.7563 276.386 49.2615 277.658 49.2615H413.673C414.945 49.2615 416.164 48.7563 417.064 47.857C417.963 46.9577 418.468 45.738 418.468 44.4661C418.468 43.1943 417.963 41.9746 417.064 41.0753C416.164 40.176 414.945 39.6707 413.673 39.6707H277.658Z" fill="#3F3D56"/>
<path d="M380.042 94.858H318.138C317.213 94.858 316.326 94.4905 315.672 93.8365C315.018 93.1824 314.65 92.2953 314.65 91.3704C314.65 90.4454 315.018 89.5583 315.672 88.9043C316.326 88.2502 317.213 87.8828 318.138 87.8828H380.042C380.967 87.8828 381.854 88.2502 382.508 88.9043C383.162 89.5583 383.53 90.4454 383.53 91.3704C383.53 92.2953 383.162 93.1824 382.508 93.8365C381.854 94.4905 380.967 94.858 380.042 94.858Z" fill="#CCCCCC"/>
<path d="M415.79 106.627H318.138C317.213 106.627 316.326 106.26 315.672 105.606C315.018 104.952 314.65 104.065 314.65 103.14C314.65 102.215 315.018 101.328 315.672 100.674C316.326 100.02 317.213 99.6523 318.138 99.6523H415.79C416.715 99.6523 417.602 100.02 418.256 100.674C418.91 101.328 419.278 102.215 419.278 103.14C419.278 104.065 418.91 104.952 418.256 105.606C417.602 106.26 416.715 106.627 415.79 106.627Z" fill="#CCCCCC"/>
<path d="M294.942 107.282H276.196C275.098 107.281 274.045 106.844 273.269 106.068C272.493 105.291 272.056 104.239 272.055 103.141V91.37C272.056 90.272 272.493 89.2193 273.269 88.4429C274.045 87.6665 275.098 87.2298 276.196 87.2285H294.942C296.04 87.2298 297.093 87.6665 297.869 88.4429C298.645 89.2193 299.082 90.272 299.083 91.37V103.141C299.082 104.239 298.645 105.291 297.869 106.068C297.093 106.844 296.04 107.281 294.942 107.282V107.282ZM276.196 88.1004C275.329 88.1014 274.498 88.4462 273.885 89.0591C273.272 89.6721 272.928 90.5032 272.927 91.37V103.141C272.928 104.007 273.272 104.838 273.885 105.451C274.498 106.064 275.329 106.409 276.196 106.41H294.942C295.809 106.409 296.64 106.064 297.253 105.451C297.866 104.838 298.211 104.007 298.211 103.141V91.37C298.211 90.5032 297.866 89.6721 297.253 89.0591C296.64 88.4462 295.809 88.1014 294.942 88.1004H276.196Z" fill="#CCCCCC"/>
<path d="M380.042 136.272H318.138C317.213 136.272 316.326 135.905 315.672 135.251C315.018 134.596 314.65 133.709 314.65 132.784C314.65 131.859 315.018 130.972 315.672 130.318C316.326 129.664 317.213 129.297 318.138 129.297H380.042C380.967 129.297 381.854 129.664 382.508 130.318C383.162 130.972 383.53 131.859 383.53 132.784C383.53 133.709 383.162 134.596 382.508 135.251C381.854 135.905 380.967 136.272 380.042 136.272Z" fill="#CCCCCC"/>
<path d="M415.79 148.044H318.138C317.213 148.044 316.326 147.676 315.672 147.022C315.018 146.368 314.65 145.481 314.65 144.556C314.65 143.631 315.018 142.744 315.672 142.09C316.326 141.436 317.213 141.068 318.138 141.068H415.79C416.715 141.068 417.602 141.436 418.256 142.09C418.91 142.744 419.278 143.631 419.278 144.556C419.278 145.481 418.91 146.368 418.256 147.022C417.602 147.676 416.715 148.044 415.79 148.044Z" fill="#CCCCCC"/>
<path d="M294.942 148.696H276.196C275.098 148.695 274.045 148.258 273.269 147.482C272.493 146.705 272.056 145.653 272.055 144.555V132.784C272.056 131.686 272.493 130.633 273.269 129.857C274.045 129.081 275.098 128.644 276.196 128.643H294.942C296.04 128.644 297.093 129.081 297.869 129.857C298.645 130.633 299.082 131.686 299.083 132.784V144.555C299.082 145.653 298.645 146.705 297.869 147.482C297.093 148.258 296.04 148.695 294.942 148.696ZM276.196 129.514C275.329 129.515 274.498 129.86 273.885 130.473C273.272 131.086 272.928 131.917 272.927 132.784V144.555C272.928 145.421 273.272 146.253 273.885 146.866C274.498 147.478 275.329 147.823 276.196 147.824H294.942C295.809 147.823 296.64 147.478 297.253 146.866C297.866 146.253 298.211 145.421 298.211 144.555V132.784C298.211 131.917 297.866 131.086 297.253 130.473C296.64 129.86 295.809 129.515 294.942 129.514H276.196Z" fill="#CCCCCC"/>
<path d="M380.042 177.688H318.138C317.213 177.688 316.326 177.321 315.672 176.667C315.018 176.013 314.65 175.125 314.65 174.2C314.65 173.276 315.018 172.388 315.672 171.734C316.326 171.08 317.213 170.713 318.138 170.713H380.042C380.967 170.713 381.854 171.08 382.508 171.734C383.162 172.388 383.53 173.276 383.53 174.2C383.53 175.125 383.162 176.013 382.508 176.667C381.854 177.321 380.967 177.688 380.042 177.688Z" fill="#F2F2F2"/>
<path d="M415.79 189.458H318.138C317.213 189.458 316.326 189.09 315.672 188.436C315.018 187.782 314.65 186.895 314.65 185.97C314.65 185.045 315.018 184.158 315.672 183.504C316.326 182.85 317.213 182.482 318.138 182.482H415.79C416.715 182.482 417.602 182.85 418.256 183.504C418.91 184.158 419.278 185.045 419.278 185.97C419.278 186.895 418.91 187.782 418.256 188.436C417.602 189.09 416.715 189.458 415.79 189.458Z" fill="#F2F2F2"/>
<path d="M294.942 190.112H276.196C275.098 190.111 274.045 189.674 273.269 188.898C272.493 188.121 272.056 187.069 272.055 185.971V174.2C272.056 173.102 272.493 172.049 273.269 171.273C274.045 170.497 275.098 170.06 276.196 170.059H294.942C296.04 170.06 297.093 170.497 297.869 171.273C298.645 172.049 299.082 173.102 299.083 174.2V185.971C299.082 187.069 298.645 188.121 297.869 188.898C297.093 189.674 296.04 190.111 294.942 190.112Z" fill="#F2F2F2"/>
<path d="M285.569 103.681L284.559 102.77C280.975 99.4789 278.608 97.3428 278.608 94.6819C278.599 94.1756 278.692 93.6727 278.881 93.2029C279.07 92.7332 279.351 92.3061 279.708 91.9469C280.065 91.5878 280.49 91.3039 280.959 91.1121C281.428 90.9204 281.93 90.8245 282.436 90.8303C283.034 90.8335 283.624 90.9667 284.164 91.2207C284.705 91.4746 285.184 91.8433 285.569 92.301C285.953 91.8433 286.432 91.4746 286.973 91.2207C287.514 90.9667 288.103 90.8335 288.701 90.8303C289.207 90.8245 289.709 90.9204 290.178 91.1121C290.647 91.3039 291.072 91.5878 291.429 91.9469C291.786 92.3061 292.067 92.7332 292.256 93.2029C292.445 93.6727 292.538 94.1756 292.529 94.6819C292.529 97.3428 290.163 99.4789 286.578 102.77L285.569 103.681Z" fill="#4AABFF"/>
<path d="M285.569 145.095L284.559 144.184C280.975 140.893 278.608 138.757 278.608 136.096C278.599 135.59 278.692 135.087 278.881 134.617C279.07 134.147 279.351 133.72 279.708 133.361C280.065 133.002 280.49 132.718 280.959 132.526C281.428 132.334 281.93 132.239 282.436 132.244C283.034 132.248 283.624 132.381 284.164 132.635C284.705 132.889 285.184 133.257 285.569 133.715C285.953 133.257 286.432 132.889 286.973 132.635C287.514 132.381 288.103 132.248 288.701 132.244C289.207 132.239 289.709 132.334 290.178 132.526C290.647 132.718 291.072 133.002 291.429 133.361C291.786 133.72 292.067 134.147 292.256 134.617C292.445 135.087 292.538 135.59 292.529 136.096C292.529 138.757 290.163 140.893 286.578 144.184L285.569 145.095Z" fill="#4AABFF"/>
</svg>
