<svg width="40" height="40" viewBox="0 0 40 40" fill="none" xmlns="http://www.w3.org/2000/svg">
<circle cx="20" cy="20" r="20" fill="#E7F8FF"/>
<g clip-path="url(#clip0)">
<path fill-rule="evenodd" clip-rule="evenodd" d="M24.315 23.974L23.592 27.788C23.5825 27.8387 23.5585 27.8856 23.523 27.923C23.5004 27.9473 23.4731 27.9666 23.4428 27.9798C23.4124 27.9931 23.3796 27.9999 23.3465 27.9999C23.3134 27.9999 23.2806 27.9931 23.2502 27.9798C23.2199 27.9666 23.1926 27.9473 23.17 27.923L20.39 24.993C20.26 24.997 20.13 25 20 25C15.582 25 12 22.09 12 18.5C12 14.91 15.582 12 20 12C24.418 12 28 14.91 28 18.5C28 20.799 26.531 22.819 24.315 23.974Z" fill="#65BDFC"/>
</g>
<defs>
<clipPath id="clip0">
<rect width="16" height="16" fill="white" transform="translate(12 12)"/>
</clipPath>
</defs>
</svg>
