<svg width="27" height="27" viewBox="0 0 27 27" fill="none" xmlns="http://www.w3.org/2000/svg">
<g clip-path="url(#clip0)">
<path d="M6.30949 5.47468L17.0731 2.53667L16.5031 1.38451C16.1302 0.635602 15.2206 0.326337 14.4716 0.699274L4.83594 5.47468H6.30949Z" fill="#4B8FF6"/>
<path d="M20.4132 2.62109C20.2798 2.62109 20.1463 2.63929 20.0129 2.67567L17.4843 3.36697L9.76172 5.47421H18.5272H22.3476L21.8746 3.7399C21.6927 3.06377 21.0802 2.62109 20.4132 2.62109Z" fill="#4B8FF6"/>
<path d="M23.9286 6.53613H23.5829H23.113H22.643H19.0561H5.87603H4.14778H2.69242H2.42257H1.51903C1.03998 6.53613 0.612465 6.75747 0.333521 7.10615C0.206176 7.26685 0.109152 7.4518 0.0545761 7.65494C0.021224 7.78229 0 7.91569 0 8.05214V8.23406V9.9623V24.9434C0 25.7803 0.679169 26.4594 1.516 26.4594H23.9255C24.7624 26.4594 25.4416 25.7803 25.4416 24.9434V20.7138H16.4456C15.0236 20.7138 13.8684 19.5586 13.8684 18.1366V16.7479V16.278V15.808V14.765C13.8684 14.0676 14.1473 13.434 14.5991 12.9701C14.9993 12.5577 15.536 12.2787 16.1363 12.209C16.2364 12.1969 16.3395 12.1908 16.4426 12.1908H24.1802H24.6502H25.1202H25.4416V8.05214C25.4446 7.2153 24.7654 6.53613 23.9286 6.53613Z" fill="#4B8FF6"/>
<path d="M26.5059 13.6393C26.3543 13.4999 26.1754 13.3938 25.9753 13.324C25.8206 13.2725 25.6569 13.2422 25.4841 13.2422H25.4447H25.4144H24.9444H23.2495H16.4457C15.6088 13.2422 14.9297 13.9213 14.9297 14.7582V15.5131V15.9831V16.453V18.1328C14.9297 18.9696 15.6088 19.6488 16.4457 19.6488H25.4447H25.4841C25.6569 19.6488 25.8206 19.6185 25.9753 19.5669C26.1754 19.5002 26.3543 19.3911 26.5059 19.2516C26.8091 18.9757 27.0001 18.5755 27.0001 18.1328V14.7582C27.0001 14.3155 26.8091 13.9152 26.5059 13.6393ZM19.6111 16.7472C19.6111 17.1656 19.2715 17.5052 18.8531 17.5052H18.3498C17.9314 17.5052 17.5918 17.1656 17.5918 16.7472V16.2438C17.5918 16.0013 17.704 15.786 17.8829 15.6495C18.0132 15.5495 18.174 15.4858 18.3498 15.4858H18.4771H18.8531C19.2715 15.4858 19.6111 15.8254 19.6111 16.2438V16.7472Z" fill="#4B8FF6"/>
</g>
<defs>
<clipPath id="clip0">
<rect width="27" height="27" fill="white"/>
</clipPath>
</defs>
</svg>
