<svg width="76" height="76" viewBox="0 0 76 76" fill="none" xmlns="http://www.w3.org/2000/svg">
<rect width="76" height="76" rx="24" fill="#E1FDDF"/>
<path fill-rule="evenodd" clip-rule="evenodd" d="M38.1931 17C26.4885 17 17 26.4885 17 38.1931C17 49.8975 26.4885 59.3861 38.1931 59.3861C49.8977 59.3861 59.386 49.8975 59.386 38.1931C59.386 26.4885 49.8977 17 38.1931 17ZM20.04 38.1931C20.04 28.1674 28.1674 20.04 38.1931 20.04C48.2186 20.04 56.346 28.1674 56.346 38.1931C56.346 48.2187 48.2186 56.3461 38.1931 56.3461C28.1674 56.3461 20.04 48.2187 20.04 38.1931ZM46.7018 31.9142C47.2103 31.1916 47.0369 30.1935 46.3143 29.6849C45.5916 29.1764 44.5935 29.35 44.0849 30.0727L35.0566 42.9024L31.3352 39.112C30.716 38.4815 29.703 38.4722 29.0725 39.0913C28.4419 39.7104 28.4327 40.7234 29.0518 41.3539L34.1184 46.5144C34.4511 46.8533 34.9171 47.0267 35.3904 46.988C35.8637 46.9496 36.2953 46.7026 36.5686 46.3141L46.7018 31.9142Z" fill="white"/>
<path fill-rule="evenodd" clip-rule="evenodd" d="M38.1931 17C26.4885 17 17 26.4885 17 38.1931C17 49.8975 26.4885 59.3861 38.1931 59.3861C49.8977 59.3861 59.386 49.8975 59.386 38.1931C59.386 26.4885 49.8977 17 38.1931 17ZM46.7018 31.9142C47.2103 31.1916 47.0369 30.1935 46.3143 29.6849C45.5916 29.1764 44.5935 29.35 44.0849 30.0727L35.0566 42.9024L31.3352 39.112C30.716 38.4815 29.703 38.4722 29.0725 39.0913C28.4419 39.7104 28.4327 40.7234 29.0518 41.3539L34.1184 46.5144C34.4511 46.8533 34.9171 47.0267 35.3904 46.988C35.8637 46.9496 36.2953 46.7026 36.5686 46.3141L46.7018 31.9142Z" fill="url(#paint0_linear)"/>
<defs>
<linearGradient id="paint0_linear" x1="18" y1="16" x2="59" y2="60.5" gradientUnits="userSpaceOnUse">
<stop offset="0.00211458" stop-color="#C7FFC7"/>
<stop offset="1" stop-color="#35FF7A"/>
</linearGradient>
</defs>
</svg>
