<svg width="10" height="10" viewBox="0 0 10 10" fill="none" xmlns="http://www.w3.org/2000/svg">
<path d="M10 4.99995C10 2.23852 7.76143 -4.95911e-05 5 -4.95911e-05C2.23857 -4.95911e-05 0 2.23852 0 4.99995C0 7.49559 1.82843 9.56411 4.21875 9.93921V6.44526H2.94922V4.99995H4.21875V3.89839C4.21875 2.64526 4.96522 1.95308 6.10732 1.95308C6.65437 1.95308 7.22656 2.05073 7.22656 2.05073V3.2812H6.59607C5.97495 3.2812 5.78125 3.66662 5.78125 4.06203V4.99995H7.16797L6.94629 6.44526H5.78125V9.93921C8.17157 9.56411 10 7.49559 10 4.99995Z" fill="white"/>
</svg>