<svg width="10" height="10" viewBox="0 0 10 10" fill="none" xmlns="http://www.w3.org/2000/svg">
<path d="M7.02095 0H2.97905C1.3364 0 0 1.3364 0 2.97905V7.02095C0 8.6636 1.3364 10 2.97905 10H7.02095C8.6636 10 10 8.6636 10 7.02095V2.97905C9.99998 1.3364 8.66359 0 7.02095 0ZM8.994 7.02095C8.994 8.11063 8.11063 8.994 7.02095 8.994H2.97905C1.88938 8.994 1.006 8.11063 1.006 7.02095V2.97905C1.006 1.88936 1.88938 1.006 2.97905 1.006H7.02095C8.11063 1.006 8.994 1.88936 8.994 2.97905V7.02095Z" fill="white"/>
<path d="M4.99993 2.41357C3.57381 2.41357 2.41357 3.57381 2.41357 4.99991C2.41357 6.42601 3.57381 7.58627 4.99993 7.58627C6.42605 7.58627 7.58629 6.42603 7.58629 4.99991C7.58629 3.57379 6.42605 2.41357 4.99993 2.41357ZM4.99993 6.58029C4.12712 6.58029 3.41957 5.87274 3.41957 4.99993C3.41957 4.12712 4.12713 3.41957 4.99993 3.41957C5.87274 3.41957 6.58029 4.12712 6.58029 4.99993C6.58029 5.87273 5.87273 6.58029 4.99993 6.58029Z" fill="white"/>
<path d="M7.59141 3.05293C7.93367 3.05293 8.21113 2.77547 8.21113 2.4332C8.21113 2.09094 7.93367 1.81348 7.59141 1.81348C7.24914 1.81348 6.97168 2.09094 6.97168 2.4332C6.97168 2.77547 7.24914 3.05293 7.59141 3.05293Z" fill="white"/>
</svg>