<svg width="12" height="10" viewBox="0 0 12 10" fill="none" xmlns="http://www.w3.org/2000/svg">
<g clip-path="url(#clip0)">
<path d="M11.8095 1.16589C11.5428 1.28534 11.2656 1.37989 10.9815 1.44834C11.2982 1.14757 11.5336 0.771252 11.6655 0.354593C11.6721 0.328701 11.671 0.301466 11.6624 0.276181C11.6538 0.250896 11.6381 0.228644 11.6172 0.212116C11.5962 0.195587 11.5709 0.18549 11.5444 0.183046C11.5178 0.180602 11.4911 0.185915 11.4675 0.198343C11.0726 0.432329 10.6463 0.608399 10.2015 0.721179H10.1235C10.0418 0.72112 9.96285 0.691207 9.90153 0.637045C9.42773 0.223677 8.81987 -0.00276656 8.19153 2.55151e-05C7.91275 0.000361497 7.63562 0.0429096 7.36953 0.126227C6.95614 0.254924 6.58304 0.488607 6.28654 0.804538C5.99004 1.12047 5.78023 1.50789 5.67753 1.92911C5.6022 2.2417 5.58189 2.56506 5.61753 2.88464C5.62249 2.89601 5.62504 2.90829 5.62504 2.9207C5.62504 2.93311 5.62249 2.94538 5.61753 2.95676C5.60813 2.97344 5.59397 2.98692 5.57687 2.99549C5.55976 3.00405 5.54049 3.00731 5.52153 3.00483C4.61546 2.92189 3.73529 2.6573 2.93336 2.22679C2.13144 1.79628 1.42414 1.20864 0.853531 0.498824C0.841027 0.475098 0.821901 0.455531 0.798485 0.442506C0.775068 0.429482 0.748374 0.423565 0.721657 0.425477C0.694941 0.427388 0.669357 0.437045 0.648026 0.453271C0.626696 0.469496 0.61054 0.491588 0.601531 0.516852C0.313491 1.01423 0.198454 1.5933 0.274468 2.16323C0.350481 2.73316 0.613244 3.26169 1.02153 3.66589C0.811918 3.61803 0.609979 3.54117 0.421531 3.43753C0.401261 3.42765 0.378885 3.4229 0.356358 3.42368C0.33383 3.42447 0.311838 3.43077 0.292304 3.44203C0.27277 3.4533 0.256288 3.46919 0.244299 3.4883C0.23231 3.50742 0.22518 3.52919 0.223531 3.55171C0.223026 4.06153 0.3724 4.56022 0.653022 4.98557C0.933643 5.41092 1.33309 5.74409 1.80153 5.94354H1.71753C1.57053 5.9434 1.42388 5.92931 1.27953 5.90147C1.25652 5.89751 1.23288 5.89947 1.21083 5.90716C1.18878 5.91485 1.16904 5.92802 1.15345 5.94543C1.13786 5.96284 1.12694 5.98393 1.12171 6.00672C1.11648 6.02952 1.1171 6.05326 1.12353 6.07575C1.26943 6.53019 1.5376 6.93554 1.89855 7.24724C2.25951 7.55895 2.69928 7.76494 3.16953 7.84258C2.38004 8.37397 1.45072 8.65844 0.499531 8.65988H0.199531C0.155386 8.6599 0.112514 8.6747 0.077727 8.70192C0.0429398 8.72914 0.0182325 8.76723 0.00753077 8.81012C0.00171157 8.84986 0.0077141 8.89044 0.0247882 8.92678C0.0418623 8.96312 0.0692508 8.99361 0.103531 9.01445C1.18785 9.64517 2.41963 9.97694 3.67353 9.97599C4.72465 9.98509 5.76501 9.76355 6.72153 9.32695C7.57427 8.9303 8.33459 8.35914 8.95353 7.65027C9.54035 6.99151 10.0038 6.23216 10.3215 5.40868C10.6318 4.60101 10.7944 3.744 10.8015 2.87863V2.83656C10.8012 2.77097 10.8157 2.70614 10.8437 2.64686C10.8717 2.58758 10.9127 2.53535 10.9635 2.49402C11.3643 2.17181 11.7142 1.79093 12.0015 1.36421C12.0157 1.33954 12.0219 1.31111 12.0193 1.28278C12.0167 1.25446 12.0055 1.22762 11.9871 1.20593C11.9687 1.18424 11.9441 1.16876 11.9166 1.16159C11.8892 1.15443 11.8601 1.15593 11.8335 1.16589H11.8095Z" fill="white"/>
</g>
<defs>
<clipPath id="clip0">
<rect width="12" height="10" fill="white"/>
</clipPath>
</defs>
</svg>