<svg width="10" height="7" viewBox="0 0 10 7" fill="none" xmlns="http://www.w3.org/2000/svg">
<path d="M9.78601 5.90471C9.67078 6.33294 9.33333 6.67059 8.90535 6.78588C8.12346 7 4.99588 7 4.99588 7C4.99588 7 1.86831 7 1.08642 6.79412C0.666667 6.67882 0.320988 6.33294 0.205761 5.90471C0 5.12235 0 3.5 0 3.5C0 3.5 0 1.86941 0.205761 1.09529C0.320988 0.667059 0.658436 0.329412 1.08642 0.214118C1.87654 -4.76837e-07 4.99588 0 4.99588 0C4.99588 0 8.12346 0 8.90535 0.205882C9.33333 0.321176 9.67078 0.658823 9.78601 1.08706C9.99177 1.86941 9.99177 3.49176 9.99177 3.49176C9.99177 3.49176 10 5.12235 9.78601 5.90471Z" fill="#CACACA"/>
<path d="M4 2.00113L6.60082 3.49996L4 4.99878V2.00113Z" fill="black"/>
</svg>