<svg width="567" height="214" viewBox="0 0 567 214" fill="none" xmlns="http://www.w3.org/2000/svg">
<path d="M240.841 171C224.978 171 213.17 167.314 205.418 159.943C197.785 152.452 193.312 142.643 192 130.516H207.028C207.624 134.677 208.459 138.304 209.533 141.395C210.725 144.486 212.515 147.399 214.9 150.134C217.285 152.868 220.625 154.949 224.919 156.376C229.332 157.803 234.639 158.516 240.841 158.516C249.19 158.516 256.108 156.316 261.594 151.917C267.2 147.399 270.003 141.573 270.003 134.439C270.003 127.068 267.856 121.658 263.562 118.21C259.268 114.643 251.098 111.909 239.052 110.006C224.62 107.866 213.886 104.18 206.849 98.949C199.812 93.5987 196.294 85.5732 196.294 74.8726C196.294 65.0042 200.17 56.8004 207.923 50.2611C215.675 43.603 225.515 40.2739 237.442 40.2739C250.323 40.2739 260.58 43.3057 268.214 49.3694C275.847 55.4331 280.26 64.1125 281.453 75.4076H267.498C265.948 67.4416 262.787 61.6752 258.016 58.1083C253.245 54.5414 246.387 52.758 237.442 52.758C228.974 52.758 222.414 54.6603 217.762 58.465C213.111 62.2696 210.785 67.2633 210.785 73.4459C210.785 80.104 212.813 85.0977 216.868 88.4267C220.923 91.7558 229.153 94.3715 241.557 96.2739C256.585 98.6518 267.558 102.575 274.475 108.045C281.512 113.395 285.031 121.837 285.031 133.369C285.031 144.07 280.797 153.047 272.329 160.299C263.98 167.433 253.484 171 240.841 171Z" fill="white"/>
<path d="M310.606 169.395V31.535H325.455V90.9236C327.721 86.1677 331.478 82.2442 336.726 79.1529C341.974 76.0616 348.236 74.5159 355.511 74.5159C365.769 74.5159 373.819 77.5478 379.664 83.6115C385.508 89.6752 388.43 99.1868 388.43 112.146V169.395H373.581V111.076C373.581 102.873 371.792 96.8684 368.214 93.0637C364.635 89.259 359.089 87.3567 351.575 87.3567C344.3 87.3567 338.098 89.6157 332.969 94.1338C327.96 98.6518 325.455 104.894 325.455 112.86V169.395H310.606Z" fill="white"/>
<path d="M417.888 169.395V76.121H432.737V169.395H417.888ZM431.842 53.828C429.934 55.7304 427.668 56.6815 425.044 56.6815C422.42 56.6815 420.094 55.7304 418.067 53.828C416.158 51.9257 415.204 49.6072 415.204 46.8726C415.204 44.138 416.158 41.8195 418.067 39.9172C420.094 38.0149 422.42 37.0637 425.044 37.0637C427.668 37.0637 429.934 38.0149 431.842 39.9172C433.87 41.8195 434.884 44.138 434.884 46.8726C434.884 49.6072 433.87 51.9257 431.842 53.828Z" fill="white"/>
<path d="M466.35 169.395V88.6051H452.932V76.121H466.35V60.9618C466.35 51.3312 468.676 43.9597 473.328 38.8471C478.098 33.6157 485.076 31 494.26 31C498.076 31 501.774 31.5945 505.352 32.7834V45.2675C502.012 43.9597 498.494 43.3057 494.796 43.3057C485.732 43.3057 481.199 48.6561 481.199 59.3567V76.121H504.099V88.6051H481.199V169.395H466.35Z" fill="white"/>
<path d="M554.298 170.643C546.068 170.643 539.806 168.444 535.513 164.045C531.219 159.645 529.072 153.641 529.072 146.032V88.6051H515.654V76.121H529.072V54.8981H543.921V76.121H565.748V88.6051H543.921V144.605C543.921 153.641 547.797 158.159 555.55 158.159C559.844 158.159 563.66 157.505 567 156.197V168.682C563.303 169.989 559.069 170.643 554.298 170.643Z" fill="white"/>
<g filter="url(#filter0_d)">
<path d="M106 132.874V6C59.41 5.99991 27.1512 24.2974 5.39981 85.1976C4.45703 87.8373 4 90.6491 4 93.4531V212C33.9193 212 86.96 191.536 106 132.874Z" fill="#405FFF"/>
</g>
<g filter="url(#filter1_d)">
<path d="M106 132.909V62C49.2218 62 26.7265 114.789 7.14707 151.642C5.10958 155.477 3.99998 159.735 4 164.08L4.00021 212C33.9195 212 86.96 191.545 106 132.909Z" fill="#3385FF"/>
</g>
<g filter="url(#filter2_d)">
<path d="M106 132.796L106 85C68.4615 85 24.763 150.565 6.56513 186.324C4.82695 189.739 4 193.508 4 197.343V212C33.9193 212 86.9598 191.516 106 132.796Z" fill="#69B7FF"/>
</g>
<defs>
<filter id="filter0_d" x="0" y="0" width="110" height="214" filterUnits="userSpaceOnUse" color-interpolation-filters="sRGB">
<feFlood flood-opacity="0" result="BackgroundImageFix"/>
<feColorMatrix in="SourceAlpha" type="matrix" values="0 0 0 0 0 0 0 0 0 0 0 0 0 0 0 0 0 0 127 0"/>
<feOffset dy="-2"/>
<feGaussianBlur stdDeviation="2"/>
<feColorMatrix type="matrix" values="0 0 0 0 0.554167 0 0 0 0 0.554167 0 0 0 0 0.554167 0 0 0 0.25 0"/>
<feBlend mode="normal" in2="BackgroundImageFix" result="effect1_dropShadow"/>
<feBlend mode="normal" in="SourceGraphic" in2="effect1_dropShadow" result="shape"/>
</filter>
<filter id="filter1_d" x="3" y="61" width="104" height="152" filterUnits="userSpaceOnUse" color-interpolation-filters="sRGB">
<feFlood flood-opacity="0" result="BackgroundImageFix"/>
<feColorMatrix in="SourceAlpha" type="matrix" values="0 0 0 0 0 0 0 0 0 0 0 0 0 0 0 0 0 0 127 0"/>
<feOffset/>
<feGaussianBlur stdDeviation="0.5"/>
<feColorMatrix type="matrix" values="0 0 0 0 0 0 0 0 0 0 0 0 0 0 0 0 0 0 0.25 0"/>
<feBlend mode="normal" in2="BackgroundImageFix" result="effect1_dropShadow"/>
<feBlend mode="normal" in="SourceGraphic" in2="effect1_dropShadow" result="shape"/>
</filter>
<filter id="filter2_d" x="3" y="84" width="104" height="129" filterUnits="userSpaceOnUse" color-interpolation-filters="sRGB">
<feFlood flood-opacity="0" result="BackgroundImageFix"/>
<feColorMatrix in="SourceAlpha" type="matrix" values="0 0 0 0 0 0 0 0 0 0 0 0 0 0 0 0 0 0 127 0"/>
<feOffset/>
<feGaussianBlur stdDeviation="0.5"/>
<feColorMatrix type="matrix" values="0 0 0 0 0 0 0 0 0 0 0 0 0 0 0 0 0 0 0.06 0"/>
<feBlend mode="normal" in2="BackgroundImageFix" result="effect1_dropShadow"/>
<feBlend mode="normal" in="SourceGraphic" in2="effect1_dropShadow" result="shape"/>
</filter>
</defs>
</svg>
