<svg width="40" height="40" viewBox="0 0 40 40" fill="none" xmlns="http://www.w3.org/2000/svg">
<path d="M31.1111 0H8.88889C3.97969 0 0 3.97969 0 8.88889V31.1111C0 36.0203 3.97969 40 8.88889 40H31.1111C36.0203 40 40 36.0203 40 31.1111V8.88889C40 3.97969 36.0203 0 31.1111 0Z" fill="url(#paint0_linear)"/>
<path d="M29.6203 14.2802H29.1003V13.7602C29.1003 12.6162 28.1643 11.6802 27.0203 11.6802H10.3803C9.23629 11.6802 8.30029 12.6162 8.30029 13.7602V23.6402C8.30029 24.7842 9.23629 25.7202 10.3803 25.7202H10.9003V26.2402C10.9003 27.3842 11.8363 28.3202 12.9803 28.3202H29.6203C30.7643 28.3202 31.7003 27.3842 31.7003 26.2402V16.3602C31.7003 15.2162 30.7643 14.2802 29.6203 14.2802ZM29.6203 15.3202C29.6983 15.3202 29.7763 15.3202 29.8283 15.3462L21.6383 22.3922C21.4303 22.5742 21.1443 22.5742 20.9623 22.3922L12.7723 15.3462C12.8243 15.3202 12.9023 15.3202 12.9803 15.3202H29.6203ZM10.9003 16.3602V24.6802H10.3803C9.80829 24.6802 9.34029 24.2122 9.34029 23.6402V13.7602C9.34029 13.1882 9.80829 12.7202 10.3803 12.7202H27.0203C27.5923 12.7202 28.0603 13.1882 28.0603 13.7602V14.2802H12.9803C11.8363 14.2802 10.9003 15.2162 10.9003 16.3602ZM11.9403 26.2402V16.3602C11.9403 16.2562 11.9663 16.1522 11.9923 16.0482L18.0763 21.3002L11.9923 26.5522C11.9663 26.4482 11.9403 26.3442 11.9403 26.2402ZM29.6203 27.2802H12.9803C12.9023 27.2802 12.8243 27.2802 12.7723 27.2542L18.8823 21.9762L20.2863 23.1722C20.5723 23.4322 20.9363 23.5622 21.3003 23.5622C21.6643 23.5622 22.0283 23.4322 22.3143 23.1722L23.7183 21.9762L29.8283 27.2542C29.7763 27.2802 29.6983 27.2802 29.6203 27.2802ZM30.6603 26.2402C30.6603 26.3442 30.6343 26.4482 30.6083 26.5522L24.4983 21.3002L30.6083 16.0482C30.6343 16.1522 30.6603 16.2562 30.6603 16.3602V26.2402Z" fill="white"/>
<defs>
<linearGradient id="paint0_linear" x1="0" y1="0" x2="40" y2="40" gradientUnits="userSpaceOnUse">
<stop stop-color="#81D1FF"/>
<stop offset="1" stop-color="#129BFF"/>
</linearGradient>
</defs>
</svg>
