<svg width="40" height="40" viewBox="0 0 40 40" fill="none" xmlns="http://www.w3.org/2000/svg">
<path d="M31.1111 0H8.88889C3.97969 0 0 3.97969 0 8.88889V31.1111C0 36.0203 3.97969 40 8.88889 40H31.1111C36.0203 40 40 36.0203 40 31.1111V8.88889C40 3.97969 36.0203 0 31.1111 0Z" fill="url(#paint0_linear)"/>
<path d="M27.1411 24.5243C25.9801 23.3363 24.1171 23.1743 22.7671 24.1193L21.0661 25.2803C20.9041 25.3883 20.6611 25.3883 20.5261 25.2263L15.5041 20.2043C15.3691 20.0693 15.3421 19.8263 15.4501 19.6643L16.3141 18.4223L16.6381 17.9363C17.5831 16.5593 17.3941 14.7233 16.2331 13.5623L15.5581 12.8873C14.2081 11.5373 12.0211 11.5373 10.6981 12.8873L9.6721 13.9133C8.4571 15.0743 8.3221 17.0723 9.2401 19.5563C10.1041 21.8783 11.8321 24.4163 14.0731 26.6573C17.5291 30.1133 21.3631 32.0843 24.1171 32.0843C25.2241 32.0843 26.1421 31.7603 26.8171 31.1123L27.8431 30.0863C29.1931 28.7363 29.1931 26.5493 27.8431 25.2263L27.1411 24.5243ZM13.1011 12.9683C13.6951 12.9683 14.3161 13.2113 14.7751 13.6703L15.4501 14.3453C16.2331 15.1283 16.3681 16.3703 15.7741 17.2883L11.8051 13.3463C12.2101 13.0763 12.6421 12.9683 13.1011 12.9683ZM26.0611 30.3293C24.4411 31.9493 19.5271 30.5723 14.8561 25.8743C12.7231 23.7413 11.0761 21.3383 10.2661 19.1513C9.5101 17.1263 9.5641 15.4793 10.4011 14.6423L11.0221 14.0213L15.1531 18.1523L14.5591 19.0703C14.1541 19.6643 14.2351 20.4743 14.7481 20.9873L19.7701 26.0093C20.2831 26.5223 21.0931 26.6033 21.6871 26.1713L22.5511 25.5773L26.6821 29.7083L26.0611 30.3293ZM27.3841 28.9253L23.4421 24.9563C24.3871 24.3623 25.6021 24.4703 26.3851 25.2803L27.0601 25.9553C27.8701 26.7653 27.9781 28.0073 27.3841 28.9253Z" fill="white"/>
<path d="M26.5205 20.5552C26.5205 20.8522 26.7635 21.0952 27.0605 21.0952C27.3575 21.0952 27.6005 20.8522 27.6005 20.5552C27.6005 16.6942 24.4415 13.5352 20.5805 13.5352C20.2835 13.5352 20.0405 13.7782 20.0405 14.0752C20.0405 14.3722 20.2835 14.6152 20.5805 14.6152C23.8745 14.6152 26.5205 17.2612 26.5205 20.5552Z" fill="white"/>
<path d="M20.5805 10.2952C20.2835 10.2952 20.0405 10.5382 20.0405 10.8352C20.0405 11.1322 20.2835 11.3752 20.5805 11.3752C25.6295 11.3752 29.7605 15.5062 29.7605 20.5552C29.7605 20.8522 30.0035 21.0952 30.3005 21.0952C30.5975 21.0952 30.8405 20.8522 30.8405 20.5552C30.8405 14.8852 26.2505 10.2952 20.5805 10.2952Z" fill="white"/>
<defs>
<linearGradient id="paint0_linear" x1="0" y1="0" x2="40" y2="40" gradientUnits="userSpaceOnUse">
<stop stop-color="#9391FF"/>
<stop offset="1" stop-color="#504DFF"/>
</linearGradient>
</defs>
</svg>
