<svg width="40" height="40" viewBox="0 0 40 40" fill="none" xmlns="http://www.w3.org/2000/svg">
<path d="M31.1111 0H8.88889C3.97969 0 0 3.97969 0 8.88889V31.1111C0 36.0203 3.97969 40 8.88889 40H31.1111C36.0203 40 40 36.0203 40 31.1111V8.88889C40 3.97969 36.0203 0 31.1111 0Z" fill="url(#paint0_linear)"/>
<path fill-rule="evenodd" clip-rule="evenodd" d="M11.5962 27.708C11.4652 27.7073 11.3357 27.6805 11.2153 27.6292C10.8477 27.479 10.6086 27.1202 10.6113 26.7232V23.3484C9.35949 22.9184 8.51664 21.7436 8.51025 20.4201V13.0665C8.51025 11.3623 9.89184 9.98071 11.5962 9.98071H24.2022C25.0206 9.98071 25.8055 10.3058 26.3842 10.8845C26.9629 11.4633 27.288 12.2482 27.288 13.0665V17.3736H28.4042C30.1085 17.3736 31.49 18.7552 31.49 20.4595V29.0736C31.4829 29.6146 31.0462 30.0514 30.5052 30.0585V30.0191C30.3078 30.0229 30.1144 29.9631 29.9537 29.8484L26.8416 27.708H20.0002C18.2959 27.708 16.9143 26.3264 16.9143 24.6221V23.506H16.2052L12.2658 27.4454C12.0823 27.6121 11.844 27.7055 11.5962 27.708ZM26.3032 19.304H26.3043H28.4042C29.0206 19.304 29.5204 19.8036 29.5204 20.4201V27.1564L27.7083 25.909C27.5393 25.8013 27.3439 25.7422 27.1436 25.7383H20.0002C19.3837 25.7383 18.884 25.2385 18.884 24.6221V22.5222V22.5211V22.5201V20.4201C18.884 19.8036 19.3837 19.304 20.0002 19.304H26.3022H26.3032ZM15.7982 21.5363H16.9143V20.4201C16.9358 18.7312 18.3112 17.3735 20.0002 17.3736H25.3184V13.0665C25.3184 12.4501 24.8186 11.9504 24.2022 11.9504H11.5962C10.9797 11.9504 10.48 12.4501 10.48 13.0665V20.4201C10.48 21.0365 10.9797 21.5363 11.5962 21.5363C12.137 21.5433 12.5739 21.9802 12.5809 22.5211V24.3464L15.1022 21.8252C15.2867 21.6404 15.537 21.5365 15.7982 21.5363ZM20.394 22.5999C20.394 22.9625 20.688 23.2564 21.0507 23.2564H27.3537C27.7163 23.2564 28.0103 22.9625 28.0103 22.5999C28.0103 22.2373 27.7163 21.9433 27.3537 21.9433H21.0507C20.688 21.9433 20.394 22.2373 20.394 22.5999Z" fill="white"/>
<defs>
<linearGradient id="paint0_linear" x1="0" y1="0" x2="40" y2="40" gradientUnits="userSpaceOnUse">
<stop stop-color="#569AFF"/>
<stop offset="1" stop-color="#2B66FF"/>
</linearGradient>
</defs>
</svg>
