<svg width="1155" height="465" viewBox="0 0 1155 465" fill="none" xmlns="http://www.w3.org/2000/svg">
<g clip-path="url(#clip0)">
<path d="M245.789 163.375C244.956 163.688 243.081 164.939 241.623 166.19C239.019 168.38 239.019 168.484 239.332 184.227C239.436 192.985 239.748 200.179 240.061 200.179C240.269 200.179 241.727 199.658 243.289 199.136C245.685 198.198 245.893 198.302 244.852 199.554C244.227 200.283 242.248 201.222 240.582 201.43C238.29 201.743 237.457 201.43 236.832 199.762C236.416 198.511 235.687 210.188 235.166 225.723C234.645 241.153 234.02 254.499 233.812 255.124C233.083 257.209 228.605 256.688 226.522 254.394C225.064 252.726 223.293 252.309 218.815 252.309C213.399 252.309 212.774 252.622 210.691 255.75C209.337 257.522 208.296 258.46 208.296 257.731C208.296 257.105 207.879 256.479 207.358 256.479C206.942 256.479 206.213 267.114 205.796 280.147C204.13 338.741 202.88 366.578 201.943 367.517C201.214 368.246 200.381 367.829 199.339 366.474C197.777 364.389 197.777 364.389 195.798 366.995C194.652 368.455 193.715 370.749 193.715 372.104C193.715 375.023 192.049 373.981 191.424 370.644C191.215 369.393 189.549 368.038 186.945 367.099C184.654 366.265 182.363 364.91 181.946 364.18C180.905 362.512 174.656 363.346 171.115 365.536C167.991 367.517 165.179 367.412 166.012 365.431C166.324 364.597 166.116 363.867 165.491 363.867C164.866 363.867 164.762 363.346 165.179 362.721C166.116 361.261 159.763 355.527 157.159 355.527C155.909 355.527 155.18 354.797 155.18 353.441C155.18 350.418 153.097 350.939 149.869 354.693L146.953 358.133L146.849 352.607C146.849 347.29 146.953 347.082 149.244 347.707L151.535 348.333L149.244 346.352C147.161 344.475 147.057 343.432 146.953 327.272C146.849 317.889 146.432 309.861 146.015 309.548C145.599 309.131 140.391 308.297 134.351 307.671C121.645 306.316 119.458 304.856 117.271 296.515C115.917 291.719 115.812 291.615 115.083 294.222C114.042 298.079 112.584 297.871 111.751 294.013C111.23 291.302 110.813 290.99 108.939 291.511C105.398 292.658 102.065 295.16 102.065 296.724C102.065 297.558 101.544 298.184 100.919 298.184C100.294 298.184 99.982 298.809 100.294 299.539C100.607 300.269 99.8778 301.52 98.8363 302.25C96.2326 303.814 94.8787 307.463 94.2538 314.031C93.6289 321.746 92.6916 321.434 92.6916 313.51C92.6916 309.548 92.275 306.524 91.6501 306.524C91.0252 306.524 90.6087 310.799 90.6087 317.159C90.6087 326.334 90.2962 328.106 88.5257 329.983C86.9635 331.651 86.4427 333.736 86.3386 339.679C86.2344 346.039 85.8179 347.499 84.0473 348.75C82.2768 350.001 82.1727 350.522 83.3183 351.878C85.922 355.005 83.5266 354.484 80.298 351.148C77.7985 348.645 77.0694 348.228 77.0694 349.688C77.0694 350.626 76.4445 351.356 75.6114 351.148C72.2786 350.522 73.6325 352.816 77.0694 353.858C80.1939 354.693 80.4022 354.901 78.3192 355.318C74.8823 355.839 75.5072 357.299 79.8814 358.759C82.0685 359.384 84.1515 360.531 84.5681 361.052C85.6096 362.825 84.3598 363.972 82.2768 363.346C81.2353 363.033 80.0897 363.242 79.6731 363.867C79.1524 364.701 78.5275 364.493 77.6943 363.346C76.3404 361.365 66.6546 360.218 66.6546 361.886C66.6546 362.408 65.6132 363.346 64.3634 363.867L61.968 364.806L64.2592 365.536C65.6132 365.848 66.6546 366.682 66.6546 367.412C66.6546 368.038 66.9671 369.602 67.2795 370.853C67.8003 372.729 67.4878 373.251 66.0298 373.251C62.697 373.251 60.8224 371.583 62.2804 369.914C63.2178 368.663 62.5929 368.455 58.5311 368.455L53.6362 368.559L53.532 363.555C53.3237 357.612 56.2399 346.039 53.532 347.707C51.5532 348.958 48.2205 360.01 50.0951 361.886C52.2822 364.076 52.6988 366.995 50.9283 366.995C50.3034 366.995 50.0951 367.725 50.4076 368.663C50.8242 369.914 50.6159 370.227 49.4702 369.706C47.8039 369.08 46.8665 371.895 47.179 376.379C47.3873 378.985 47.2831 378.985 38.743 378.985C30.5153 378.985 27.8075 378.36 30.2029 376.9C32.0775 375.753 31.2444 374.293 28.6407 374.293C26.4536 374.293 26.037 374.815 26.037 377.421C26.037 380.028 25.6204 380.549 23.5374 380.549C22.0793 380.549 20.6213 381.07 20.2047 381.8C19.6839 382.53 18.9549 381.487 18.1217 378.881C17.4968 376.691 16.872 375.649 16.7678 376.796C16.6637 378.464 16.1429 378.255 13.3309 375.44C10.4148 372.625 9.7899 372.312 8.85257 373.668C7.81109 374.919 7.49865 374.919 6.45717 373.147C4.47836 370.019 1.45807 370.644 0.624887 374.398C0.312444 376.17 0 469.379 0 581.354V785.078H666.546H1333.09V524.115C1333.09 380.653 1332.68 262.631 1332.26 261.901C1331.53 260.858 1330.7 260.858 1327.78 262.11C1321.32 264.716 1302.89 265.967 1266.13 266.176C1232.07 266.384 1229.78 266.28 1228.84 264.508C1228.22 263.465 1226.55 262.214 1225.2 261.693C1223.01 260.858 1222.7 260.024 1222.7 255.541V250.432L1217.49 249.181C1213.11 248.139 1212.18 247.513 1211.66 245.115C1211.34 243.656 1210.51 241.258 1209.89 240.006C1208.95 237.921 1209.05 237.4 1210.51 236.462C1212.28 235.523 1212.28 235.315 1210.51 232.395C1209.57 230.727 1207.91 229.372 1206.87 229.372C1204.26 229.372 1204.47 226.14 1207.07 225.514C1208.22 225.202 1209.16 224.576 1209.16 224.159C1209.16 223.742 1208.22 223.116 1207.07 222.803C1204.68 222.178 1204.26 218.946 1206.55 218.946C1207.39 218.946 1208.12 218.216 1208.12 217.382C1208.12 216.548 1207.39 215.818 1206.55 215.818C1205.3 215.818 1204.99 214.358 1204.99 208.728C1204.99 198.198 1203.32 197.26 1202.39 207.373C1201.97 211.96 1201.45 215.818 1201.14 215.818C1200.83 215.818 1198.74 215.297 1196.55 214.671C1193.43 213.629 1192.18 213.733 1190.93 214.776C1188.95 216.444 1189.16 222.491 1191.24 222.699C1191.87 222.804 1193.22 222.908 1194.06 223.012C1194.89 223.012 1195.62 223.846 1195.62 224.68C1195.62 225.723 1194.58 226.244 1192.39 226.244C1188.85 226.244 1188.54 228.746 1192.08 228.955C1196.87 229.163 1197.7 229.476 1197.7 231.04C1197.7 232.395 1196.87 232.604 1194.06 232.291C1191.24 231.978 1190.41 232.291 1190.41 233.542C1190.41 234.689 1191.24 235.21 1192.81 235.21C1194.16 235.106 1195.1 235.732 1195.1 236.67C1195.1 237.608 1194.06 238.234 1192.49 238.234C1190.1 238.234 1189.89 238.755 1189.58 243.134C1189.26 247.2 1188.95 248.034 1186.97 248.347C1185.52 248.556 1184.58 249.494 1184.37 251.058C1184.16 252.309 1183.12 253.873 1182.08 254.394C1180.93 255.02 1179.68 257.001 1179.16 258.878C1178.54 261.484 1177.7 262.318 1175.41 262.527C1173.85 262.735 1172.29 263.569 1172.08 264.299C1171.77 265.029 1169.68 266.071 1167.39 266.384C1162.19 267.323 1161.04 269.825 1162.5 276.81C1164.06 284.213 1163.23 342.181 1161.46 344.266C1160.52 345.518 1160.42 346.664 1161.25 348.645C1161.87 350.522 1161.98 352.19 1161.25 353.337C1160.62 354.588 1160.73 355.631 1161.46 356.361C1162.5 357.403 1162.29 361.574 1160.73 368.559C1160.42 370.227 1159.89 372.729 1159.58 373.981C1159.37 375.336 1158.44 376.379 1157.6 376.379C1155.42 376.379 1155.62 378.464 1157.92 378.464C1158.96 378.568 1158.12 379.402 1155.83 380.549C1152.71 382.217 1151.46 382.426 1148.86 381.487C1145.21 380.236 1144.69 378.881 1144.38 369.602C1144.06 363.659 1143.96 363.346 1141.25 363.033C1138.96 362.721 1138.34 362.095 1138.34 360.114C1138.34 356.048 1134.48 355.318 1113.34 355.11C1102.72 354.901 1092.82 354.484 1091.16 354.067C1089.39 353.546 1087.82 353.65 1086.78 354.484C1085.95 355.214 1083.87 355.527 1082.1 355.318C1079.18 354.901 1078.97 355.11 1078.35 359.488C1077.83 362.825 1077.1 364.284 1075.33 364.91C1072.83 365.848 1071.68 369.497 1071.68 377.004C1071.68 384.928 1069.29 388.16 1064.18 387.013C1063.14 386.805 1062.31 385.971 1062.31 385.032C1062.31 384.198 1061.68 383.781 1061.06 384.094C1060.33 384.302 1057.83 385.136 1055.54 385.866C1053.25 386.596 1050.54 387.847 1049.5 388.681C1047.42 390.558 1038.35 391.288 1038.67 389.62C1038.77 388.994 1038.04 388.473 1037 388.369C1035.96 388.369 1034.71 387.639 1034.19 386.805C1033.36 385.553 1033.15 385.553 1033.04 387.326C1032.31 395.458 1031.27 371.791 1031.17 346.977L1031.06 317.159L1026.79 307.984C1022.84 299.33 1022.52 297.975 1022 286.506C1021.69 279.729 1021.07 274.517 1020.65 274.725C1020.23 274.934 1019.4 279.938 1018.57 285.777L1017.21 296.307L1009.82 295.577C1005.76 295.16 1002.11 294.639 1001.8 294.43C1001.38 294.222 1000.76 289.321 1000.34 283.587C999.507 271.597 997.737 268.574 997.737 279C997.737 289.217 995.758 298.809 992.008 307.046C988.78 314.135 988.676 315.282 987.738 333.111C987.218 343.432 986.905 356.465 987.009 361.991C987.218 371.478 987.114 372.208 985.239 372.208C984.093 372.208 982.323 371.166 981.177 370.019C979.823 368.559 978.365 367.934 977.011 368.351C975.553 368.663 974.824 368.351 974.824 367.412C974.824 365.64 971.596 363.867 968.159 363.867C965.972 363.867 965.451 363.346 965.451 361.365C965.451 359.906 964.93 358.446 964.305 358.029C962.847 357.195 961.285 359.488 961.285 362.512C961.285 364.284 960.66 364.91 958.994 364.91C957.431 364.91 955.765 366.161 954.203 368.559C952.953 370.54 951.287 372.208 950.454 372.208C949.516 372.208 948.891 374.71 948.371 381.175C947.642 391.601 946.183 395.562 945.038 390.349C944.413 387.222 943.996 387.013 938.789 386.283C935.769 385.971 932.123 384.719 930.561 383.468C927.749 381.279 927.645 381.279 917.022 383.781C914.21 384.407 909.836 385.032 907.44 385.032C903.587 385.136 902.962 385.553 902.441 387.951C901.816 390.558 901.504 390.662 892.235 391.392C884.632 391.913 882.341 392.435 881.091 393.999C880.258 395.041 878.383 396.501 877.029 397.231C875.259 398.169 874.946 398.795 875.779 399.629C877.446 401.297 877.238 406.614 875.571 406.614C874.842 406.614 873.28 405.884 872.134 405.05C871.093 404.216 868.593 403.486 866.823 403.486C864.115 403.486 863.282 402.965 862.865 401.088C862.136 397.856 859.22 380.236 859.22 379.089C859.22 376.17 857.97 380.236 856.512 387.847C855.679 392.747 854.533 397.126 854.221 397.752C853.804 398.273 853.492 399.212 853.492 399.837C853.179 402.652 851.409 404.425 848.284 404.946C846.306 405.363 844.223 406.406 843.702 407.448C842.869 408.699 842.556 406.406 842.556 399.316V389.411L838.807 387.534C836.828 386.596 834.224 385.762 833.079 385.762C831.933 385.762 831.308 385.345 831.621 384.719C832.037 384.094 830.371 383.677 827.559 383.677H822.768V376.9V370.123H817.665C814.853 370.123 811.416 369.706 810.062 369.185C807.979 368.351 798.502 369.497 796.835 370.749C796.627 370.957 796.211 373.772 795.794 377.108L795.169 383.156L790.795 383.468L786.316 383.781V358.863C786.316 345.205 786.004 331.13 785.692 327.689L784.963 321.329L770.59 320.599C756.738 319.87 756.114 319.765 756.009 317.68V315.386L754.864 317.576C754.135 319.244 752.156 320.182 747.678 321.017L741.533 322.268V338.741V355.318L737.992 355.944C735.18 356.465 734.034 357.508 732.264 361.052C730.597 364.493 729.243 365.64 726.223 366.474L722.266 367.621L721.536 380.549C721.12 387.743 720.495 394.207 720.183 394.937C719.558 396.709 710.601 396.188 697.895 393.686C688.105 391.705 686.335 390.767 687.064 387.847C687.376 386.7 686.959 384.719 686.022 383.364C684.876 381.487 684.668 379.819 685.293 376.274C685.814 373.668 685.814 371.27 685.293 370.749C683.939 369.393 683.523 371.374 682.794 380.862C682.064 390.037 680.919 393.06 678.003 393.06C676.128 393.06 675.92 392.122 675.711 380.34L675.399 367.621L672.275 366.787C670.608 366.265 665.713 365.744 661.651 365.744L654.049 365.536V360.635C654.049 355.944 653.84 355.631 651.237 355.318C648.425 355.005 648.32 354.693 647.8 347.707L647.175 340.409L646.758 347.707C646.238 354.693 646.133 355.005 643.53 355.318L640.822 355.631L640.197 371.374C639.78 380.028 639.468 390.558 639.468 394.728C639.468 400.567 639.156 402.339 637.802 402.861C636.864 403.173 635.719 403.278 635.198 402.861C634.677 402.548 634.261 388.369 634.261 370.227V338.115L630.095 337.385C625.929 336.76 625.929 336.76 625.825 331.755C625.616 322.163 625.304 321.746 616.035 320.599C608.536 319.661 607.703 319.348 607.078 316.95L606.349 314.344L606.245 317.159L606.141 320.078H597.913C585.832 320.078 585.936 319.765 584.374 345.935C583.853 354.171 583.124 361.157 582.812 361.469C582.499 361.886 582.187 354.171 582.187 344.371V326.542L578.958 325.917C577.188 325.604 574.584 325.291 573.334 325.291C572.084 325.291 570.418 324.561 569.689 323.727C568.647 322.58 565.94 322.163 558.128 322.163C552.4 322.163 546.985 322.58 545.943 323.206C545.006 323.727 541.881 324.561 538.965 325.083C534.279 325.812 533.758 326.125 533.445 328.732C533.237 330.296 532.508 331.547 531.883 331.547C527.821 331.651 527.509 333.111 526.884 353.129L526.363 372.73L526.155 350.209L525.947 327.585L522.927 326.438C519.594 324.978 483.975 325.187 482.517 326.647C481.788 327.481 480.538 351.565 480.226 371.374C480.122 378.255 480.018 378.464 477.414 378.464C475.956 378.464 473.352 377.525 471.686 376.274C470.019 375.128 467.936 374.293 467.207 374.606C465.645 375.232 464.5 371.27 464.5 365.327C464.5 362.408 464.083 361.782 462.208 361.782C457.626 361.678 452.627 358.342 451.898 355.005L451.169 351.878L450.96 355.005C450.856 357.612 450.648 357.82 450.023 356.152C449.294 354.171 449.19 354.171 448.669 356.361C448.044 358.55 447.419 358.654 438.983 358.654C430.964 358.654 429.922 358.446 429.402 356.673C428.881 354.797 428.152 354.588 415.342 352.712L411.384 352.19V325.812V299.435L407.531 298.809C405.344 298.392 402.115 298.079 400.344 298.079C397.532 298.184 395.762 296.828 388.68 289.321C384.097 284.421 380.036 279.417 379.827 278.166C379.411 275.976 379.411 275.976 379.202 277.957C379.202 279.208 377.953 280.668 376.495 281.293C374.099 282.44 373.891 282.962 373.891 290.051C373.891 296.515 373.578 297.871 371.808 299.018C369.829 300.164 369.725 301.416 369.725 316.325V332.277L358.685 332.172C348.583 332.068 347.541 332.277 345.875 334.362C344.834 335.509 342.855 336.76 341.501 336.968C339.314 337.281 338.897 337.907 338.481 342.494L337.96 347.707H331.815C326.087 347.811 325.358 348.124 322.338 351.669C320.567 353.754 317.859 355.944 316.297 356.465C313.693 357.508 313.485 357.925 313.485 364.284C313.485 371.583 312.86 372.104 305.674 372.208C298.384 372.312 297.863 372.834 297.863 380.758C297.863 387.326 297.759 387.847 296.197 386.388C295.363 385.449 294.114 384.719 293.593 384.719C293.072 384.719 292.656 373.981 292.656 358.654C292.656 339.471 292.343 332.589 291.406 332.589C290.781 332.589 289.531 331.86 288.594 330.921C287.656 329.983 283.699 327.481 279.637 325.395L272.347 321.538L272.034 289.53L271.826 257.522L269.431 257.001C268.181 256.688 265.265 256.062 262.973 255.645L258.807 254.811V240.319C258.807 232.291 259.224 219.363 259.641 211.648C260.161 202.994 260.057 198.094 259.432 199.032C257.662 201.639 255.891 196.321 256.725 190.9C258.078 182.663 257.454 170.569 255.683 169.318C254.537 168.484 254.537 167.858 255.371 167.024C256.204 166.19 255.891 165.565 254.017 164.939C249.538 163.167 247.351 162.854 245.789 163.375ZM246.83 169.318C246.83 170.465 244.852 170.882 244.227 169.944C243.914 169.422 244.331 168.901 245.164 168.901C246.101 168.901 246.83 169.11 246.83 169.318ZM248.705 180.057C250.163 181.308 250.163 181.412 248.601 181.412C246.518 181.412 246.206 183.08 248.184 183.81C248.809 184.123 247.664 184.436 245.581 184.436C242.144 184.54 241.623 184.227 241.623 182.142C241.623 180.891 242.04 179.327 242.456 178.701C243.602 177.033 246.206 176.304 246.726 177.659C246.935 178.284 247.768 179.431 248.705 180.057ZM246.83 187.772C246.83 188.919 244.018 189.023 243.289 187.772C242.977 187.355 242.977 186.625 243.289 186.312C244.123 185.478 246.83 186.625 246.83 187.772ZM245.372 193.402C245.268 196.739 242.352 196.426 242.144 193.089C242.04 191.525 242.56 190.796 243.81 190.796C245.06 190.796 245.477 191.526 245.372 193.402ZM1197.49 218.216C1197.8 219.571 1197.08 219.989 1194.68 219.989C1190.72 219.989 1189.58 218.216 1192.7 216.965C1195.72 215.714 1197.08 216.027 1197.49 218.216ZM1201.66 220.718C1201.14 223.325 1198.74 223.638 1198.74 221.135C1198.74 219.884 1199.37 218.946 1200.41 218.946C1201.35 218.946 1201.87 219.676 1201.66 220.718ZM1201.45 226.244C1202.28 226.244 1202.6 226.87 1202.28 227.808C1201.35 229.997 1199.47 229.789 1197.8 227.182C1196.66 225.201 1196.66 224.993 1198.22 225.619C1199.16 225.931 1200.62 226.244 1201.45 226.244ZM1201.35 235.628C1200.82 236.462 1200.2 236.462 1199.58 235.836C1198.95 235.21 1198.85 234.168 1199.26 233.542C1199.78 232.708 1200.41 232.708 1201.03 233.334C1201.66 233.959 1201.76 235.002 1201.35 235.628ZM1194.89 243.447C1194.58 244.281 1193.95 245.011 1193.43 245.011C1192.39 245.011 1192.18 242.509 1193.12 241.57C1194.26 240.423 1195.62 241.883 1194.89 243.447ZM1291.85 274.412C1298.93 274.829 1299.14 276.915 1292.27 278.061C1287.16 278.895 1286.75 279.104 1286.43 282.023C1285.71 289.738 1285.71 289.843 1279.14 289.843C1269.46 289.843 1269.67 289.321 1269.35 312.988C1269.15 325.917 1268.63 333.945 1267.9 334.675C1267.27 335.3 1260.61 336.447 1253 337.281C1245.5 338.115 1237.59 339.053 1235.4 339.366C1228.22 340.409 1228.42 341.347 1228.42 307.046C1228.42 280.772 1228.63 276.08 1229.99 275.246C1230.82 274.621 1242.9 274.204 1257.27 274.204C1274.04 274.204 1283.21 273.787 1283.62 273.161C1284.14 272.431 1284.77 272.327 1285.6 273.057C1286.23 273.578 1289.14 274.204 1291.85 274.412ZM147.578 361.991C147.265 362.825 146.953 362.512 146.953 361.365C146.849 360.218 147.161 359.593 147.473 360.01C147.786 360.323 147.89 361.261 147.578 361.991ZM77.0694 367.621C77.0694 368.872 76.3404 369.185 74.4657 368.872C72.6952 368.455 71.862 368.768 71.862 369.81C71.862 371.478 69.6749 371.27 69.5708 369.602C69.4666 368.455 73.7367 365.953 75.8197 365.953C76.4445 365.953 77.0694 366.682 77.0694 367.621ZM76.2363 372.417C75.5072 373.147 74.9865 373.251 74.9865 372.625C74.9865 371.166 76.2362 369.914 76.9653 370.644C77.1736 370.957 76.8611 371.791 76.2363 372.417ZM80.9229 372.417C80.6105 373.251 80.298 372.938 80.298 371.791C80.1939 370.644 80.5063 370.019 80.8187 370.436C81.1312 370.749 81.2353 371.687 80.9229 372.417ZM72.5911 372.834C72.2786 373.147 71.3413 373.251 70.6123 372.938C69.7791 372.625 70.0915 372.312 71.2372 372.312C72.3828 372.208 73.0077 372.521 72.5911 372.834ZM793.711 399.524C792.878 402.652 792.774 402.339 792.669 396.084C792.565 392.33 792.878 388.89 793.398 388.473C794.544 387.222 794.857 395.562 793.711 399.524ZM1056.06 388.89C1053.98 390.245 1051.58 390.245 1052.41 388.89C1052.73 388.264 1054.08 387.847 1055.33 387.847C1057.21 387.847 1057.31 388.056 1056.06 388.89Z" fill="black"/>
<g clip-path="url(#clip1)">
<path d="M48.1677 6.19421L48.0178 20.779L44.7705 20.8289L41.5232 20.8789L41.2734 23.626L41.0236 26.3232L31.0319 28.7207C5.20343 34.9142 -2.14046 36.7123 -4.53846 37.4116L-7.18626 38.1609V208.433C-7.18626 359.475 -7.28618 378.755 -7.93564 378.755C-8.5851 378.755 -8.68501 372.212 -8.68501 322.864V267.022L-12.282 266.073L-15.8291 265.124L-15.7791 261.777V258.431L-19.0764 256.583C-20.9248 255.534 -24.2221 252.987 -26.4203 250.889C-28.6184 248.791 -31.6659 246.044 -33.2146 244.745L-36.0123 242.398H-54.4469H-72.8816L-75.6293 244.196C-77.1281 245.195 -81.9241 248.491 -86.2205 251.538L-94.1139 257.032V259.68V262.277L-98.6102 262.676L-103.106 263.026V341.344C-103.106 410.672 -103.007 419.713 -102.357 419.713C-101.957 419.713 -101.608 420.062 -101.608 420.462C-101.608 421.111 -65.8375 421.211 217.427 421.211H536.461L536.162 419.313C536.012 418.314 535.612 415.217 535.312 412.47C535.013 409.723 534.563 407.226 534.313 406.926C534.063 406.626 533.814 402.83 533.764 398.435L533.614 390.493L528.118 387.646C525.121 386.098 522.573 384.499 522.473 384.05C522.323 383.35 519.575 383.251 496.744 383.151L471.166 383.001L471.066 329.806C470.916 279.509 470.866 276.612 470.067 276.262C469.567 276.062 460.874 273.415 450.683 270.318C440.541 267.272 431.898 264.525 431.549 264.275C431.149 263.875 429.4 263.925 426.053 264.275C423.405 264.574 407.369 265.973 390.483 267.372C373.597 268.82 359.459 270.069 359.159 270.169C358.659 270.318 358.509 284.404 358.509 338.547V406.726H357.26H356.012V369.615V332.553L350.266 326.809C347.119 323.663 344.521 320.816 344.521 320.466C344.521 319.967 342.623 319.817 336.528 319.817H328.534V294.044V268.321L326.936 267.671C326.036 267.272 323.988 266.722 322.439 266.373L319.592 265.723L319.442 262.926L319.292 260.179L315.545 258.031C313.497 256.882 310.899 254.935 309.8 253.686C308.701 252.487 305.953 249.89 303.655 247.942L299.509 244.396H289.767H280.075L279.975 141.153L279.825 37.9111L276.078 37.0121C268.784 35.2639 224.821 25.0246 221.623 24.3752C219.625 23.9257 218.276 23.8258 218.126 24.1255C217.926 24.4252 216.128 25.0745 214.08 25.574C212.031 26.1234 200.941 29.0204 189.4 32.0672C177.86 35.0641 168.018 37.7113 167.568 37.8611C166.719 38.2108 166.669 42.806 166.669 124.371C166.669 206.235 166.619 210.531 165.82 210.181C165.32 209.981 163.821 209.532 162.473 209.132C161.124 208.783 159.825 208.283 159.625 208.083C159.425 207.884 156.627 201.59 153.43 194.198C150.233 186.756 146.985 179.264 146.186 177.565L144.837 174.369L142.989 179.813C141.99 182.76 139.192 190.552 136.794 197.145L132.398 209.082L127.002 210.681C124.055 211.58 121.507 212.479 121.307 212.679C121.107 212.878 120.907 219.272 120.807 226.914L120.657 240.849L117.96 241.648C116.361 242.098 115.012 242.847 114.712 243.397C114.413 243.996 114.213 253.236 114.213 269.32C114.213 285.203 114.013 294.343 113.713 294.343C113.463 294.343 112.015 293.794 110.466 293.145L107.718 291.896V164.879V37.8611L84.1378 32.4168C71.1486 29.42 59.5582 26.7228 58.4092 26.4731C56.3109 25.9736 56.3109 25.9736 56.161 23.4262L56.0112 20.8789L53.4133 20.729L50.7655 20.5792V6.09433V-8.34061H49.5166H48.2676L48.1677 6.19421Z" fill="black"/>
</g>
</g>
<defs>
<clipPath id="clip0">
<rect width="1155" height="465" fill="white"/>
</clipPath>
<clipPath id="clip1">
<rect width="536" height="429" fill="white" transform="translate(0 -8)"/>
</clipPath>
</defs>
</svg>
