<svg width="485" height="561" viewBox="0 0 485 561" fill="none" xmlns="http://www.w3.org/2000/svg">
<path d="M357.25 0C357.25 0 79.3001 0 51.2501 0C23.2001 0 0.250063 22.95 0.250063 51C0.250063 79.05 0.25 383.5 0.250063 408C0.250125 432.5 26.5 462.5 51.2501 462.5C76.0001 462.5 140.5 462.5 140.5 462.5V408H51.2501V51H357.25V0ZM433.75 102H153.25C125.2 102 102.25 124.95 102.25 153V510C102.25 538.05 125.2 561 153.25 561H433.75C461.8 561 484.75 538.05 484.75 510V153C484.75 124.95 461.8 102 433.75 102ZM433.75 510H153.25V153H433.75V510Z" fill="black"/>
</svg>
