<svg width="24" height="32" viewBox="0 0 24 32" fill="none" xmlns="http://www.w3.org/2000/svg">
<path d="M12 0C8.81858 0.0039 5.76854 1.30182 3.51892 3.60904C1.26932 5.91628 0.00382 9.04442 0 12.3073C0 20.1126 10.6968 31.172 11.1504 31.6396C11.3754 31.8704 11.6806 32 11.9988 32C12.317 32 12.6222 31.8704 12.8472 31.6396C13.3008 31.172 24 20.1126 24 12.3073C23.9962 9.04442 22.7306 5.91628 20.481 3.60904C18.2314 1.30182 15.1814 0.0039 12 0ZM12 7.99976C12.8307 7.99976 13.6427 8.2524 14.3334 8.72572C15.024 9.19904 15.5624 9.87178 15.8802 10.6589C16.1982 11.446 16.2814 12.3121 16.1194 13.1477C15.9572 13.9833 15.5572 14.7508 14.9698 15.3532C14.3824 15.9556 13.6341 16.3659 12.8194 16.5321C12.0047 16.6983 11.1602 16.613 10.3927 16.287C9.62528 15.961 8.96932 15.4088 8.50782 14.7005C8.04632 13.9921 7.8 13.1593 7.8 12.3073C7.80064 11.1646 8.24318 10.0689 9.03056 9.2604C9.81794 8.45192 10.8858 7.9968 12 7.99484V7.99976Z" fill="#605E5E"/>
</svg>
