<svg width="61" height="61" viewBox="0 0 61 61" fill="none" xmlns="http://www.w3.org/2000/svg">
<circle cx="30.5" cy="30.5" r="30.5" fill="#E9FBFF"/>
<path d="M25.1868 27.8185L21.026 23.6578L19.4496 25.2342C19.3648 25.3177 19.2584 25.3759 19.1424 25.4022C19.0264 25.4286 18.9053 25.4221 18.7928 25.3835C18.6803 25.3448 18.5807 25.2756 18.5053 25.1835C18.43 25.0915 18.3818 24.9802 18.3661 24.8623L17.4552 18.1674C17.4406 18.0703 17.4491 17.9711 17.4798 17.8778C17.5106 17.7846 17.5628 17.6998 17.6323 17.6304C17.7018 17.561 17.7866 17.5089 17.8799 17.4782C17.9732 17.4475 18.0724 17.4392 18.1695 17.4538L24.8912 18.34C25.0083 18.357 25.1185 18.406 25.2096 18.4817C25.3006 18.5574 25.369 18.6567 25.4072 18.7688C25.4454 18.8809 25.4519 19.0013 25.426 19.1168C25.4001 19.2323 25.3427 19.3385 25.2603 19.4235L23.6846 20.9992L27.8453 25.16C27.8978 25.2087 27.9396 25.2678 27.9682 25.3334C27.9968 25.3991 28.0115 25.4699 28.0115 25.5415C28.0115 25.6131 27.9968 25.684 27.9682 25.7496C27.9396 25.8153 27.8978 25.8743 27.8453 25.9231L25.9499 27.8185C25.8456 27.9136 25.7095 27.9663 25.5683 27.9663C25.4272 27.9663 25.2911 27.9136 25.1868 27.8185ZM42.8191 43.5513L36.1222 42.6404C36.005 42.6233 35.8948 42.5743 35.8038 42.4986C35.7127 42.423 35.6443 42.3236 35.6061 42.2115C35.5679 42.0995 35.5614 41.979 35.5873 41.8635C35.6133 41.748 35.6706 41.6419 35.753 41.5569L37.3287 39.9811L33.168 35.8204C33.1155 35.7716 33.0737 35.7125 33.0451 35.6469C33.0165 35.5812 33.0018 35.5104 33.0018 35.4388C33.0018 35.3672 33.0165 35.2963 33.0451 35.2307C33.0737 35.165 33.1155 35.106 33.168 35.0572L35.0641 33.1611C35.1129 33.1087 35.1719 33.0669 35.2376 33.0383C35.3032 33.0097 35.3741 32.9949 35.4457 32.9949C35.5173 32.9949 35.5881 33.0097 35.6538 33.0383C35.7194 33.0669 35.7785 33.1087 35.8272 33.1611L39.9873 37.3219L41.563 35.7461C41.6476 35.6627 41.7538 35.6045 41.8696 35.578C41.9854 35.5515 42.1063 35.5578 42.2188 35.5961C42.3313 35.6344 42.4308 35.7033 42.5064 35.795C42.5819 35.8867 42.6305 35.9976 42.6465 36.1153L43.5575 42.8122C43.5677 42.9117 43.5556 43.0123 43.5221 43.1065C43.4886 43.2008 43.4346 43.2864 43.3639 43.3572C43.2932 43.428 43.2076 43.4821 43.1134 43.5157C43.0191 43.5492 42.9186 43.5614 42.8191 43.5513Z" fill="#87BBFD"/>
<path d="M35.8135 27.8188L39.9743 23.658L41.55 25.2338C41.6346 25.3172 41.7408 25.3754 41.8566 25.4019C41.9724 25.4284 42.0933 25.4221 42.2058 25.3838C42.3182 25.3455 42.4178 25.2766 42.4934 25.1849C42.5689 25.0932 42.6174 24.9823 42.6335 24.8646L43.5445 18.1676C43.5591 18.0704 43.5508 17.9712 43.52 17.8778C43.4893 17.7845 43.4371 17.6996 43.3676 17.6301C43.2981 17.5606 43.2133 17.5084 43.1199 17.4777C43.0266 17.447 42.9273 17.4387 42.8301 17.4533L36.1091 18.3402C35.992 18.3572 35.8818 18.4063 35.7907 18.4819C35.6997 18.5576 35.6313 18.6569 35.5931 18.769C35.5549 18.8811 35.5484 19.0015 35.5743 19.117C35.6002 19.2326 35.6576 19.3387 35.74 19.4237L37.3157 20.9994L33.155 25.1602C33.1025 25.209 33.0607 25.268 33.0321 25.3337C33.0035 25.3993 32.9888 25.4701 32.9888 25.5418C32.9888 25.6134 33.0035 25.6842 33.0321 25.7498C33.0607 25.8155 33.1025 25.8745 33.155 25.9233L35.0504 27.8188C35.1547 27.9138 35.2908 27.9665 35.432 27.9665C35.5731 27.9665 35.7092 27.9138 35.8135 27.8188Z" fill="#6772E5"/>
<path d="M18.1806 43.5515L24.8775 42.6406C24.9947 42.6235 25.1049 42.5745 25.1959 42.4988C25.287 42.4232 25.3554 42.3238 25.3936 42.2117C25.4317 42.0997 25.4382 41.9792 25.4123 41.8637C25.3864 41.7482 25.3291 41.6421 25.2467 41.5571L23.671 39.9813L27.8317 35.8206C27.8841 35.7718 27.9259 35.7127 27.9545 35.6471C27.9831 35.5814 27.9979 35.5106 27.9979 35.439C27.9979 35.3674 27.9831 35.2965 27.9545 35.2309C27.9259 35.1652 27.8841 35.1062 27.8317 35.0574L25.9356 33.1613C25.8868 33.1089 25.8278 33.0671 25.7621 33.0385C25.6965 33.0099 25.6256 32.9951 25.554 32.9951C25.4824 32.9951 25.4116 33.0099 25.3459 33.0385C25.2803 33.0671 25.2212 33.1089 25.1725 33.1613L21.0124 37.3221L19.436 35.7463C19.3513 35.6629 19.2452 35.6047 19.1294 35.5782C19.0136 35.5517 18.8926 35.558 18.7802 35.5963C18.6677 35.6346 18.5682 35.7035 18.4926 35.7952C18.4171 35.8869 18.3685 35.9978 18.3525 36.1155L17.4415 42.8124C17.4313 42.912 17.4434 43.0126 17.4769 43.1069C17.5104 43.2012 17.5645 43.2869 17.6353 43.3577C17.7061 43.4285 17.7918 43.4826 17.8861 43.5161C17.9804 43.5496 18.081 43.5617 18.1806 43.5515Z" fill="#6772E5"/>
<path d="M30.4999 33.617C32.2176 33.617 33.6101 32.2245 33.6101 30.5067C33.6101 28.789 32.2176 27.3965 30.4999 27.3965C28.7822 27.3965 27.3896 28.789 27.3896 30.5067C27.3896 32.2245 28.7822 33.617 30.4999 33.617Z" fill="white"/>
</svg>
