<svg width="76" height="76" viewBox="0 0 76 76" fill="none" xmlns="http://www.w3.org/2000/svg">
<rect width="76" height="76" rx="24" fill="#DFECFD"/>
<path d="M46.9333 51.7195C43.2428 50.0042 40.1241 48.4968 39.9681 48.3409C39.1365 47.5092 37.6291 48.2369 35.7578 50.42C34.4064 51.9794 33.4188 52.7591 32.899 52.5512C32.0673 52.2393 30.7679 46.9375 30.7679 46.9375L30.3831 46.3322L29.9051 45.3763L29.2085 44.5984C28.8446 44.1306 26.1417 42.5712 23.1789 41.1158C18.8127 38.9327 17.6172 38.101 17.2014 36.9575C16.8375 35.814 16.9415 35.3462 17.7212 34.5145C19.1246 33.1631 53.1707 21 55.6657 21C56.2895 21 57.381 21.4158 57.9528 21.9356C59.0963 22.8193 59.0963 23.0792 59.0444 36.9575C59.0444 44.7543 58.8884 51.5636 58.6805 52.0314C58.0568 53.7987 56.8093 54.7863 55.1979 54.7863C54.3143 54.7863 50.5718 53.3828 46.9333 51.7195Z" fill="#2D79F6"/>
<path d="M35.1622 50.6341C35.2621 50.6476 33.7283 52.068 33.7283 52.068L32.7724 51.5901L31.5473 49.0687L30.3826 46.3324C30.3826 46.3324 29.9046 44.8985 28.4707 43.9228L49.5012 28.1696C50.3222 27.8087 50.4572 27.6915 50.9354 28.1212C51.6047 28.723 42.8787 38.1531 42.8787 38.1531C42.8787 38.1531 38.6164 42.7793 37.6808 43.9228C36.1215 45.898 36.0695 46.1579 36.8492 46.7297C37.317 47.0935 37.7328 47.6133 37.7328 47.8732C37.7328 48.7568 35.1622 50.6341 35.1622 50.6341Z" fill="url(#paint0_linear)"/>
<path d="M34.6846 51.5895L39.4642 47.7659L36.1188 45.854C34.6846 47.2879 34.6846 51.5895 34.6846 51.5895Z" fill="url(#paint1_linear)"/>
<defs>
<linearGradient id="paint0_linear" x1="37.5521" y1="37.729" x2="33.7283" y2="52.5459" gradientUnits="userSpaceOnUse">
<stop stop-color="#265AC3"/>
<stop offset="1" stop-color="#265AC3" stop-opacity="0"/>
</linearGradient>
<linearGradient id="paint1_linear" x1="37.0744" y1="45.854" x2="37.0744" y2="51.5895" gradientUnits="userSpaceOnUse">
<stop stop-color="#214FAE"/>
<stop offset="1" stop-color="#3A71E3"/>
</linearGradient>
</defs>
</svg>
