<svg width="76" height="76" viewBox="0 0 76 76" fill="none" xmlns="http://www.w3.org/2000/svg">
<path d="M0 24C0 10.7452 10.7452 0 24 0H52C65.2548 0 76 10.7452 76 24V52C76 65.2548 65.2548 76 52 76H24C10.7452 76 0 65.2548 0 52V24Z" fill="#446EED"/>
<path d="M27.1084 60.5356C27.1084 60.0505 27.1709 59.9723 27.6552 59.8158C28.3582 59.5811 29.6236 58.3605 30.0922 57.4529L30.4672 56.7643L30.5453 38.6903L30.6234 20.6163L30.9671 19.9904C31.1545 19.6461 31.5763 19.114 31.9044 18.7854C33.076 17.6587 32.2168 17.7213 46.9328 17.7213H60.1492L61.0084 18.1751C61.9769 18.6759 62.7893 19.6304 63.0392 20.5381C63.1486 20.9449 63.1798 26.9852 63.1642 39.1128L63.1174 57.0773L62.7737 57.8128C62.305 58.8456 61.1333 60.0505 60.0867 60.5513L59.2118 60.9894L43.1679 61.0364L27.1084 61.0677V60.5356ZM47.4328 41.1784C47.9014 40.6933 47.917 40.6307 47.8546 39.5353C47.8077 38.5964 47.7296 38.3148 47.4484 38.0331C47.1047 37.6732 47.0422 37.6732 42.3712 37.6262C37.2159 37.5636 36.5754 37.6419 36.3254 38.3148C36.2317 38.5338 36.1692 39.1911 36.1692 39.7857C36.1692 40.7872 36.2005 40.8811 36.6535 41.2567L37.1378 41.6635H42.0431H46.9641L47.4328 41.1784ZM56.4936 32.8847C56.8841 32.6813 57.2747 32.2901 57.5403 31.8363C57.6652 31.5859 57.7277 30.5375 57.7277 28.1589C57.7277 24.5284 57.6496 24.1529 56.8373 23.5113C56.4467 23.1983 56.2436 23.1983 47.011 23.1983C41.7776 23.1983 37.4346 23.2609 37.2315 23.3391C37.0284 23.4174 36.716 23.6365 36.5129 23.8242C36.1536 24.1685 36.1536 24.1685 36.2005 28.1432L36.2473 32.1336L36.6379 32.4466C36.8566 32.6187 37.169 32.8221 37.3409 32.9004C37.8095 33.1038 56.1187 33.1038 56.4936 32.8847Z" fill="white"/>
<path d="M21.9531 71.3799C20.3753 71.2078 18.2819 70.5819 16.5479 69.7681C11.6269 67.4365 8.04944 63.1801 6.5341 57.844L6.09668 56.2948V39.4726V22.6505L6.51848 21.0231C7.61202 16.8762 10.3459 12.9797 13.8765 10.5542C15.2356 9.61529 17.4071 8.50425 18.5944 8.12868C21.1876 7.29931 20.8127 7.31496 38.0439 7.31496C55.2751 7.31496 54.9002 7.29931 57.4934 8.12868C59.6649 8.81722 62.6331 10.6324 64.539 12.432C66.7261 14.5133 68.7101 17.8621 69.5537 20.9292L69.9911 22.494V39.3944V56.2948L69.5537 57.844C67.4603 65.1831 61.1646 70.6288 53.9003 71.3956C52.1975 71.5834 23.6247 71.5677 21.9531 71.3799ZM59.618 60.0817C60.6647 59.581 61.8364 58.376 62.305 57.3432L62.6487 56.6077L62.6956 39.1127C62.7112 27.3138 62.68 21.4143 62.5706 21.0074C62.3207 20.0998 61.5083 19.1452 60.5397 18.6445L59.6805 18.1907H46.9329C32.748 18.1907 33.5447 18.1281 32.3731 19.2548C31.1233 20.4441 31.0921 20.5692 31.0452 25.2638L30.9983 29.4576L24.0934 29.4732C17.5008 29.4732 15.798 29.5515 15.5637 29.8645C15.5168 29.9427 15.3293 30.0835 15.1575 30.1774C14.9857 30.2713 14.8138 30.4904 14.7982 30.6469C14.767 30.8034 14.6576 31.0224 14.5482 31.1007C13.9234 31.6014 13.9077 31.7266 13.8609 40.5837L13.814 49.1278L14.4545 50.0667C15.7043 51.9601 17.6258 52.8678 19.6098 52.5078C20.2191 52.3983 20.3128 52.3201 20.3597 51.9445C20.4065 51.5846 20.4846 51.522 20.9221 51.522H21.4376L21.5469 52.4765C21.5938 53.0086 21.6407 53.9319 21.6407 54.5108C21.6407 55.1211 21.7032 55.5906 21.7969 55.5906C21.8906 55.5906 21.9531 55.7471 21.9531 55.9505C21.9531 57.4997 23.5153 59.3932 25.1713 59.8626C25.6868 60.0035 26.6398 60.1287 27.2803 60.1287C28.3894 60.1443 28.4207 60.1443 27.9676 60.3634C27.5615 60.5512 29.7173 60.5668 43.1211 60.5512L58.7432 60.5199L59.618 60.0817Z" fill="#446EED"/>
<path d="M26.9512 60.1595C26.9512 59.7996 27.0449 59.69 27.4667 59.5336C28.0603 59.3145 29.1383 59.2832 29.1383 59.471C29.1383 59.69 28.6227 60.0812 27.9822 60.3473C27.123 60.7072 26.9512 60.6759 26.9512 60.1595Z" fill="#9FC7FA"/>
<path d="M36.1376 41.6787L35.6221 41.2249L35.7002 39.5036C35.8252 36.9216 35.2628 37.125 42.0115 37.172C48.7603 37.2189 48.2447 37.0155 48.3228 39.5349L48.3853 41.1623L47.9011 41.6474L47.4324 42.1325H42.0428H36.6531L36.1376 41.6787Z" fill="#9FC7FA"/>
<path d="M21.1558 38.0331C21.1558 37.9236 21.0933 36.5935 21.0308 35.0912C20.9058 32.5248 20.8746 32.3058 20.484 31.6172C20.0622 30.8974 18.9687 29.7707 18.6718 29.7707C18.5781 29.7707 18.5156 29.5986 18.5156 29.3795V28.9883H23.749H28.9824V29.536C28.9824 29.8959 28.8887 30.1306 28.7012 30.2245C28.545 30.3028 28.3263 30.5688 28.2013 30.8192C28.0764 31.0539 27.8264 31.3982 27.6546 31.5859C27.4827 31.7581 26.8578 32.4779 26.2642 33.1821C25.6862 33.8863 25.1394 34.4653 25.0613 34.4653C24.9832 34.4653 24.9207 34.6061 24.9207 34.7782C24.9207 34.9347 24.827 35.1381 24.7176 35.2007C24.5926 35.2633 24.3739 35.5294 24.2177 35.7641C24.0615 35.9988 23.5616 36.5935 23.1085 37.0942C22.6399 37.5793 22.2649 38.0331 22.2649 38.0957C22.2649 38.3148 21.1714 38.2365 21.1558 38.0331Z" fill="#9FC7FA"/>
<path d="M36.8719 33.3695C36.7 33.2913 36.3876 33.0878 36.1689 32.9157L35.7783 32.6027L35.7314 28.1429L35.6846 23.6987L36.0439 23.3545C36.247 23.1667 36.5594 22.9476 36.7625 22.8694C36.9656 22.7911 41.496 22.7285 47.0262 22.7285H56.9306L57.493 23.2136C57.7899 23.4796 58.0086 23.7613 57.9617 23.8239C57.9148 23.9022 57.9461 23.996 58.0398 24.0586C58.2898 24.2151 58.2429 31.8672 58.0086 32.3054C57.743 32.7592 57.3524 33.1504 56.9619 33.3538C56.5713 33.5729 37.3405 33.5729 36.8719 33.3695Z" fill="#9FC7FA"/>
<path d="M24.6092 60.3171C23.9687 60.1294 23.5469 59.8633 22.8751 59.2061C22.3752 58.721 21.9222 58.142 21.8753 57.9073C21.8128 57.6569 21.7035 57.4691 21.6253 57.4691C21.5472 57.4691 21.5316 57.3596 21.5785 57.2344C21.641 57.1092 21.6097 56.9997 21.5316 56.9997C21.4535 56.9997 21.4066 56.7962 21.4535 56.5302C21.4847 56.2642 21.4535 56.0607 21.3598 56.0607C21.1098 56.0607 21.0473 54.136 20.8755 42.7752L20.7349 32.541L20.2818 31.6647C20.0163 31.164 19.6101 30.6476 19.2976 30.4285L18.7509 30.0686L18.5634 31.0544C18.4541 31.6021 18.0947 33.699 17.7354 35.7177C17.3917 37.7363 16.97 40.0993 16.7981 40.9599C16.6419 41.8206 16.2513 43.9019 15.9389 45.5762C15.4077 48.5338 15.2047 49.5666 15.0172 50.4742C14.861 51.1628 14.2517 51.0532 13.7674 50.2395C13.2988 49.4101 12.9863 48.3304 13.205 48.2678C13.2988 48.2365 13.3612 45.3728 13.3612 40.2871C13.3612 35.9211 13.4237 32.1029 13.5018 31.8056C13.58 31.5082 13.6581 31.1483 13.6893 31.0231C13.7206 30.8979 13.8768 30.7415 14.0486 30.6632C14.2048 30.6006 14.2986 30.4598 14.2517 30.3346C14.158 30.0999 14.5954 29.6148 14.8922 29.6148C15.0016 29.6148 15.0797 29.5522 15.0797 29.4739C15.0797 29.2862 15.9545 28.9419 16.2045 29.0201C16.3138 29.0671 16.5013 29.0045 16.6106 28.8949C16.7512 28.7385 16.9231 28.7228 17.2043 28.8323C17.423 28.9262 17.9541 28.9888 18.3759 28.9888C18.8602 28.9888 19.1258 29.0514 19.0633 29.1453C19.0164 29.2392 19.0477 29.3018 19.1258 29.3018C19.4382 29.3018 20.5318 30.4128 20.9536 31.1483C21.3441 31.8369 21.3754 32.0559 21.5004 34.6223C21.5629 36.1245 21.6253 37.4547 21.6253 37.5642C21.641 37.6894 21.8909 37.4703 22.2034 37.0948C22.5158 36.7348 22.922 36.281 23.1094 36.1089C23.2813 35.9368 23.5781 35.5925 23.7343 35.3265C23.9062 35.0761 24.1249 34.7944 24.2499 34.7318C24.3592 34.6692 24.4529 34.4658 24.4529 34.3093C24.4529 34.1372 24.5154 33.9964 24.5935 33.9964C24.6717 33.9964 25.2184 33.4174 25.7964 32.7132C26.3901 32.009 27.015 31.2892 27.1868 31.117C27.3587 30.9292 27.6086 30.585 27.7336 30.3503C27.8586 30.0999 28.0773 29.8338 28.2335 29.7556C28.3897 29.6774 28.5147 29.5052 28.5147 29.38C28.5147 29.1923 28.0304 29.1453 25.7496 29.0984C23.3906 29.0671 23.5937 29.0514 26.9993 29.0201L31.0142 28.9888L30.983 43.1038L30.9361 57.2344L30.5768 57.9073C30.1394 58.721 28.8896 60.0198 28.6709 59.8946C28.4366 59.7538 27.4211 60.1607 27.4211 60.3954C27.4211 60.6927 25.6871 60.6458 24.6092 60.3171Z" fill="#7BB1F9"/>
<path d="M23.876 60.0349C23.6104 59.8941 23.2511 59.6437 23.0949 59.456C22.8293 59.143 22.8293 59.143 23.3136 59.4716C23.5792 59.6594 24.0478 59.9254 24.329 60.0506C24.6102 60.1758 24.7352 60.2697 24.6102 60.2697C24.4853 60.2697 24.1572 60.1601 23.876 60.0349Z" fill="#6696F4"/>
<path d="M21.173 54.9807C21.173 54.4017 21.1261 53.4628 21.0636 52.9151C20.9699 52.07 20.9386 51.9918 20.8449 52.383C20.7824 52.649 20.7199 50.0357 20.7043 46.5931C20.6887 43.1504 20.6262 39.9425 20.5481 39.473C20.4856 39.0035 20.4231 38.7532 20.4075 38.9253C20.4075 39.0974 20.1888 40.3337 19.9232 41.6638C19.6733 42.9939 19.3139 44.903 19.1421 45.8889C18.9546 46.8747 18.7515 48.0484 18.6734 48.4709C18.3766 50.0201 18.0642 51.7727 17.9704 52.4143C17.8767 53.0559 17.8611 53.0715 17.3768 52.9777C15.5178 52.6334 13.5806 50.646 13.1432 48.6743C12.987 48.0171 13.3307 48.1579 13.5025 48.8308C13.5962 49.1438 13.815 49.6602 14.0024 49.9575C14.4711 50.7243 14.3774 51.0529 15.4709 45.1065C15.7833 43.4321 16.1739 41.3508 16.3301 40.4902C16.7051 38.5184 17.2831 35.2636 17.8298 32.1182C18.0486 30.7881 18.2829 29.5988 18.3454 29.4893C18.4235 29.3484 18.6578 29.411 19.2983 29.724C19.9388 30.0526 20.2669 30.3499 20.6262 30.9289L21.0949 31.6957L21.2042 34.9975C21.3604 40.1302 21.4386 56.0604 21.298 56.0604C21.2355 56.0604 21.173 55.5753 21.173 54.9807Z" fill="#6696F4"/>
<path d="M14.6113 29.8805C14.6113 29.724 14.7207 29.6144 14.8457 29.6144C14.9706 29.6144 15.08 29.5518 15.08 29.4736C15.08 29.2858 15.9548 28.9416 16.2048 29.0354C16.3141 29.0667 16.1267 29.2232 15.783 29.3641C15.4549 29.5049 15.0487 29.7396 14.8925 29.8805C14.627 30.1152 14.6113 30.1152 14.6113 29.8805Z" fill="#6696F4"/>
<path d="M16.4863 29.0041C16.4863 28.8006 16.8456 28.7067 17.1737 28.8319C17.4549 28.9258 17.4549 28.9415 17.0956 29.0354C16.5957 29.1762 16.4863 29.1762 16.4863 29.0041Z" fill="#6696F4"/>
<path d="M53.665 71.239C53.665 71.1608 53.7744 71.0825 53.8994 71.0825C54.0243 71.0825 54.1337 71.1608 54.1337 71.239C54.1337 71.3329 54.0243 71.3955 53.8994 71.3955C53.7744 71.3955 53.665 71.3329 53.665 71.239Z" fill="#5785F0"/>
<path d="M54.7588 71.0823C54.7588 71.004 54.8681 70.9258 54.9931 70.9258C55.1181 70.9258 55.2274 71.004 55.2274 71.0823C55.2274 71.1762 55.1181 71.2388 54.9931 71.2388C54.8681 71.2388 54.7588 71.1762 54.7588 71.0823Z" fill="#5785F0"/>
<path d="M56.165 70.7693C56.165 70.691 56.2588 70.6128 56.3837 70.6128C56.5087 70.6128 56.6649 70.691 56.7118 70.7693C56.7587 70.8632 56.6649 70.9258 56.4931 70.9258C56.3056 70.9258 56.165 70.8632 56.165 70.7693Z" fill="#5785F0"/>
<path d="M57.2588 70.4879C57.2588 70.3157 58.0243 70.081 58.1649 70.2218C58.2899 70.3314 58.1649 70.4096 57.6806 70.5348C57.4306 70.5974 57.2588 70.5817 57.2588 70.4879Z" fill="#5785F0"/>
<path d="M58.5078 69.9875C58.5078 69.9093 58.6172 69.8311 58.7421 69.8311C58.8671 69.8311 58.9765 69.9093 58.9765 69.9875C58.9765 70.0814 58.8671 70.144 58.7421 70.144C58.6172 70.144 58.5078 70.0814 58.5078 69.9875Z" fill="#5785F0"/>
<path d="M21.1713 55.0116C21.1713 53.4467 20.9839 51.7724 20.8589 52.3826C20.7964 52.7895 20.687 52.8678 20.0778 52.9773C18.1719 53.3216 16.2347 52.8521 14.9225 51.6941C14.3913 51.2247 14.3913 51.2247 15.2037 51.7567C16.0004 52.2731 17.1877 52.7426 17.3283 52.6017C17.3752 52.5548 17.4689 52.1166 17.5626 51.6002C17.7188 50.63 18 49.0182 18.4375 46.6709C18.8124 44.6366 19.3592 41.6634 20.1403 37.3601C20.5464 35.2162 20.8901 33.3854 20.9214 33.2915C20.9682 33.2132 20.9995 33.8705 21.0151 34.7781C21.0151 35.6857 21.0932 40.8184 21.1557 46.2015C21.2338 51.5846 21.2651 56.0131 21.2338 56.0444C21.2026 56.0757 21.1713 55.6219 21.1713 55.0116Z" fill="#5785F0"/>
<path d="M13.5008 49.7221C13.329 49.3309 13.204 48.9397 13.2353 48.8615C13.2665 48.7989 13.4384 49.1118 13.6102 49.5813C14.0164 50.6141 13.9383 50.708 13.5008 49.7221Z" fill="#5785F0"/>
<path d="M14.3752 29.9272C14.5315 29.7551 14.7658 29.6143 14.9064 29.6143C15.0939 29.6299 15.0626 29.6925 14.7814 29.9272C14.3128 30.3341 14.0159 30.3341 14.3752 29.9272Z" fill="#5785F0"/>
<path d="M15.3911 29.2387C15.6098 29.1135 15.9223 29.0039 16.0785 28.9883C16.4378 28.9883 16.2816 29.1917 15.891 29.2387C15.7504 29.2543 15.4848 29.3169 15.313 29.3638C15.1099 29.4421 15.1412 29.3951 15.3911 29.2387Z" fill="#5785F0"/>
<path d="M60.5078 18.6446C60.3515 18.5663 60.2266 18.4099 60.2266 18.3003C60.2266 18.1751 60.2734 18.1595 60.3515 18.2847C60.414 18.3786 60.6015 18.5351 60.7733 18.6289C60.9452 18.7228 61.0233 18.8011 60.9296 18.8011C60.8515 18.8011 60.6484 18.7385 60.5078 18.6446Z" fill="#5785F0"/>
<path d="M32.8254 18.5348C32.716 18.3627 33.6377 17.9402 33.7783 18.0966C33.8408 18.1436 33.8096 18.2531 33.7315 18.3314C33.4971 18.5661 32.9191 18.6756 32.8254 18.5348Z" fill="#5785F0"/>
</svg>
