<svg width="18" height="18" viewBox="0 0 18 18" fill="none" xmlns="http://www.w3.org/2000/svg">
<path d="M9 1C7.40929 1.00195 5.88427 1.65091 4.75946 2.80452C3.63466 3.95814 3.00191 5.52221 3 7.15366C3 11.0563 8.3484 16.586 8.5752 16.8198C8.68772 16.9352 8.8403 17 8.9994 17C9.1585 17 9.31108 16.9352 9.4236 16.8198C9.6504 16.586 15 11.0563 15 7.15366C14.9981 5.52221 14.3653 3.95814 13.2405 2.80452C12.1157 1.65091 10.5907 1.00195 9 1ZM9 4.99988C9.41534 4.99988 9.82135 5.1262 10.1667 5.36286C10.512 5.59952 10.7812 5.93589 10.9401 6.32944C11.0991 6.723 11.1407 7.15605 11.0597 7.57384C10.9786 7.99163 10.7786 8.3754 10.4849 8.67661C10.1912 8.97782 9.81705 9.18295 9.40969 9.26606C9.00233 9.34916 8.58009 9.30651 8.19637 9.14349C7.81264 8.98048 7.48466 8.70442 7.25391 8.35024C7.02316 7.99605 6.9 7.57964 6.9 7.15366C6.90032 6.58232 7.12159 6.03443 7.51528 5.6302C7.90897 5.22596 8.44292 4.9984 9 4.99742V4.99988Z" fill="#E7E7E7"/>
</svg>
